<svg width="452" height="431" viewBox="0 0 452 431" fill="none" xmlns="http://www.w3.org/2000/svg">
<path d="M83.5951 66.2489C75.8272 68.1966 68.4351 71.3816 61.9367 75.5978C56.8773 78.87 52.2074 83.2878 49.2056 88.2143C46.6576 92.403 46.575 98.3561 46.8867 103.516C49.3431 100.588 52.0149 98.3882 54.7692 96.6696C56.419 95.6385 58.1054 94.7953 59.7919 94.0758C60.6764 91.4498 62.0054 88.9293 63.7194 86.6287C64.7551 85.2355 65.9375 83.9202 67.2436 82.7104C72.1793 78.1413 78.8931 75.1579 85.8865 74.3926C85.7765 72.6236 85.5244 70.9371 85.2449 69.4614C84.9883 68.0958 84.6995 66.918 84.4658 66.0473V66.0381C84.1679 66.0977 83.8884 66.1664 83.5951 66.2489Z" fill="#FFA044"/>
<path d="M63.7102 86.6292C64.7459 85.236 65.9283 83.9208 67.2344 82.7109C72.1701 78.1418 78.8839 75.1584 85.8773 74.3931C85.9506 75.6671 85.9461 76.9732 85.8315 78.261C85.4145 82.8713 83.5309 87.2296 78.3661 88.8473C77.7703 89.0398 77.1516 89.2093 76.5238 89.3789C74.9335 89.7959 73.2516 90.1763 71.4781 90.5796C67.7843 91.4228 63.7652 92.3852 59.7827 94.0717C60.6718 91.4503 62.0008 88.9298 63.7102 86.6292Z" fill="#FF8625"/>
<path d="M37.4692 100.57C36.8643 101.142 36.2822 101.738 35.7323 102.366C32.1715 106.44 30.1459 111.807 28.4777 117.036C23.6062 132.278 20.9573 148.3 19.9537 164.395C19.4083 173.129 19.3625 182.061 21.7043 190.439C25.0314 202.354 33.5188 212.665 44.3893 216.68C55.2597 220.699 68.2474 217.881 76.2628 208.962C84.4156 199.888 86.6337 186.025 84.8234 173.51C83.1736 162.126 78.5129 152.039 74.1088 141.7C72.0282 136.815 71.7808 130.917 70.965 125.592C70.0301 119.478 69.0952 113.369 68.1557 107.256C67.6058 103.649 67.0146 99.9372 65.2319 96.8347C63.298 93.4709 59.9892 91.0786 56.3825 90.437C52.7758 89.7955 48.9354 90.9182 46.1124 93.4342C43.3535 95.8952 40.1731 98.0124 37.4692 100.57Z" fill="#060634"/>
<path d="M112.151 410.3H112.16C113.521 410.02 114.91 409.97 116.28 410.171H116.289C116.573 412.371 116.317 414.763 117.343 416.665C118.122 418.1 119.534 419.012 121 419.438C122.467 419.873 123.997 419.882 125.514 419.882C130.253 419.91 135.097 419.96 139.561 421.734C143.534 423.315 147.209 426.569 148.63 430.89L108.741 430.977C108.375 428.118 107.046 425.368 105.29 423.177C103.201 420.57 100.552 418.604 97.857 416.78C97.8296 414.658 97.8296 412.554 97.857 410.433C98.3474 410.52 98.824 410.634 99.2961 410.799C100.96 411.349 102.531 412.513 103.26 414.241C103.654 415.171 103.801 416.239 104.314 417.11C104.818 417.971 105.941 418.572 106.697 417.962C107.279 417.499 107.357 416.587 107.279 415.808C107.183 415.025 106.972 414.227 107.151 413.462C107.417 412.376 108.375 411.707 109.3 411.262C110.217 410.822 111.175 410.492 112.151 410.3Z" fill="#E46C00"/>
<path d="M112.21 362.753C112.21 356.089 112.261 396.075 112.192 404.951C107.481 405.786 102.669 405.9 97.9211 405.3C98.1182 396.354 98.2465 356.296 98.0082 362.89C102.747 363.161 107.481 363.124 112.21 362.753Z" fill="#EE6E56"/>
<path d="M112.192 404.951C112.183 406.734 112.164 408.517 112.151 410.299C111.175 410.492 110.217 410.822 109.3 411.257C108.374 411.702 107.417 412.371 107.151 413.457C106.972 414.222 107.183 415.02 107.279 415.803C107.357 416.587 107.279 417.499 106.697 417.957C105.946 418.567 104.823 417.966 104.314 417.105C103.801 416.234 103.654 415.166 103.26 414.236C102.531 412.504 100.955 411.34 99.2959 410.794C98.8239 410.629 98.3473 410.515 97.8569 410.428C97.8753 408.723 97.889 407.009 97.9256 405.299C102.669 405.9 107.481 405.785 112.192 404.951Z" fill="#242450"/>
<path d="M108.741 430.972L98.1639 431C97.9761 426.261 97.8798 421.514 97.8569 416.775C100.556 418.599 103.2 420.565 105.29 423.172C107.045 425.368 108.375 428.113 108.741 430.972Z" fill="#E46C00"/>
<path d="M73.5908 410.3H73.5999C74.961 410.02 76.3496 409.97 77.7199 410.171H77.7291C78.0132 412.371 77.7566 414.763 78.7831 416.665C79.5622 418.1 80.9737 419.012 82.4402 419.438C83.9067 419.873 85.4374 419.882 86.9543 419.882C91.6929 419.91 96.537 419.96 101.001 421.734C104.974 423.315 108.649 426.569 110.07 430.89L70.1812 430.977C69.8146 428.118 68.4855 425.368 66.7303 423.177C64.6405 420.57 61.9917 418.604 59.297 416.78C59.2695 414.658 59.2695 412.554 59.297 410.433C59.7874 410.52 60.264 410.634 60.736 410.799C62.3996 411.349 63.9714 412.513 64.7001 414.241C65.0942 415.171 65.2409 416.239 65.7542 417.11C66.2583 417.971 67.381 418.572 68.1372 417.962C68.7192 417.499 68.7971 416.587 68.7192 415.808C68.623 415.025 68.4122 414.227 68.591 413.462C68.8568 412.376 69.8145 411.707 70.7403 411.262C71.6523 410.822 72.6146 410.492 73.5908 410.3Z" fill="#FF8625"/>
<path d="M73.6503 362.753C73.6503 356.089 73.7007 396.075 73.632 404.951C68.9208 405.786 64.1089 405.9 59.3611 405.3C59.5581 396.354 59.6864 356.296 59.4481 362.89C64.1868 363.161 68.9208 363.124 73.6503 362.753Z" fill="#FF8872"/>
<path d="M73.6319 404.951C73.6228 406.734 73.6044 408.517 73.5907 410.299C72.6145 410.492 71.6567 410.822 70.7402 411.257C69.8144 411.702 68.8566 412.371 68.5908 413.457C68.4121 414.222 68.6229 415.02 68.7191 415.803C68.797 416.587 68.7191 417.499 68.1371 417.957C67.3855 418.567 66.2627 417.966 65.754 417.105C65.2408 416.234 65.0941 415.166 64.7 414.236C63.9713 412.504 62.3949 411.34 60.7359 410.794C60.2639 410.629 59.7872 410.515 59.2969 410.428C59.3152 408.723 59.329 407.009 59.3656 405.299C64.1088 405.9 68.9208 405.785 73.6319 404.951Z" fill="#242450"/>
<path d="M70.1811 430.972L59.6039 431C59.416 426.261 59.3198 421.514 59.2969 416.775C61.9962 418.599 64.6404 420.565 66.7302 423.172C68.4854 425.368 69.8144 428.113 70.1811 430.972Z" fill="#FF8625"/>
<path d="M50.8464 240.121C51.7905 228.306 60.7636 223.531 68.5361 233.971C71.3774 237.784 72.6102 242.623 72.6836 247.376C72.7202 249.777 72.4086 252.348 70.8596 254.181C68.8111 256.596 65.1036 257.004 62.0973 256C55.3926 253.759 50.269 247.311 50.8464 240.121Z" fill="#E46C00"/>
<path d="M93.4573 221.776L97.4489 384.764C98.1089 385.208 98.7733 385.584 99.4699 385.9C101.968 387.083 104.658 387.518 107.219 387.532C110.02 387.55 112.678 387.06 114.822 386.487C117.801 385.708 115.895 384.759 115.895 384.759C121.064 304.83 131.266 262.293 135.67 234.095C136.421 229.228 137.127 225.021 137.755 221.428C129.167 222.042 120.56 222.335 111.944 222.308C107.65 222.298 103.347 222.211 99.0529 222.033C97.9164 221.991 96.7798 221.936 95.6433 221.877C94.91 221.854 94.1768 221.817 93.4573 221.776ZM95.6937 222.729C96.0695 227.312 98.3334 249.415 98.9017 254.122C97.3985 243.645 96.1978 233.183 95.6937 222.729Z" fill="#060634"/>
<path d="M134.547 155.206C132.159 148.364 130.024 141.43 128.14 134.432C126.403 127.97 124.868 121.362 124.964 114.671C125.06 107.98 126.926 101.11 131.293 96.0419C133.218 93.81 135.94 91.8624 138.869 92.2061C142.769 92.6643 145.014 96.7614 146.522 100.386C157.223 126.16 159.638 152.828 166.856 179.417C170.068 191.273 174.532 202.464 179.119 213.637C174.362 214.095 169.729 215.75 165.742 218.449C164.372 219.388 145.376 182.075 143.955 178.885C140.486 171.136 137.347 163.231 134.547 155.206Z" fill="#FF9335"/>
<path d="M173.625 230.025C174.766 236.244 173.941 258.98 180.971 259.163C181.988 259.186 182.763 258.255 183.345 257.385C187.561 251.051 190.943 243.856 188.116 236.221C185.293 228.568 182.181 221.103 179.115 213.637C174.358 214.095 169.725 215.75 165.738 218.449C168.831 223.788 170.71 229.677 168.804 235.882C168.387 237.239 167.855 239.008 168.937 239.929C169.72 240.584 170.935 240.245 171.59 239.471C173.194 237.587 174.088 232.871 173.625 230.025Z" fill="#FF8872"/>
<path d="M61.7396 385.071C64.4709 385.814 67.2665 386.222 70.0666 386.318C72.1059 364.329 73.5724 350.04 72.1426 328.024C71.1802 313.167 68.9025 298.346 66.4278 283.562H66.4186C66.0291 281.248 65.6441 278.942 65.2454 276.642C65.1171 276.582 64.975 276.509 64.8467 276.449C64.9475 276.353 65.0575 276.257 65.1629 276.161C61.8816 256.913 58.5729 237.702 57.6884 218.527C56.9139 218.491 56.1394 218.458 55.374 218.413L59.5994 384.925C60.296 385.378 61.0017 385.763 61.735 386.084V385.071H61.7396Z" fill="#060634"/>
<path d="M100.029 230.992C100.822 226.024 101.569 221.73 102.233 218.064C93.1502 218.692 84.0488 218.99 74.9336 218.962C70.392 218.953 65.8412 218.866 61.2997 218.683C60.099 218.637 58.8937 218.586 57.693 218.527C57.5372 218.518 60.7405 248.856 61.153 251.601C64.9384 277.049 70.4699 302.305 72.1426 328.029C73.5725 350.045 72.1014 364.334 70.0666 386.322C72.7201 386.409 75.3735 386.208 77.9948 385.713L77.9766 386.689C81.1249 385.896 79.3376 384.924 79.3376 384.924C84.8004 303.346 95.3683 259.768 100.029 230.992Z" fill="#242450"/>
<path d="M61.7397 385.071V386.084C64.384 387.289 67.2254 387.734 69.9384 387.752C69.9888 387.271 70.0301 386.799 70.0667 386.322C67.2666 386.222 64.4711 385.814 61.7397 385.071Z" fill="#242450"/>
<path d="M69.9385 387.752C72.899 387.771 75.7128 387.271 77.9768 386.689L77.995 385.713C75.3737 386.212 72.7203 386.409 70.0668 386.322C70.0301 386.799 69.9889 387.271 69.9385 387.752Z" fill="#242450"/>
<path d="M59.375 158.079C58.9442 138.268 55.6583 118.177 59.9249 98.8236C60.3236 97.0179 60.8002 95.2169 61.4326 93.48C61.978 93.5029 62.528 93.5304 63.0596 93.4983C66.0659 93.3058 69.0401 92.7376 72.0419 92.7147C75.0986 93.0996 78.1508 92.8934 81.2075 92.0731C83.0773 91.2848 84.9471 90.4966 86.8169 89.7038C87.5226 89.3326 88.1047 88.8055 88.7463 88.3518C91.5143 89.5892 94.7452 90.6157 97.1924 89.6396C100.185 88.4435 101.926 85.7946 105.451 84.9514C112.453 83.2787 120.299 85.4692 125.743 90.0796C133.484 96.6422 137.058 106.995 138.085 117.091C139.107 127.187 137.929 137.365 137.915 147.511C137.883 167.873 142.516 187.904 146.206 207.931C147.503 214.975 145.976 222.706 137.993 224.741C132.915 226.038 127.595 224.695 122.435 223.779C105.455 220.772 87.651 222.541 71.5974 228.833C67.0329 230.621 61.8406 232.761 57.4686 230.543C54.1735 228.866 52.4182 225.053 52.157 221.364C51.8958 217.674 52.8674 214.026 53.7335 210.429C57.8581 193.321 59.7599 175.677 59.375 158.079Z" fill="white"/>
<path d="M151.673 114.662C148.089 114.043 144.464 113.411 141.215 112.109C137.966 110.808 135.088 108.736 134.002 106.069C133.388 104.561 133.374 102.957 132.971 101.408C132.567 99.8593 131.637 98.2645 129.813 97.5037C126.096 95.9593 121.041 98.6907 117.403 97.05C114.392 95.6935 114.415 92.2931 112.077 90.3133C109.218 87.8936 104.19 88.4298 99.9329 88.0906C90.6894 87.3528 83.5448 81.8259 77.2434 76.6382" stroke="#4F4F79" stroke-width="2.2486" stroke-miterlimit="10"/>
<path d="M69.4939 87.7466C72.1015 90.9362 77.4726 92.0315 82.3716 92.531C87.2706 93.0306 92.5454 93.2918 96.4362 95.6061C101.344 98.5254 102.82 104.029 108.067 106.587C111.509 108.264 116.147 108.415 119.034 110.61C121.642 112.59 122.925 116.178 126.605 116.33C128.227 116.394 129.767 115.679 131.394 115.702C133.333 115.725 135.01 116.797 136.023 118.053C137.04 119.304 137.558 120.747 138.314 122.104C141.119 127.14 147.484 130.935 154.592 131.806" stroke="#4F4F79" stroke-width="2.2486" stroke-miterlimit="10"/>
<path d="M51.2954 88.4756C57.8397 92.8613 62.4179 98.654 68.1098 103.681C73.7971 108.709 81.3358 113.2 90.0569 113.438C95.483 113.589 101.596 112.196 105.923 114.689C108.892 116.403 109.896 119.382 111.092 122.063C112.288 124.744 114.323 127.645 117.953 128.291C120.578 128.763 123.392 127.892 126.009 128.401C128.493 128.882 130.299 130.5 131.605 132.173C132.911 133.845 133.914 135.683 135.642 137.122C138.882 139.821 143.96 140.596 148.41 141.985C152.86 143.373 157.411 146.283 156.815 149.908" stroke="#4F4F79" stroke-width="2.2486" stroke-miterlimit="10"/>
<path d="M56.3457 114.107C58.3896 115.446 61.0385 115.633 63.5362 115.876C66.0338 116.119 68.7102 116.545 70.47 118.182C72.3444 119.928 73.1418 122.127 75.7998 123.035C79.0078 124.13 83.2835 124.13 86.6656 124.194C88.6912 124.235 90.8223 124.194 92.6187 124.905C96.9403 126.609 97.1786 131.582 101.207 133.658C104.804 135.518 109.928 134.327 113.796 135.835C118.209 137.558 119.602 142.209 124.089 143.813C126.38 144.634 129.217 144.537 131.188 145.738C134.712 147.887 133.383 152.8 137.1 154.757C138.726 155.614 140.857 155.614 142.759 156.031C146.989 156.961 149.831 159.862 152.727 162.383C155.619 164.903 159.505 167.374 163.877 166.947" stroke="#4F4F79" stroke-width="2.2486" stroke-miterlimit="10"/>
<path d="M158.327 178.422C155.843 174.091 151.146 170.526 145.445 168.638C140.294 166.933 134.542 166.603 129.19 165.306C123.837 164.009 118.452 161.273 117.279 157.103C116.633 154.811 116.935 151.833 114.172 150.792C111.665 149.853 108.659 151.434 105.923 151.003C101.441 150.293 100.914 145.119 96.8212 143.561C94.9468 142.846 92.66 143.043 90.7627 142.369C87.2797 141.132 86.5282 137.653 84.1039 135.385C81.7758 133.213 78.0545 132.282 74.732 131.068C66.5929 128.089 59.9891 122.768 56.552 116.426" stroke="#4F4F79" stroke-width="2.2486" stroke-miterlimit="10"/>
<path d="M56.3687 140.133C58.6601 143.034 65.241 140.912 68.6689 143.071C72.0831 145.216 70.0804 150.023 73.4075 152.241C77.1013 154.702 84.0443 151.824 87.3439 154.587C88.9158 155.903 88.8471 157.965 90.2127 159.409C91.5189 160.793 93.879 161.333 96.1062 161.549C98.3289 161.764 100.639 161.75 102.715 162.387C107.119 163.735 106.445 167.616 108.283 170.371C110.098 173.088 113.168 175.123 116.679 176.535C119.396 177.625 122.632 178.652 124.776 180.609C126.884 182.524 128.383 184.248 131.408 185.219C133.772 185.98 136.605 185.737 139.061 186.191C146.994 187.653 154.129 192.409 158.075 198.871" stroke="#4F4F79" stroke-width="2.2486" stroke-miterlimit="10"/>
<path d="M58.5457 153.451C59.9755 160.802 68.6049 166.98 78.3572 167.63C81.0015 167.805 83.8199 167.644 86.1296 168.634C89.6171 170.128 92.7931 175.045 94.5941 178.011C96.7801 181.603 99.9376 183.689 104.754 183.606C106.592 183.574 108.567 183.203 110.171 184.019C113.324 185.627 112.618 190.425 115.538 192.364C116.844 193.23 118.558 193.303 120.152 193.542C125.693 194.38 130.331 197.542 134.433 200.87C135.959 202.107 137.938 203.111 139.029 204.678C141.362 208.033 140.033 212.065 141.206 215.736C142.388 219.43 145.257 222.624 148.933 223.944" stroke="#4F4F79" stroke-width="2.2486" stroke-miterlimit="10"/>
<path d="M58.6509 170.582C63.9303 172.231 66.5471 176.892 71.524 179.018C74.1637 180.146 77.248 180.467 80.0847 181.269C82.9215 182.071 85.7491 183.633 86.2211 185.902C87.0964 190.127 91.9863 192.712 96.065 194.857C99.7084 196.777 104.135 197.125 107.829 198.963C113.223 201.648 113.571 205.063 115.189 210.273C115.78 212.184 116.798 214.141 118.617 214.975C119.708 215.475 120.954 215.502 122.086 215.896C124.547 216.753 126.078 219.164 127.343 221.446C128.356 223.275 129.336 225.149 129.827 227.184C130.317 229.214 130.276 231.446 129.318 233.302" stroke="#4F4F79" stroke-width="2.2486" stroke-miterlimit="10"/>
<path d="M49.3203 187.675C53.1332 187.717 56.992 187.758 60.6857 188.638C64.3795 189.513 67.9449 191.323 70.0576 194.224C70.997 195.512 71.6845 197.038 73.1006 197.886C75.2728 199.187 78.1279 198.367 80.7126 198.124C85.135 197.716 90.7032 199.435 93.3154 202.904C94.5252 204.513 96.0651 207.088 96.0834 209.155C96.1017 211.126 94.5619 212.954 96.2758 214.769C97.0458 215.585 98.2098 215.85 99.2638 216.235C103.92 217.945 107.151 222.922 106.821 227.867C106.729 229.232 106.152 230.836 104.809 231.111" stroke="#4F4F79" stroke-width="2.2486" stroke-miterlimit="10"/>
<path d="M54.9436 194.751C58.3578 199.912 64.0497 203.505 70.1815 204.357C71.955 204.605 73.9668 204.733 75.1309 206.099C77.019 208.307 75.218 211.731 75.8046 214.577C76.1804 216.392 77.5048 217.831 78.7788 219.178C81.7531 222.317 84.7273 225.456 87.7016 228.596" stroke="#4F4F79" stroke-width="2.2486" stroke-miterlimit="10"/>
<path d="M51.9646 207.441C55.3376 205.846 59.2421 209.292 60.5161 212.056C62.45 216.245 63.7104 221.13 67.5966 223.715C71.8265 226.528 75.2316 230.254 77.3946 234.897" stroke="#4F4F79" stroke-width="2.2486" stroke-miterlimit="10"/>
<path d="M88.1046 5.61379C84.3192 3.04283 79.8097 1.66799 75.2636 1.15013C71.579 0.733091 67.3811 1.05388 64.8972 3.80816C63.1833 5.71003 62.6471 8.40472 61.1531 10.4807C58.9396 13.565 54.9526 14.8527 51.1671 15.1827C47.3863 15.5173 43.5505 15.0911 39.7926 15.641C36.0346 16.1909 32.1484 17.992 30.5032 21.4153C29.2933 23.9313 29.4308 27.0155 27.8314 29.307C26.4657 31.2684 24.0598 32.2583 21.7042 32.6662C19.3486 33.074 16.9289 33.0053 14.5688 33.3765C11.4983 33.8623 8.50565 35.1363 6.26924 37.2902C4.03282 39.4487 2.62134 42.533 2.80466 45.6355C2.96964 48.431 4.36738 51.2632 3.47832 53.9167C2.80922 55.9194 0.962358 57.3492 0.279518 59.3427C-0.728702 62.2849 1.13192 65.5204 3.59747 67.4223C7.43788 70.3782 12.8823 71.0977 17.3551 69.237C21.8279 67.3764 25.1596 63.009 25.7737 58.2016C26.1449 55.2869 25.9708 51.6024 28.6014 50.2917C30.132 49.5309 32.0064 50.0305 33.4729 50.9012C34.9394 51.7719 36.1859 52.991 37.6845 53.8159C42.3315 56.3685 48.972 53.9488 50.883 49.0039C51.6621 46.9875 51.8683 44.5173 53.6189 43.2525C56.2632 41.346 60.2228 43.6924 63.1466 42.2534C65.2043 41.2406 65.9697 38.7705 67.2162 36.8457C69.5534 33.239 73.8154 31.4105 77.9445 30.2189C82.0736 29.0228 86.4227 28.2208 90.0202 25.8698C93.1274 23.8442 96.3537 19.3118 95.7396 15.3752C95.1393 11.5073 91.166 7.6898 88.1046 5.61379Z" fill="#242450"/>
<path d="M69.7733 199.095C69.6404 198.953 69.5075 198.811 69.3792 198.66L69.4204 199.105C69.5304 199.1 69.645 199.095 69.7733 199.095ZM70.1903 90.7027C71.8722 90.304 73.467 89.9328 74.9748 89.5249C74.8006 89.9694 74.6311 90.4185 74.4798 90.8585C74.2645 91.4726 74.0536 92.0821 73.8703 92.7008C72.7567 96.2341 71.9959 99.8179 71.5422 103.434C71.226 105.844 71.0519 108.273 70.9694 110.711C70.8411 114.364 70.9694 118.048 71.2489 121.747C71.446 124.304 71.7118 126.875 72.0463 129.437C72.138 130.124 72.2296 130.821 72.3259 131.508C71.281 131.888 70.3141 132.411 69.4296 133.034C69.4296 133.016 69.4342 132.993 69.4342 132.975C68.0868 133.919 66.8907 135.147 65.8412 136.531C65.6946 136.723 65.5433 136.93 65.4013 137.14C65.25 137.342 65.1034 137.553 64.9705 137.764C64.8284 137.974 64.6864 138.194 64.558 138.405C63.7377 139.72 63.0411 141.1 62.4499 142.47C61.2492 145.22 60.4106 148.038 59.9202 150.403C59.9065 150.463 59.8881 150.536 59.8881 150.605C58.5637 157.094 58.9212 163.844 60.5618 170.237C60.8047 171.195 61.0751 172.139 61.3775 173.083C61.9595 174.912 62.6286 176.713 63.3848 178.468C63.5681 178.89 63.7469 179.321 63.9348 179.738C65.7496 183.991 67.5873 188.262 69.9612 192.253C71.4185 194.719 73.2058 196.882 75.0435 198.999C76.6521 200.851 78.3111 202.679 79.8097 204.668C78.806 205.493 77.807 206.323 76.8217 207.175C76.5192 207.427 76.2167 207.688 75.9234 207.945C72.578 210.827 69.3242 213.802 66.1574 216.868C65.942 216.561 65.7129 216.263 65.4746 215.979C63.7056 213.774 61.5196 211.744 59.6911 209.993C53.5134 204.104 46.9921 198.798 41.5752 192.478C41.5752 192.469 41.566 192.469 41.566 192.46C39.2975 189.811 37.2307 186.992 35.4434 183.867C30.1548 174.545 30.5398 163.446 31.6534 152.749C31.7863 151.526 31.9146 150.302 32.0567 149.088L33.2437 143.859L36.0712 131.389L36.974 127.388C37.3086 125.656 37.6981 124.015 38.0923 122.457C39.0867 118.662 40.2462 115.358 41.5431 112.453C42.973 109.268 44.5586 106.587 46.2634 104.323C46.4696 104.048 46.6759 103.777 46.8912 103.516C49.2101 100.602 51.7399 98.4156 54.3429 96.7108C55.9057 95.6888 57.5005 94.8501 59.0999 94.1444C62.8715 92.4717 66.6845 91.5322 70.1903 90.7027Z" fill="#FFA044"/>
<path d="M55.8646 227.876C56.2954 227.262 56.7444 226.652 57.1981 226.061H57.2073C57.2898 225.942 57.3815 225.823 57.4731 225.699C60.0487 222.4 62.9404 219.311 65.4701 215.984C63.7012 213.779 61.5152 211.749 59.6866 209.998C53.509 204.11 46.9876 198.803 41.5707 192.483C41.502 199.453 40.4892 206.433 39.8797 213.394C39.1327 221.932 39.0273 230.713 41.9649 238.779C43.7842 243.797 49.2561 248.306 55.2321 251.555C52.0333 248.787 50.4981 244.319 50.8464 240.13C51.1946 235.717 53.2615 231.606 55.8646 227.876Z" fill="#FF8625"/>
<path d="M85.7535 218.761C84.727 217.257 83.6821 215.796 82.5822 214.352C82.5731 214.352 82.573 214.343 82.573 214.343C80.9645 212.193 79.2734 210.108 77.5319 208.037C76.9958 208.018 76.455 207.991 75.9188 207.95C72.5734 210.832 69.3196 213.807 66.1528 216.872C67.1473 218.224 67.9676 219.64 68.4213 221.093C68.7513 222.12 69.0354 223.156 69.315 224.205C70.5157 228.953 71.2672 233.934 72.3259 238.664C74.4981 237.532 76.5329 236.061 78.4119 234.333C82.2248 230.841 85.2174 226.652 88.1137 222.436C87.3621 221.185 86.5693 219.966 85.7535 218.761Z" fill="#FF8872"/>
<path d="M68.4674 188.358C66.7947 185.558 65.2549 182.689 63.9304 179.738C65.7452 183.991 67.5829 188.262 69.9568 192.254C71.4142 194.719 73.2015 196.882 75.0392 199L75.085 198.963C75.1308 198.812 75.1767 198.67 75.2225 198.519C75.9466 196.268 76.5149 193.982 76.9502 191.672C77.8255 187.149 78.1922 182.538 78.2105 177.878C78.2242 174.812 78.0959 171.714 77.8393 168.62C77.3581 162.548 76.4507 156.467 75.4379 150.491C75.2775 149.533 75.1125 148.58 74.9475 147.636C74.6588 145.954 74.3563 144.253 74.0676 142.558C73.4306 138.896 72.8302 135.212 72.3261 131.513C71.2812 131.894 70.3143 132.416 69.4298 133.039C69.0907 136.188 68.8019 139.336 68.5545 142.503C68.3482 145.17 68.1879 147.837 68.0595 150.504C67.7296 156.815 67.6058 163.148 67.6791 169.463C67.7112 172.465 67.7754 175.458 67.9129 178.46C68.0366 181.759 68.2154 185.059 68.4674 188.358Z" fill="#FF8625"/>
<path d="M82.0874 56.1572C83.0406 56.2947 83.8426 57.4771 84.5758 58.1691C88.6958 62.0691 96.4958 68.6912 103.562 70.2035C103.627 71.3218 103.705 72.5545 103.782 73.824C103.824 74.5068 103.86 75.208 103.911 75.9092C103.947 76.5737 103.984 77.2198 104.025 77.8798C98.1456 74.8322 90.8864 70.4052 83.8518 66.2028C83.4531 62.6282 82.6328 56.2351 82.0874 56.1572Z" fill="#EF6757"/>
<path d="M74.7 89.1495C75.2958 88.9845 75.8777 88.8149 76.446 88.627C81.345 87.0322 83.114 82.6831 83.4898 78.082C83.7327 75.0069 84.2735 71.5285 84.0764 68.4626C84.0581 68.1831 83.971 67.3215 83.8519 66.1987C90.8865 70.4012 98.1457 74.8282 104.025 77.8758C104.067 78.5724 104.103 79.2873 104.145 79.9564C104.378 84.0442 105.574 88.1871 105.822 92.0871C105.959 94.2502 104.965 96.1429 103.434 97.6506C101.578 99.4837 98.9339 100.749 96.5967 101.248C86.432 103.416 81.4734 96.8349 73.6001 92.3208C73.7834 91.7021 73.9942 91.088 74.2096 90.4785C74.3562 90.0431 74.5258 89.594 74.7 89.1495Z" fill="#FF8872"/>
<path d="M104.057 74.1999C104.094 74.8827 104.135 75.5839 104.186 76.2851C111.11 76.8487 117.829 79.5343 122.98 83.8788C124.593 83.9521 126.206 84.0071 127.815 84.0621C129.73 84.1309 131.651 84.1904 133.571 84.2454C134.18 84.2637 134.794 84.2867 135.413 84.3142C130.61 76.2163 120.647 71.5693 110.625 70.0479C110.593 70.0616 110.57 70.0799 110.533 70.0891C108.494 71.0377 106.202 71.0973 103.837 70.5794C103.902 71.6977 103.979 72.9259 104.057 74.1999Z" fill="#FFA044"/>
<path d="M135.028 244.122C135.083 244.058 135.133 243.985 135.188 243.916C134.973 236.748 134.684 229.196 134.492 224.37C134.185 224.476 133.873 224.567 133.548 224.654C134.332 231.18 134.799 237.743 135.028 244.122Z" fill="#FFB26C"/>
<path d="M122.975 83.8745C124.588 83.9478 126.202 84.0028 127.81 84.0578C129.726 84.1266 131.646 84.1861 133.566 84.2411C134.084 84.2595 134.606 84.2778 135.129 84.3007C138.52 89.3189 141.462 94.3737 143.713 99.8777C144.634 103.255 145.454 106.523 146.288 109.442C146.797 111.22 147.273 113.007 147.75 114.799C147.832 115.381 147.929 115.954 147.997 116.555C148.286 119.057 148.474 121.587 148.625 124.125C148.304 124.442 148.007 124.749 147.732 125.06C144.67 128.493 144.226 131.66 144.473 136.746L143.497 136.788C141.201 137.475 138.887 138.08 136.554 138.616C136.16 136.6 135.748 134.588 135.326 132.572C134.886 130.372 134.423 128.154 133.96 125.959C133.433 123.475 132.902 121 132.343 118.525C132.15 117.682 131.971 116.843 131.779 116C131.059 112.81 130.294 109.593 129.336 106.454C128.598 103.979 127.732 101.546 126.678 99.1857C125.739 97.0501 124.634 94.9878 123.328 93.0218C122.751 92.1557 122.109 91.2987 121.44 90.4738C119.172 87.6966 116.381 85.2448 113.255 83.4346C116.5 83.5996 119.735 83.7508 122.975 83.8745Z" fill="#FFA044"/>
<path d="M140.491 158.226C141.151 161.507 141.82 164.784 142.512 168.061C142.558 168.253 142.59 168.455 142.636 168.652C143.488 172.694 144.34 176.754 145.101 180.833C145.761 184.389 146.343 187.959 146.783 191.525C147.383 196.305 147.732 201.089 147.681 205.887C147.672 207.436 147.617 208.985 147.516 210.534C147.429 211.9 147.301 213.27 147.127 214.636C145.812 225.176 142.049 235.634 135.193 243.92C135.198 244.048 135.202 244.186 135.202 244.314C145.495 241.881 154.51 234.663 158.538 225.396C161.92 217.596 161.883 208.839 160.371 200.59C158.877 192.336 155.99 184.38 153.841 176.264C152.819 172.419 151.966 168.537 151.274 164.624C147.273 155.857 144.959 146.389 144.487 136.82C144.482 136.792 144.482 136.769 144.478 136.742L143.502 136.783C141.206 137.47 138.891 138.075 136.559 138.611C137.04 140.99 137.521 143.364 137.989 145.738C138.818 149.908 139.638 154.065 140.491 158.226Z" fill="#FFA044"/>
<path d="M59.9157 150.403C60.4061 148.038 61.2402 145.22 62.4454 142.47C63.0366 141.1 63.7332 139.72 64.5535 138.405C64.6864 138.185 64.8331 137.974 64.966 137.764C65.1081 137.553 65.2547 137.342 65.3967 137.14C65.5388 136.93 65.6947 136.728 65.8367 136.531C66.8725 135.188 68.064 133.987 69.4251 133.034C69.0859 136.183 68.7972 139.331 68.5497 142.498C68.3435 145.16 68.1831 147.832 68.0548 150.499C67.7248 156.81 67.6011 163.143 67.6745 169.458C67.7065 172.46 67.7706 175.453 67.9081 178.454C68.0273 181.759 68.2106 185.058 68.4581 188.358C66.7854 185.558 65.2455 182.689 63.9211 179.738C63.7378 179.316 63.5591 178.885 63.3712 178.468C62.615 176.708 61.9459 174.907 61.3639 173.083C61.0614 172.139 60.791 171.195 60.5481 170.242C58.9121 163.849 58.5501 157.099 59.8791 150.609C59.8882 150.536 59.9066 150.463 59.9157 150.403Z" fill="#FF8625"/>
<path d="M104.186 76.2812C111.11 76.8449 117.829 79.5305 122.98 83.875C119.74 83.7512 116.504 83.5954 113.264 83.4259C116.39 85.2361 119.181 87.6925 121.449 90.4651C119.291 90.2726 117.224 90.0022 115.262 89.6356L105.515 88.1004L104.85 87.9995C104.85 87.9995 104.653 84.5487 104.415 80.3279C104.337 79.0355 104.259 77.6515 104.186 76.2812Z" fill="#FF8625"/>
<path d="M142.933 213.697C143.323 211.231 143.332 208.491 143.103 205.59V205.58C142.759 201.085 141.866 196.232 141.013 191.424C140.743 189.912 140.463 188.409 140.22 186.919C139.955 185.26 139.675 183.5 139.418 181.677C138.859 177.813 138.337 173.643 137.865 169.514C137.471 166.15 137.109 162.809 136.788 159.661C136.242 154.372 135.798 149.633 135.514 146.348C135.303 143.887 135.092 141.444 134.891 139.001C134.51 134.336 134.176 129.68 133.983 124.946C136.082 131.664 136.623 138.855 137.989 145.738C138.818 149.913 139.638 154.07 140.491 158.235C141.151 161.517 141.82 164.793 142.512 168.07C142.558 168.263 142.59 168.464 142.636 168.661C143.488 172.703 144.34 176.764 145.101 180.842C145.761 184.399 146.343 187.969 146.783 191.534C147.383 196.314 147.732 201.098 147.681 205.897C147.672 207.446 147.617 208.995 147.516 210.544C147.429 211.909 147.301 213.28 147.127 214.645C145.811 225.186 142.049 235.644 135.188 243.929C134.973 236.762 134.684 229.21 134.492 224.384C139.771 222.606 142.159 218.715 142.933 213.697Z" fill="#FF8625"/>
<path d="M144.473 136.742C144.23 131.655 144.67 128.484 147.732 125.056C148.007 124.749 148.304 124.437 148.625 124.121C148.9 128.809 149.042 133.53 149.381 138.209C149.116 140.202 149.102 142.26 149.166 144.263C149.368 151.091 150.073 157.887 151.26 164.619C147.26 155.857 144.945 146.384 144.473 136.816V136.742Z" fill="#FF9335"/>
<path d="M104.277 71.9826C106.839 72.5417 109.314 72.4775 111.523 71.451C111.559 71.4372 111.587 71.4189 111.619 71.4052C114.905 69.8607 117.554 66.1716 118.97 59.3019C121.435 47.5149 121.458 38.5418 120.542 31.9379C120.111 30.8243 119.538 29.7657 118.777 28.7941C116.697 26.1361 113.466 24.4771 110.153 23.3451C106.207 21.9932 101.991 21.2737 97.7514 21.2554C94.438 22.4194 91.583 24.555 89.5299 27.2497C87.2522 30.2698 86.2669 34.2431 84.53 37.6069C83.5172 39.5729 82.014 41.2823 80.2084 42.5563C78.8519 43.5141 76.5926 44.1236 75.7768 45.6818C75.3964 46.4059 75.3094 47.3316 75.676 48.4727C76.5559 51.1995 78.6411 53.7063 80.575 55.8327C80.575 55.8327 80.7309 55.9931 81.0104 56.2956C81.5329 56.8134 82.4677 57.785 83.7234 58.9674C88.1871 63.179 96.6287 70.3465 104.277 71.9826Z" fill="#FF8872"/>
<path d="M74.8054 21.7087C76.8356 18.8444 79.8923 16.9746 82.9307 15.3386C84.498 14.4953 86.1387 13.7713 87.6739 12.873C88.815 12.2085 89.6629 11.159 90.7903 10.522C96.34 7.38281 104.154 9.50923 109.479 12.1398C114.525 14.6328 118.897 18.5466 121.431 23.6197C124.231 29.2245 122.925 36.9053 120.386 42.391C120.001 40.7641 120.276 39.0959 120.139 37.414C119.983 35.5671 119.259 33.8577 119.039 32.0705C118.136 25.5079 116.33 21.2917 115.043 18.9911C114.053 18.7436 113.058 18.5191 112.077 18.3632C107.385 17.6071 101.436 20.6776 97.5316 23.1294C93.7966 25.4758 90.0708 28.6792 87.7702 32.5562C86.1708 35.2555 86.9361 37.854 85.9233 40.6541C85.3596 42.2168 84.0673 43.6329 82.4174 43.8391C81.7942 43.917 81.1343 43.8254 80.5477 44.0637C79.8465 44.3524 79.4019 45.0811 79.2599 45.8281C79.1178 46.5751 79.2324 47.345 79.3607 48.092C79.7457 50.2917 80.2635 52.4732 80.9143 54.6087C81.4688 56.4235 83.2149 58.7608 82.7291 60.6764C82.6191 61.1118 82.3533 61.5838 81.9088 61.6342C81.5925 61.6709 81.2992 61.4738 81.0426 61.2859C77.6834 58.802 75.3874 57.088 73.7972 53.1972C72.2482 49.4118 71.1895 45.4248 70.6625 41.369C69.943 35.81 71.3499 30.2098 73.1418 24.9533C73.5589 23.7481 74.1225 22.6711 74.8054 21.7087Z" fill="#242450"/>
<path d="M115.574 43.0046C115.927 43.5454 116.683 43.7196 117.27 43.3942C117.856 43.0688 118.04 42.3676 117.691 41.8268C117.339 41.2861 116.582 41.1119 115.996 41.4373C115.409 41.7627 115.221 42.4639 115.574 43.0046Z" fill="#262651"/>
<path d="M99.9696 43.3436C100.02 43.9715 100.607 44.4481 101.289 44.4023C101.968 44.3564 102.481 43.8111 102.431 43.1833C102.38 42.5554 101.794 42.0788 101.111 42.1246C100.437 42.1705 99.9238 42.7158 99.9696 43.3436Z" fill="#262651"/>
<path d="M120.272 36.1303C117.476 35.2641 114.296 35.5299 111.706 36.836" stroke="#9A6B60" stroke-width="1.78" stroke-miterlimit="10" stroke-linecap="round" stroke-linejoin="round"/>
<path d="M104.365 36.7356C101.409 35.6861 97.9028 36.0711 95.2952 37.7346" stroke="#9A6B60" stroke-width="1.78" stroke-miterlimit="10" stroke-linecap="round" stroke-linejoin="round"/>
<path d="M109.896 41.0796C109.974 44.0813 110.744 47.0648 112.142 49.7732C112.467 50.4056 112.838 51.1114 112.595 51.7713C112.247 52.7245 110.923 52.9491 109.836 53.0087" stroke="#9A6B60" stroke-width="1.78" stroke-miterlimit="10" stroke-linecap="round" stroke-linejoin="round"/>
<path d="M114.025 58.2007C109.241 59.9238 103.925 60.3821 98.8699 59.5068C99.539 60.5471 100.423 61.4224 101.638 62.2886C104.044 64.0025 107.119 64.4883 109.676 63.3243C111.706 62.4077 113.379 60.5288 114.025 58.2007Z" fill="#D34C3B"/>
<path d="M114.305 56.3176C108.837 58.0499 102.857 57.8574 97.3621 55.7539C97.747 57.2891 98.2007 58.4807 98.8698 59.5072C103.925 60.3826 109.241 59.9197 114.025 58.2011C114.195 57.6008 114.296 56.9638 114.305 56.3176Z" fill="#F1F1F1"/>
<path d="M111.871 297.274C108.205 297.429 101.771 297.654 102.852 300.202C103.072 300.724 104.507 300.669 105.006 301.476C105.552 302.356 105.368 303.749 104.763 304.542C104.158 305.339 103.081 306.022 103.265 307.007C103.471 308.098 104.96 308.24 106.06 308.121C110.886 307.585 115.716 307.053 120.542 306.517C121.275 306.435 122.173 306.215 122.338 305.495C122.462 304.95 122.059 304.418 121.591 304.111C121.124 303.804 120.57 303.639 120.13 303.295C119.465 302.787 119.126 301.888 119.277 301.068C119.428 300.243 120.065 299.533 120.867 299.29C118.691 296.989 117.027 296.229 114.14 297.086C113.819 297.182 112.971 297.223 111.871 297.274Z" fill="#EE6E56"/>
<path d="M72.01 299.899C70.2502 300.22 68.5041 300.678 66.9414 300.912C65.2274 301.173 63.5134 301.434 61.7995 301.691C61.5153 301.732 61.2037 301.796 61.0387 302.03C60.7821 302.392 61.0891 302.924 61.4924 303.107C61.8957 303.29 62.3632 303.258 62.8031 303.336C64.0726 303.561 65.0578 304.78 65.1128 306.068C65.1678 307.355 64.3521 308.606 63.1972 309.179C66.6481 309.372 70.1035 309.564 73.5544 309.757C72.5783 309.129 71.6021 308.506 70.626 307.878C74.7505 308.226 78.8705 308.574 82.995 308.923C80.7173 306.375 77.5414 304.647 74.1685 304.115C76.107 303.116 79.4571 303.423 80.9373 302.035C78.7559 299.175 75.3646 299.29 72.01 299.899Z" fill="#EE6E56"/>
<path d="M46.7493 99.9007C52.3128 95.3408 61.263 89.8002 67.2299 96.3445C70.3324 99.7495 71.6843 104.369 72.6055 108.883C75.9647 125.367 74.6907 142.773 68.9668 158.593C67.4361 162.827 64.6956 167.603 60.1952 167.777C62.6333 150.568 62.0421 132.938 58.4537 115.931C57.7251 112.476 56.8498 108.988 55.0166 105.968C53.1835 102.957 50.2414 100.437 46.7493 99.9007Z" fill="#242450"/>
<path d="M146.93 148.625C143.919 142.704 144.927 135.793 145.271 129.529C145.683 122.017 146.096 114.502 146.513 106.99C146.902 99.8778 144.153 93.636 137.063 90.6709C137.957 99.7357 139.203 108.338 139.203 117.508C139.199 128.658 141.875 138.685 146.93 148.625Z" fill="#242450"/>
<path d="M119.107 21.3281C119.914 24.0228 117.687 27.1666 115.354 29.0089C112.866 30.9749 109.891 32.2168 106.963 33.4359C102.165 35.4294 97.339 37.4367 92.2704 38.5778C88.375 39.4577 84.1404 39.7831 80.52 38.1012C85.3686 26.2179 97.5956 17.726 110.423 17.3273C112.568 17.2585 114.813 17.4281 116.665 18.5142C118.04 19.3208 118.796 20.2923 119.107 21.3281Z" fill="#4F4F79"/>
<path d="M379.225 67.1844C379.203 67.1422 379.182 67.1 379.166 67.0577C378.334 65.1873 377.24 63.4055 375.914 61.8981C373.685 62.067 371.519 61.6532 369.775 59.8165C368.428 58.3979 367.668 56.4725 367.141 54.5429C364.81 45.9886 367.385 38.5785 370.535 30.7166C370.628 30.4929 370.717 30.2564 370.81 30.0326C369.775 28.3986 368.846 26.6168 368.006 24.7886C367.238 26.2621 365.929 27.7273 366.22 29.4964C364.73 28.3311 363.577 28.4577 362.34 29.6273C360.93 30.9615 361.715 32.4773 360.959 33.7567C360.157 35.112 360.043 34.0016 358.43 34.5589C356.137 35.3485 355.555 39.0092 357.096 40.7361C358.219 41.9943 358.945 44.2701 357.526 45.1737C356.796 45.6424 355.723 45.5073 355.166 46.1786C354.478 47.0146 355.183 47.9013 355.204 48.788C355.246 50.422 354.959 50.5698 354.03 51.8322C352.506 53.9011 349.728 58.7863 353.114 60.5301C355.187 61.5983 359.642 60.6737 359.144 64.8622C358.97 66.3188 357.666 67.6784 358.168 69.0549C358.861 70.9507 361.424 70.3131 362.787 71.2125C365.067 72.7114 363.526 74.7043 363.138 76.8407C361.994 83.2037 367.736 79.1123 370.438 81.4979C372.072 82.9377 370.615 85.0404 371.506 86.5984C372.528 88.3802 375.226 88.0255 376.852 87.5991C378.292 87.2233 379.009 86.5984 380.588 86.9615C381.137 87.0882 383.911 88.1607 384.013 88.7391C383.434 85.5048 382.86 82.2453 382.282 78.9899C381.572 74.9914 380.842 70.9338 379.225 67.1844Z" fill="#FB921C"/>
<path d="M368.002 24.7803V24.793C368.842 26.617 369.775 28.403 370.805 30.037C372.296 26.3721 373.985 22.6269 377.046 20.3427C380.145 18.0373 384.215 17.5982 387.944 18.2907C391.79 19.0042 397.038 20.4694 399.673 23.8641V23.8218C401.911 26.085 404.111 28.2763 406.387 30.2946C405.719 25.0632 404.676 19.8825 402.57 15.1197C401.586 12.9073 400.353 10.7835 398.875 8.87076C396.088 5.23961 392.453 2.39803 388.201 1.2158C383.257 -0.160665 377.983 0.797781 373.161 2.60491C370.599 3.56759 368.006 4.85961 366.376 7.16498C363.978 10.5597 364.328 15.0902 365.637 18.8564C366.309 20.8071 367.098 22.8254 368.002 24.7803Z" fill="#060634"/>
<path d="M370.805 30.0333C370.713 30.2571 370.624 30.4935 370.531 30.7173C367.381 38.5749 364.81 45.9893 367.136 54.5436C367.664 56.4774 368.424 58.3985 369.771 59.8172C371.515 61.6539 373.681 62.0719 375.91 61.8988C377.35 61.8143 378.807 61.4723 380.183 61.1177C383.65 60.231 387.019 59.0234 390.447 58.0354C393.399 57.1825 394.775 55.35 396.363 52.6309C398.812 48.4382 400.155 43.5741 400.201 38.6974C400.222 36.3836 399.652 34.0824 399.694 31.832C399.749 29.1424 399.88 26.5795 399.665 23.8603C397.03 20.4656 391.786 19.0005 387.935 18.2869C384.207 17.5945 380.137 18.0294 377.038 20.3389C373.985 22.6232 372.296 26.3726 370.805 30.0333Z" fill="#EE6E56"/>
<path d="M375.91 61.8987L375.919 61.9114C377.236 63.4061 378.329 65.1879 379.161 67.0583C379.182 67.1005 379.203 67.1428 379.22 67.185C379.241 67.185 379.271 67.185 379.292 67.1723C383.13 66.1252 386.808 64.3941 390.118 62.1098C390.929 60.8727 391.841 59.6862 392.356 58.2971C392.529 57.8369 392.651 57.3555 392.732 56.8784C388.661 58.6095 384.456 60.0409 380.183 61.1176C378.807 61.4723 377.35 61.8143 375.91 61.8987Z" fill="#DD5744"/>
<path d="M379.224 67.1973C380.846 70.9341 381.572 74.9917 382.281 78.9986C382.86 82.254 383.434 85.5136 384.012 88.7605L384.772 92.9912C384.865 93.4937 384.954 94.0046 385.047 94.5197C389.548 90.5043 393.082 85.3742 395.311 79.7206C396.358 77.0648 396.557 74.7341 396.958 72.0741C397.427 68.9623 398.469 66.4922 398.026 63.2115C397.857 61.9533 397.473 60.5979 396.447 59.8844C395.455 59.1919 394.087 59.2933 393.006 59.8253C390.709 60.9484 388.855 63.0764 386.525 64.3178C384.224 65.538 381.551 66.0024 379.3 67.1889C379.275 67.1847 379.241 67.1847 379.224 67.1973Z" fill="#EE6E56"/>
<path d="M406.982 13.3336C404.419 11.5813 401.687 10.15 398.871 8.87061C400.348 10.7833 401.586 12.9071 402.565 15.1196C404.672 19.8823 405.715 25.063 406.382 30.2944C409.794 33.3471 413.399 36.0705 417.655 38.207C419.032 34.2676 418.829 29.6653 417.322 25.7133C415.35 20.5283 411.428 16.3778 406.982 13.3336Z" fill="#33335E"/>
<path d="M385.406 36.2311C385.528 36.9235 386.166 37.4175 386.833 37.3289C387.5 37.2444 387.944 36.6111 387.821 35.9186C387.699 35.2262 387.061 34.7322 386.394 34.8208C385.727 34.9053 385.288 35.5386 385.406 36.2311Z" fill="#262651"/>
<path d="M373.486 29.6401C373.292 30.2988 373.659 31.0208 374.31 31.2615C374.96 31.5021 375.644 31.1601 375.838 30.5015C376.032 29.8428 375.665 29.1208 375.015 28.8801C374.364 28.6437 373.68 28.9857 373.486 29.6401Z" fill="#262651"/>
<path d="M379.664 31.2993C378.747 33.9045 377.215 36.2309 375.234 38.0212C374.808 38.4054 374.339 38.8065 374.2 39.3892C373.964 40.3856 374.77 41.3652 375.509 42.121" stroke="#9A6B60" stroke-width="1.962" stroke-miterlimit="10" stroke-linecap="round" stroke-linejoin="round"/>
<path d="M380.766 49.0038C377.531 50.8616 373.377 49.692 370.987 46.2593" stroke="#F1F1F1" stroke-width="6.8491" stroke-miterlimit="10" stroke-linecap="round" stroke-linejoin="round"/>
<path d="M393.087 32.2247C391.322 30.236 388.919 28.8933 386.382 28.4795" stroke="#9A6B60" stroke-width="2.1722" stroke-miterlimit="10" stroke-linecap="round" stroke-linejoin="round"/>
<path d="M379.537 25.7007C377.772 23.712 375.37 22.3693 372.832 21.9556" stroke="#9A6B60" stroke-width="2.1722" stroke-miterlimit="10" stroke-linecap="round" stroke-linejoin="round"/>
<path d="M318.01 424.92C317.309 426.039 316.921 427.314 317.014 428.539C326.167 431.228 335.976 431.549 345.277 429.434C348.541 428.682 351.784 427.639 355.128 427.504C358.265 427.369 361.373 428.049 364.493 428.37C367.119 428.648 369.864 428.665 372.334 427.8C372.3 426.326 372.161 424.861 371.928 423.404C368.048 423.932 363.978 422.974 360.017 422.708C351.902 422.155 343.897 424.511 335.849 425.735C329.929 426.626 323.596 426.803 318.01 424.92Z" fill="#4F4F79"/>
<path d="M320.104 422.687C319.281 423.257 318.546 424.038 318.01 424.921C323.596 426.804 329.929 426.627 335.845 425.736C343.893 424.511 351.898 422.151 360.013 422.708C363.974 422.974 368.044 423.933 371.924 423.405C371.527 420.779 370.814 418.195 369.838 415.737C366.114 415.184 362.243 415.399 358.518 416.033C354.317 416.746 349.901 417.954 345.915 416.417C343.551 415.497 341.625 413.719 339.497 412.326C339.045 412.03 338.568 411.756 338.078 411.511C337.905 411.76 337.732 412.001 337.551 412.245C335.136 415.497 331.825 418.034 328.11 419.474C325.416 420.513 322.477 421.024 320.104 422.687Z" fill="#242450"/>
<path d="M346.19 403.413C344.864 403.725 343.58 404.46 342.588 405.397C340.743 407.12 339.523 409.417 338.074 411.507C338.568 411.748 339.046 412.026 339.493 412.322C341.625 413.715 343.547 415.493 345.911 416.413C349.897 417.95 354.313 416.743 358.515 416.029C362.239 415.396 366.11 415.18 369.834 415.733C369.125 413.964 368.268 412.25 367.28 410.633C365.756 408.133 363.868 405.735 363.003 402.965C361.757 403.358 360.605 404.072 359.718 405.072C358.59 406.339 357.683 408.138 356.028 408.361C354.79 408.53 353.638 407.698 352.798 406.761C351.957 405.815 351.265 404.705 350.226 404C349.027 403.189 347.591 403.075 346.19 403.413Z" fill="#242450"/>
<path d="M346.189 403.413C347.591 403.076 349.031 403.19 350.226 404.004C351.265 404.71 351.957 405.82 352.797 406.766C353.638 407.703 354.79 408.535 356.027 408.366C357.682 408.142 358.59 406.348 359.718 405.077C360.6 404.076 361.753 403.363 363.003 402.97C362.855 402.514 362.741 402.041 362.656 401.56C361.799 396.603 364.641 390.599 366.085 385.908C367.706 380.664 369.463 375.445 371.266 370.264C366.009 371.451 360.342 370.665 355.571 368.103C352.544 379.908 349.576 391.718 346.189 403.413Z" fill="#FFAC3D"/>
<path d="M356.251 365.408C356.027 366.303 355.791 367.202 355.567 368.097C360.338 370.66 366.005 371.445 371.261 370.259C371.312 370.098 371.375 369.946 371.426 369.786C375.184 358.985 376.738 355.865 380.339 345.001C383.058 336.802 385.44 328.484 387.77 320.145C386.516 318.169 385.3 316.176 384.131 314.149C381.019 308.736 378.325 303.581 377.32 297.378C376.446 292.029 375.707 286.641 375.121 281.241C369.792 307.216 361.761 343.929 356.251 365.408Z" fill="#DD5744"/>
<path d="M359.996 212.435C360.03 212.498 360.064 212.553 360.102 212.612C361.157 214.453 362.226 216.302 363.29 218.143C365.561 209.023 369.006 200.22 373.512 192.028C370.556 190.251 367.457 188.739 364.244 187.506C362.521 190.213 360.727 192.886 359.135 195.706C358.016 197.682 356.935 199.743 356.682 202.006C356.272 205.704 358.143 209.217 359.996 212.435Z" fill="#EE6E56"/>
<path d="M378.401 195.288C376.826 194.11 375.188 193.029 373.507 192.029C369.002 200.22 365.557 209.023 363.285 218.143C362.221 216.303 361.153 214.453 360.098 212.612C360.064 212.549 360.03 212.494 359.992 212.435C357.454 223.265 355.85 234.332 355.212 245.449C358.113 245.36 361.005 245.343 363.91 245.415C365.228 230.869 371.316 216.995 378.836 204.506C387.264 190.504 397.553 177.774 406.12 163.87C410.123 157.385 413.742 150.646 416.955 143.705C416.6 136.586 416.157 129.471 415.629 122.37C415.629 122.378 415.629 122.378 415.629 122.387C413.011 132.68 409.262 142.696 404.731 152.263C397.511 167.531 388.336 181.726 378.401 195.288Z" fill="#73AEBB"/>
<path d="M418.145 184.146C418.031 170.656 417.643 157.166 416.959 143.701C413.746 150.642 410.123 157.381 406.124 163.866C397.557 177.766 387.268 190.5 378.84 204.501C371.32 216.991 365.232 230.865 363.914 245.411C366.287 245.466 368.652 245.571 371.016 245.732C374.445 245.964 377.869 246.302 381.281 246.766C387.344 247.581 393.373 248.759 399.462 249.207C400.061 249.262 400.657 249.295 401.256 249.325C402.848 249.405 404.461 249.422 406.065 249.371C408.214 249.3 410.364 249.093 412.466 248.7C413.218 244.841 413.965 240.982 414.607 237.114C415.033 234.513 414.945 231.798 415.283 229.147C415.679 225.967 416.034 222.775 416.347 219.579C417.17 211.198 418.166 202.863 418.183 194.465C418.187 191.02 418.179 187.579 418.145 184.146Z" fill="#80BAC8"/>
<path d="M386.816 83.2752C384.629 86.3279 383.075 89.5073 381.471 93.1469C379.339 97.994 377.185 102.926 376.172 108.161C375.104 113.671 375.298 119.333 375.902 124.886C376.172 127.381 376.683 129.838 376.991 132.325C377.236 134.28 378.127 136.4 377.911 138.351C378.389 136.776 380.762 135.733 381.813 134.445C383.236 132.71 384.304 130.658 385.246 128.614C386.972 124.873 388.172 120.904 389.375 116.96C391.655 109.508 393.635 101.735 398.191 95.4902C399.369 93.8731 400.817 92.3193 402.54 91.4538C403.338 89.9802 404.254 88.6037 405.348 87.3961C404.524 86.6108 403.764 85.7326 402.983 84.9135C401.261 83.0894 399.301 81.7679 398.765 79.1163C398.28 76.7771 398.689 74.3367 398.723 71.9342C398.748 69.6753 398.335 67.1884 396.793 65.6177C395.514 71.398 392.626 76.3085 388.826 80.7165C388.096 81.5652 387.428 82.4139 386.816 83.2752Z" fill="#80BAC8"/>
<path d="M375.129 281.245C375.72 286.642 376.455 292.029 377.329 297.383C378.334 303.585 381.027 308.737 384.139 314.154C385.309 316.181 386.521 318.173 387.779 320.149C388.948 315.978 390.101 311.806 391.287 307.63C394.18 297.438 396.874 287.385 399.411 277.315C399.749 267.869 399.428 258.58 399.462 249.207C393.373 248.759 387.344 247.581 381.281 246.766C377.869 246.302 374.445 245.964 371.016 245.732C371.485 256.587 373.719 267.194 374.804 278.091C374.901 279.147 375.015 280.19 375.129 281.245Z" fill="#EE6E56"/>
<path d="M377.633 137.848C377.738 147.061 377.172 156.27 375.961 165.386C378.325 160.598 380.622 155.789 382.78 150.904V150.895C388.184 138.752 392.829 126.263 395.902 113.237C397.148 107.946 398.136 102.588 399.939 97.4835C400.657 95.4357 401.497 93.3668 402.548 91.4541C400.826 92.3197 399.377 93.8735 398.199 95.4906C393.644 101.735 391.659 109.509 389.383 116.961C387.095 124.413 384.211 132.068 378.469 137.152C378.228 137.367 377.983 137.582 377.734 137.768C377.692 137.806 377.666 137.823 377.633 137.848Z" fill="#73AEBB"/>
<path d="M391.283 307.63C390.097 311.802 388.944 315.973 387.775 320.149C390.371 324.266 393.137 328.281 395.915 332.271C401.391 340.125 409.541 355.599 415.042 366.721C419.953 366.4 424.779 364.665 428.824 361.772C423.567 344.626 418.23 326.58 409.785 314.491C406.294 309.496 402.05 304.86 400.146 299.025C398.449 293.806 398.786 288.153 399.141 282.668C399.264 280.882 399.348 279.096 399.411 277.318C396.869 287.384 394.176 297.433 391.283 307.63Z" fill="#EE6E56"/>
<path d="M398.343 423.587C397.667 424.714 397.296 425.989 397.414 427.214C406.614 429.743 416.418 429.886 425.678 427.606C428.933 426.804 432.151 425.702 435.49 425.499C438.628 425.322 441.744 425.939 444.872 426.205C447.245 426.42 449.707 426.411 451.974 425.732C452.008 424.203 451.932 422.683 451.75 421.176C448.018 421.632 444.112 420.809 440.291 420.623C432.176 420.213 424.213 422.721 416.186 424.081C410.288 425.081 403.963 425.373 398.343 423.587Z" fill="#4F4F79"/>
<path d="M399.462 249.207C399.428 258.58 399.749 267.869 399.411 277.315C401.759 268.051 403.959 258.775 406.065 249.367C404.461 249.422 402.852 249.401 401.256 249.321C400.657 249.296 400.057 249.262 399.462 249.207Z" fill="#DD5744"/>
<path d="M400.404 421.31C399.589 421.902 398.871 422.695 398.343 423.59C403.963 425.376 410.288 425.081 416.186 424.08C424.217 422.721 432.176 420.213 440.291 420.622C444.112 420.808 448.018 421.631 451.751 421.175C451.438 418.566 450.813 415.986 449.981 413.474C446.257 412.984 442.394 413.275 438.687 413.976C434.494 414.77 430.103 416.058 426.092 414.584C423.71 413.71 421.76 411.958 419.602 410.615C419.142 410.328 418.665 410.062 418.162 409.83C417.998 410.079 417.833 410.32 417.66 410.565C415.295 413.862 412.019 416.451 408.329 417.962C405.673 419.047 402.751 419.613 400.404 421.31Z" fill="#242450"/>
<path d="M415.874 82.959C415.988 83.377 416.072 83.8077 416.114 84.2468C416.165 84.745 416.165 85.2644 416.114 85.7668C416.879 86.417 417.525 87.215 418.002 88.0891C419.771 91.3318 419.724 95.2796 419.467 98.9994C419.18 103.129 418.677 107.229 417.993 111.295C419.475 112.582 420.763 114.208 422.038 115.736C424.289 118.418 427.122 121.124 430.572 121.107C434.046 121.082 436.989 118.139 438.218 114.799C436.348 110.699 434.469 106.587 432.598 102.487C430.466 97.8341 428.292 93.0967 424.994 89.2375C422.553 86.3706 419.382 84.0019 415.874 82.959Z" fill="#060634"/>
<path d="M416.959 143.7C417.643 157.165 418.031 170.655 418.145 184.145C419.29 184.314 420.459 184.331 421.595 184.179C425.864 183.609 429.693 180.97 432.526 177.622C435.36 174.274 437.306 170.225 439.008 166.133C441.769 159.53 443.973 151.866 441.131 145.296C440.333 143.447 439.13 141.623 439.278 139.605C439.434 137.468 441.055 135.8 441.98 133.888C444.345 129.028 442.094 123.239 439.839 118.316C439.303 117.138 438.767 115.964 438.226 114.786C436.998 118.126 434.051 121.069 430.58 121.094C427.13 121.111 424.302 118.405 422.047 115.724C420.772 114.195 419.484 112.57 418.002 111.282V111.29C417.369 115.006 416.57 118.705 415.637 122.361C416.161 129.467 416.604 136.582 416.959 143.7Z" fill="#242450"/>
<path d="M415.042 366.721C416.228 369.123 417.292 371.331 418.188 373.206C422.456 382.221 425.817 391.691 428.22 401.411C428.912 401.474 429.588 401.698 430.204 402.099C431.251 402.787 431.961 403.885 432.822 404.806C433.679 405.735 434.849 406.537 436.077 406.351C437.724 406.102 438.606 404.286 439.717 403.003C440.861 401.664 442.478 400.795 444.188 400.545C442.698 397.704 441.165 394.892 439.747 392.004C435.588 383.542 432.227 372.847 428.832 361.768C424.779 364.665 419.957 366.4 415.042 366.721Z" fill="#FFAC3D"/>
<path d="M428.22 401.411C426.244 401.195 424.086 402.171 422.587 403.628C420.767 405.388 419.589 407.71 418.171 409.826C418.673 410.058 419.15 410.328 419.611 410.611C421.768 411.95 423.715 413.702 426.1 414.58C430.111 416.054 434.502 414.766 438.695 413.972C442.402 413.275 446.266 412.98 449.99 413.47C449.445 411.798 448.803 410.155 448.111 408.546C446.924 405.815 445.573 403.167 444.188 400.541C442.483 400.79 440.861 401.66 439.717 402.998C438.606 404.286 437.724 406.098 436.077 406.347C434.849 406.532 433.679 405.73 432.822 404.801C431.965 403.881 431.255 402.783 430.204 402.095C429.588 401.698 428.912 401.474 428.22 401.411Z" fill="#242450"/>
<path d="M422.722 138.073C425.171 140.146 427.928 142.02 429.525 144.832C431.121 147.64 431.057 151.799 428.401 153.594C419.163 152.209 411.06 146.255 405.094 138.934C398.833 131.249 390.992 119.811 391.051 109.585C391.085 103.809 392.639 98.0539 395.451 93.0421C396.582 91.0238 405.479 78.5597 406.142 86.4173C406.264 87.8698 405.673 89.2716 405.187 90.6396C403.57 95.1659 402.966 100.064 403.397 104.86C403.777 109.091 405.816 112.701 407.543 116.535C411.179 124.616 415.95 132.339 422.722 138.073Z" fill="#060634"/>
<path d="M373.508 192.028C375.188 193.029 376.826 194.11 378.401 195.288C388.336 181.726 397.511 167.531 404.736 152.259C409.266 142.691 413.016 132.676 415.633 122.382C415.633 122.373 415.633 122.373 415.633 122.365C416.571 118.713 417.364 115.014 417.998 111.294V111.286C418.682 107.22 419.184 103.12 419.471 98.9904C419.733 95.2748 419.775 91.3228 418.006 88.0801C417.529 87.2061 416.879 86.408 416.119 85.7578C415.971 87.1174 415.426 88.4474 414.405 89.3045C412.864 90.6176 410.584 90.6261 408.747 89.8323C407.438 89.2707 406.357 88.3925 405.352 87.3918C404.263 88.5994 403.342 89.9759 402.544 91.4494C401.497 93.3621 400.657 95.4353 399.935 97.4788C398.132 102.579 397.144 107.942 395.898 113.232C392.825 126.258 388.18 138.747 382.776 150.891V150.899C380.618 155.784 378.325 160.593 375.957 165.381C373.246 170.883 370.438 176.334 367.613 181.751C366.583 183.736 365.422 185.627 364.236 187.506C367.453 188.739 370.556 190.251 373.508 192.028Z" fill="#80BAC8"/>
<path d="M393.356 73.1888C393.424 73.2184 393.496 73.248 393.568 73.2817C395.97 74.3289 397.321 75.3295 398.166 78.0613C398.926 80.5272 397.131 82.2625 396.147 84.285C395.472 85.6741 395.083 87.439 395.957 88.7099C397.646 91.1546 402.253 89.5797 403.76 92.1426C404.9 94.0806 403.017 95.3009 403.161 97.0405C403.283 98.4971 405.078 100.005 406.386 100.38C407.792 100.781 408.869 99.4767 410.216 99.6667C412.099 99.9327 412.673 102.297 414.341 103.028C418.58 104.881 417.702 98.2945 420.354 96.9434C421.426 96.3987 422.613 97.1418 423.52 95.8624C424.344 94.6971 423.812 93.0884 423.314 91.7457C422.334 89.1026 422.756 87.6586 425.247 86.8057C427.211 86.1343 428.811 85.2772 429.503 83.1956C430.209 81.0634 428.997 78.9734 429.845 76.896C430.411 75.5111 431.851 74.5569 431.741 72.9144C431.593 70.685 429.153 69.6717 429.584 67.1679C430.04 64.5163 433.367 63.1652 431.416 60.2138C430.812 59.3018 429.432 59.3862 429.09 58.2209C428.714 56.9458 430.213 54.4715 430.407 53.1119C430.669 51.2668 430.483 49.5188 429.094 48.1634C427.819 46.9179 425.995 46.8545 424.69 45.6892C422.972 44.1607 422.507 41.6823 420.717 40.1285C419.07 38.7013 416.972 37.916 415.118 36.8224C411.981 34.9731 409.118 32.7141 406.386 30.2948C404.106 28.2765 401.911 26.0894 399.673 23.8643C399.762 25.0085 399.23 34.2215 399.884 34.7113C398.592 33.7697 396.848 35.2728 396.375 36.8182C395.903 38.3635 395.92 40.1749 394.826 41.3445C392.993 43.3036 388.851 42.5816 388.172 45.1994C387.467 47.9017 391.862 50.1732 390.802 52.753C390.342 53.8677 389.05 54.3322 388.256 55.2273C387.095 56.532 387.175 58.6473 388.087 60.142C388.999 61.6367 390.566 62.5952 392.174 63.2285C396.642 64.9934 393.057 67.3705 392.001 70.1615C391.212 72.2219 391.824 72.5217 393.356 73.1888Z" fill="#FFAC3D"/>
</svg>
