<svg width="74" height="82" viewBox="0 0 74 82" fill="none" xmlns="http://www.w3.org/2000/svg">
<path d="M9.59263 48.5163H12.4841C11.5622 49.4136 10.831 50.4879 10.3342 51.6746C9.83737 52.8613 9.58526 54.1362 9.59293 55.4227C9.60061 56.7092 9.86792 57.9809 10.3788 59.1616C10.8898 60.3423 11.6338 61.4077 12.5663 62.294C10.1484 62.5959 7.93594 63.8065 6.37816 65.6802C4.82037 67.554 4.03404 69.9503 4.1788 72.3827C4.32357 74.8151 5.38858 77.1013 7.15761 78.777C8.92664 80.4527 11.2671 81.3924 13.7038 81.4053H67.1484C67.4194 81.4052 67.6843 81.3248 67.9096 81.1743C68.1349 81.0237 68.3105 80.8097 68.4142 80.5593C68.5179 80.3089 68.545 80.0334 68.4922 79.7677C68.4393 79.5019 68.3089 79.2577 68.1173 79.0661C66.2647 77.2072 65.1947 74.7092 65.1272 72.0857C65.0596 69.4622 65.9997 66.9125 67.7541 64.9608H72.6299C72.9009 64.9607 73.1658 64.8803 73.3911 64.7297C73.6164 64.5792 73.792 64.3652 73.8957 64.1148C73.9994 63.8644 74.0265 63.5889 73.9737 63.3232C73.9208 63.0574 73.7904 62.8132 73.5988 62.6216C71.6799 60.6953 70.6026 58.0871 70.6026 55.3682C70.6026 52.6492 71.6799 50.0411 73.5988 48.1148C73.7904 47.9231 73.9208 47.679 73.9737 47.4132C74.0265 47.1474 73.9994 46.8719 73.8957 46.6215C73.792 46.3712 73.6164 46.1572 73.3911 46.0066C73.1658 45.856 72.9009 45.7756 72.6299 45.7755H63.643C61.8886 43.8238 60.9485 41.2741 61.016 38.6506C61.0836 36.0271 62.1536 33.5291 64.0061 31.6703C64.1977 31.4786 64.3282 31.2344 64.3811 30.9687C64.4339 30.7029 64.4068 30.4274 64.3031 30.177C64.1994 29.9266 64.0238 29.7126 63.7985 29.5621C63.5732 29.4115 63.3083 29.3311 63.0373 29.331H44.7469C45.9551 27.2482 46.5932 24.8838 46.5969 22.4759C46.6006 20.068 45.9697 17.7017 44.7679 15.6151C43.5661 13.5286 41.8358 11.7956 39.7511 10.5906C37.6664 9.38555 35.301 8.7511 32.8931 8.7511C30.4852 8.7511 28.1199 9.38555 26.0352 10.5906C23.9505 11.7956 22.2201 13.5286 21.0183 15.6151C19.8165 17.7017 19.1857 20.068 19.1894 22.4759C19.1931 24.8838 19.8312 27.2482 21.0394 29.331H9.59263C7.04851 29.331 4.60858 30.3417 2.80962 32.1406C1.01065 33.9396 0 36.3795 0 38.9237C0 41.4678 1.01065 43.9077 2.80962 45.7067C4.60858 47.5056 7.04851 48.5163 9.59263 48.5163ZM12.3334 55.3682C12.3356 53.5516 13.0581 51.8101 14.3427 50.5256C15.6272 49.2411 17.3687 48.5185 19.1853 48.5163H21.926V62.22H19.1853C17.3687 62.2179 15.6272 61.4953 14.3427 60.2108C13.0581 58.9263 12.3356 57.1847 12.3334 55.3682ZM13.7038 78.6646C11.8865 78.6646 10.1437 77.9427 8.85875 76.6577C7.57377 75.3727 6.85188 73.6299 6.85188 71.8127C6.85188 69.9954 7.57377 68.2526 8.85875 66.9677C10.1437 65.6827 11.8865 64.9608 13.7038 64.9608H13.8545C12.9394 65.8519 12.212 66.9173 11.7154 68.0942C11.2188 69.271 10.9629 70.5354 10.9629 71.8127C10.9629 73.09 11.2188 74.3544 11.7154 75.5312C12.212 76.708 12.9394 77.7734 13.8545 78.6646H13.7038ZM20.5556 78.6646C18.7384 78.6646 16.9956 77.9427 15.7106 76.6577C14.4256 75.3727 13.7038 73.6299 13.7038 71.8127C13.7038 69.9954 14.4256 68.2526 15.7106 66.9677C16.9956 65.6827 18.7384 64.9608 20.5556 64.9608H21.926V71.8127C21.9261 72.0837 22.0065 72.3486 22.1571 72.5739C22.3076 72.7992 22.5216 72.9748 22.772 73.0785C23.0224 73.1822 23.2979 73.2093 23.5637 73.1564C23.8294 73.1036 24.0736 72.9731 24.2652 72.7815L27.4075 69.6393L30.5498 72.7815C30.7414 72.9731 30.9856 73.1036 31.2514 73.1564C31.5172 73.2093 31.7927 73.1822 32.043 73.0785C32.2934 72.9748 32.5074 72.7992 32.658 72.5739C32.8086 72.3486 32.889 72.0837 32.889 71.8127V64.9608H35.7805C34.8654 65.8519 34.1381 66.9173 33.6414 68.0942C33.1448 69.271 32.8889 70.5354 32.8889 71.8127C32.8889 73.09 33.1448 74.3544 33.6414 75.5312C34.1381 76.708 34.8654 77.7734 35.7805 78.6646H20.5556ZM24.6668 68.5046V48.5163H30.1483V68.5046L28.3764 66.7327C28.1194 66.4758 27.7709 66.3315 27.4075 66.3315C27.0441 66.3315 26.6956 66.4758 26.4387 66.7327L24.6668 68.5046ZM41.1113 55.3682C41.1104 57.8814 42.0995 60.2938 43.8644 62.083C42.3154 61.7685 40.9229 60.9281 39.9226 59.7044C38.9224 58.4806 38.376 56.9487 38.376 55.3682C38.376 53.7876 38.9224 52.2557 39.9226 51.0319C40.9229 49.8082 42.3154 48.9678 43.8644 48.6533C42.0995 50.4425 41.1104 52.855 41.1113 55.3682ZM50.7039 48.5163H53.5954C52.6803 49.4074 51.9529 50.4728 51.4563 51.6496C50.9597 52.8265 50.7038 54.0908 50.7038 55.3682C50.7038 56.6455 50.9597 57.9099 51.4563 59.0867C51.9529 60.2635 52.6803 61.3289 53.5954 62.22H50.7039C48.8867 62.22 47.1439 61.4981 45.8589 60.2132C44.5739 58.9282 43.852 57.1854 43.852 55.3682C43.852 53.5509 44.5739 51.8081 45.8589 50.5232C47.1439 49.2382 48.8867 48.5163 50.7039 48.5163ZM35.6298 55.3682C35.6296 56.6455 35.8854 57.9099 36.382 59.0868C36.8786 60.2636 37.606 61.329 38.5213 62.22H32.889V48.5163H38.5213C37.606 49.4073 36.8786 50.4727 36.382 51.6496C35.8854 52.8264 35.6296 54.0908 35.6298 55.3682ZM42.4816 78.6646C40.6644 78.6646 38.9216 77.9427 37.6366 76.6577C36.3517 75.3727 35.6298 73.6299 35.6298 71.8127C35.6298 69.9954 36.3517 68.2526 37.6366 66.9677C38.9216 65.6827 40.6644 64.9608 42.4816 64.9608H48.1139C47.1988 65.8519 46.4714 66.9173 45.9748 68.0942C45.4782 69.271 45.2223 70.5354 45.2223 71.8127C45.2223 73.09 45.4782 74.3544 45.9748 75.5312C46.4714 76.708 47.1988 77.7734 48.1139 78.6646H42.4816ZM64.3227 78.6646H54.815C52.9978 78.6646 51.255 77.9427 49.97 76.6577C48.685 75.3727 47.9632 73.6299 47.9632 71.8127C47.9632 69.9954 48.685 68.2526 49.97 66.9677C51.255 65.6827 52.9978 64.9608 54.815 64.9608H64.3227C63.0515 67.0202 62.3783 69.3926 62.3783 71.8127C62.3783 74.2328 63.0515 76.6052 64.3227 78.6646ZM63.0373 48.5163H69.8042C68.533 50.5756 67.8598 52.948 67.8598 55.3682C67.8598 57.7883 68.533 60.1607 69.8042 62.22H60.2965C58.4793 62.22 56.7365 61.4981 55.4515 60.2132C54.1665 58.9282 53.4447 57.1854 53.4447 55.3682C53.4447 53.5509 54.1665 51.8081 55.4515 50.5232C56.7365 49.2382 58.4793 48.5163 60.2965 48.5163H63.0373ZM50.7039 32.0718H60.2116C58.9404 34.1311 58.2671 36.5035 58.2671 38.9237C58.2671 41.3438 58.9404 43.7162 60.2116 45.7755H50.7039C48.8867 45.7755 47.1439 45.0536 45.8589 43.7687C44.5739 42.4837 43.852 40.7409 43.852 38.9237C43.852 37.1064 44.5739 35.3636 45.8589 34.0786C47.1439 32.7937 48.8867 32.0718 50.7039 32.0718ZM41.1113 38.9237C41.1111 40.201 41.3669 41.4654 41.8635 42.6423C42.3601 43.8191 43.0875 44.8845 44.0028 45.7755H39.7409C37.9237 45.7755 36.1809 45.0536 34.8959 43.7687C33.6109 42.4837 32.889 40.7409 32.889 38.9237C32.889 37.1064 33.6109 35.3636 34.8959 34.0786C36.1809 32.7937 37.9237 32.0718 39.7409 32.0718H44.0028C43.0875 32.9628 42.3601 34.0282 41.8635 35.205C41.3669 36.3819 41.1111 37.6463 41.1113 38.9237ZM32.889 11.5161C34.9553 11.5139 36.9801 12.0963 38.7294 13.196C40.4788 14.2958 41.8812 15.8681 42.7748 17.7312C43.6684 19.5943 44.0166 21.6722 43.7792 23.7248C43.5418 25.7775 42.7285 27.721 41.4333 29.331H34.2594V27.9606C34.2594 27.5972 34.4038 27.2486 34.6608 26.9916C34.9178 26.7346 35.2663 26.5903 35.6298 26.5903C36.7201 26.5903 37.7658 26.1571 38.5368 25.3861C39.3078 24.6152 39.7409 23.5695 39.7409 22.4791V21.2554C39.7536 20.2644 39.4173 19.3005 38.791 18.5324C38.1647 17.7643 37.2882 17.2409 36.315 17.0538C35.7241 16.9546 35.1187 16.9857 34.5411 17.1451C33.9635 17.3044 33.4277 17.588 32.9712 17.9761L32.889 18.046C32.2976 17.517 31.5657 17.1704 30.7817 17.0482C29.9976 16.9259 29.195 17.0332 28.4706 17.357C27.7462 17.6808 27.1309 18.2074 26.6991 18.8731C26.2673 19.5388 26.0374 20.3153 26.0371 21.1088H28.7779C28.7779 20.7453 28.9223 20.3968 29.1793 20.1398C29.4363 19.8828 29.7848 19.7384 30.1483 19.7384C30.5117 19.7384 30.8603 19.8828 31.1173 20.1398C31.3743 20.3968 31.5186 20.7453 31.5186 21.1088C31.5186 21.4722 31.663 21.8208 31.92 22.0778C32.177 22.3348 32.5256 22.4791 32.889 22.4791C33.2525 22.4791 33.601 22.3348 33.858 22.0778C34.115 21.8208 34.2594 21.4722 34.2594 21.1088C34.2591 20.9083 34.3028 20.7103 34.3874 20.5286C34.4719 20.3468 34.5953 20.1859 34.7489 20.0571C34.9024 19.9282 35.0823 19.8346 35.276 19.7829C35.4696 19.7311 35.6722 19.7225 35.8696 19.7576C36.2015 19.8393 36.4951 20.0328 36.701 20.3056C36.9069 20.5784 37.0126 20.9138 37.0001 21.2554V22.4791C37.0001 22.8426 36.8558 23.1911 36.5988 23.4481C36.3418 23.7051 35.9932 23.8495 35.6298 23.8495C34.5394 23.8495 33.4937 24.2826 32.7228 25.0536C31.9518 25.8246 31.5186 26.8703 31.5186 27.9606V29.331H24.3447C23.0495 27.721 22.2362 25.7775 21.9988 23.7248C21.7615 21.6722 22.1097 19.5943 23.0032 17.7312C23.8968 15.8681 25.2993 14.2958 27.0486 13.196C28.7979 12.0963 30.8227 11.5139 32.889 11.5161ZM17.8149 32.0718H33.0398C32.1246 32.9629 31.3973 34.0283 30.9007 35.2051C30.404 36.3819 30.1482 37.6463 30.1482 38.9237C30.1482 40.201 30.404 41.4654 30.9007 42.6422C31.3973 43.819 32.1246 44.8844 33.0398 45.7755H17.8149C15.9977 45.7755 14.2549 45.0536 12.9699 43.7687C11.6849 42.4837 10.963 40.7409 10.963 38.9237C10.963 37.1064 11.6849 35.3636 12.9699 34.0786C14.2549 32.7937 15.9977 32.0718 17.8149 32.0718ZM9.59263 32.0718H11.1137C10.1986 32.9629 9.47129 34.0283 8.97466 35.2051C8.47802 36.3819 8.22215 37.6463 8.22215 38.9237C8.22215 40.201 8.47802 41.4654 8.97466 42.6422C9.47129 43.819 10.1986 44.8844 11.1137 45.7755H9.59263C7.7754 45.7755 6.0326 45.0536 4.74762 43.7687C3.46264 42.4837 2.74075 40.7409 2.74075 38.9237C2.74075 37.1064 3.46264 35.3636 4.74762 34.0786C6.0326 32.7937 7.7754 32.0718 9.59263 32.0718Z" fill="#FCAA67"/>
<path d="M25.2397 0.431522L22.7076 1.48041L25.3298 7.81067L27.862 6.76179L25.2397 0.431522Z" fill="#FCAA67"/>
<path d="M11.8904 12.2979L10.8416 14.83L17.1718 17.4521L18.2207 14.92L11.8904 12.2979Z" fill="#FCAA67"/>
<path d="M53.8873 12.2978L47.5574 14.9208L48.6066 17.4527L54.9365 14.8298L53.8873 12.2978Z" fill="#FCAA67"/>
<path d="M40.5392 0.431404L37.9163 6.76135L40.4482 7.81055L43.0712 1.4806L40.5392 0.431404Z" fill="#FCAA67"/>
</svg>
