<svg width="405" height="239" viewBox="0 0 405 239" fill="none" xmlns="http://www.w3.org/2000/svg">
<g clip-path="url(#clip0)">
<path d="M388.694 238.431L14.3278 238.038V77.7449H388.363C388.337 77.8469 388.31 77.9575 388.282 78.0532" fill="#F2CCAA"/>
<path d="M110.686 77.7449H67.4357V233.926H110.686V77.7449Z" fill="#F9DDBF"/>
<path d="M395.756 238.431H10.2114V215.981H395.686L395.756 238.431Z" fill="#DDAF8A"/>
<path d="M379.061 233.926H335.798V77.7449H379.061V103.529" fill="#F9DDBF"/>
<path d="M268.979 55.6094H165.631V236.224H268.979V55.6094Z" fill="#F9DDBF"/>
<path d="M149.837 158.549H135.365V163.686H149.837V158.549Z" fill="#FFF2E6"/>
<path d="M146.591 163.684H138.612V238.038H146.591V163.684Z" fill="#FFF2E6"/>
<path d="M138.612 167.041C139.027 166.364 139.617 165.812 140.319 165.443C141.021 165.074 141.81 164.902 142.601 164.945C145.662 165.056 146.591 167.041 146.591 167.041V163.684H138.612V167.041Z" fill="#DDAF8A"/>
<path d="M149.837 158.541H135.365V159.436H149.837V158.541Z" fill="#DDAF8A"/>
<path d="M190.492 158.549H176.02V163.686H190.492V158.549Z" fill="#FFF2E6"/>
<path d="M187.245 163.684H179.267V238.038H187.245V163.684Z" fill="#FFF2E6"/>
<path d="M179.267 167.041C179.681 166.364 180.271 165.811 180.973 165.442C181.674 165.073 182.463 164.901 183.254 164.945C186.314 165.056 187.243 167.041 187.243 167.041V163.684H179.267V167.041Z" fill="#DDAF8A"/>
<path d="M190.492 158.541H176.02V159.436H190.492V158.541Z" fill="#DDAF8A"/>
<path d="M259.83 158.549H245.358V163.686H259.83V158.549Z" fill="#FFF2E6"/>
<path d="M256.585 163.684H248.607V238.038H256.585V163.684Z" fill="#FFF2E6"/>
<path d="M248.607 167.041C249.021 166.364 249.611 165.811 250.313 165.442C251.014 165.073 251.803 164.901 252.594 164.945C255.654 165.056 256.583 167.041 256.583 167.041V163.684H248.607V167.041Z" fill="#DDAF8A"/>
<path d="M259.83 158.541H245.358V159.436H259.83V158.541Z" fill="#DDAF8A"/>
<path d="M304.697 158.549H290.225V163.686H304.697V158.549Z" fill="#FFF2E6"/>
<path d="M301.452 163.684H293.474V238.038H301.452V163.684Z" fill="#FFF2E6"/>
<path d="M293.474 167.041C293.888 166.364 294.477 165.811 295.179 165.442C295.881 165.073 296.67 164.901 297.461 164.945C300.521 165.056 301.45 167.041 301.45 167.041V163.684H293.474V167.041Z" fill="#DDAF8A"/>
<path d="M304.697 158.541H290.225V159.436H304.697V158.541Z" fill="#DDAF8A"/>
<path d="M217.589 179.343H219.165C223.341 179.343 227.345 181.006 230.298 183.967C233.251 186.927 234.909 190.942 234.909 195.128V237.728H200.871V196.095C200.871 193.895 201.304 191.716 202.144 189.683C202.984 187.65 204.216 185.803 205.768 184.247C207.321 182.691 209.164 181.457 211.192 180.616C213.22 179.775 215.394 179.342 217.589 179.343Z" fill="#F2CCAA"/>
<path d="M40.6548 103.161H42.1817C44.1936 103.161 46.1232 103.962 47.5458 105.389C48.9684 106.815 49.7677 108.749 49.7677 110.766V130.034H32.6023V111.234C32.6023 109.091 33.4514 107.036 34.9627 105.521C36.474 104.006 38.5238 103.155 40.6612 103.155L40.6548 103.161Z" fill="#DDAF8A"/>
<path d="M42.1817 102.547H40.6548C38.3576 102.549 36.1552 103.464 34.5306 105.093C32.9061 106.721 31.9922 108.929 31.9894 111.232V130.648H50.3805V110.766C50.3783 108.587 49.5138 106.498 47.9767 104.956C46.4396 103.415 44.3555 102.549 42.1817 102.547ZM40.6548 103.775H42.1817C44.0304 103.778 45.8027 104.515 47.1099 105.825C48.4171 107.136 49.1525 108.913 49.1547 110.766V129.419H33.2152V111.232C33.2152 111.162 33.2152 111.092 33.2152 111.019C33.2736 109.079 34.0828 107.239 35.4714 105.887C36.86 104.534 38.719 103.777 40.6548 103.775Z" fill="white"/>
<path d="M49.4878 111.023H32.736V112.184H49.4878V111.023Z" fill="white"/>
<path d="M41.6749 111.604H40.5488V129.936H41.6749V111.604Z" fill="white"/>
<path d="M36.882 96.0745C36.882 96.0745 40.5487 94.8434 46.2281 96.0745L44.2537 100.999C42.4665 100.787 40.6605 100.787 38.8733 100.999L36.882 96.0745Z" fill="#DDAF8A"/>
<path d="M38.1502 101.12L36.0146 96.9398C36.0146 96.9398 33.6818 97.4182 32.8335 98.3304L36.3815 101.56L38.1502 101.12Z" fill="#DDAF8A"/>
<path d="M44.96 101.141L46.9068 97.0079C46.9068 97.0079 48.9364 97.2205 50.0879 98.3984L46.5675 101.56L44.96 101.141Z" fill="#DDAF8A"/>
<path d="M87.8945 103.161H89.4215C91.4334 103.161 93.3629 103.962 94.7855 105.388C96.2082 106.815 97.0074 108.749 97.0074 110.766V130.034H79.842V111.234C79.8437 109.093 80.6926 107.041 82.2024 105.527C83.7122 104.014 85.7594 103.163 87.8945 103.161Z" fill="#DDAF8A"/>
<path d="M89.4237 102.547H87.8946C85.5976 102.549 83.3954 103.465 81.7712 105.093C80.147 106.721 79.2336 108.929 79.2313 111.232V130.648H97.6225V110.766C97.6197 108.587 96.755 106.498 95.218 104.957C93.681 103.416 91.5973 102.549 89.4237 102.547ZM87.8946 103.775H89.4237C91.2723 103.778 93.0446 104.515 94.3519 105.825C95.6591 107.136 96.3944 108.913 96.3967 110.766V129.419H80.4571V111.232C80.4571 111.162 80.4571 111.092 80.4571 111.019C80.515 109.08 81.3237 107.239 82.712 105.887C84.1003 104.535 85.9591 103.777 87.8946 103.775Z" fill="white"/>
<path d="M96.7296 111.023H79.9778V112.184H96.7296V111.023Z" fill="white"/>
<path d="M88.9168 111.604H87.7906V129.936H88.9168V111.604Z" fill="white"/>
<path d="M84.1239 96.0745C84.1239 96.0745 87.7907 94.8434 93.4701 96.0745L91.4956 100.999C89.7084 100.787 87.9025 100.787 86.1153 100.999L84.1239 96.0745Z" fill="#DDAF8A"/>
<path d="M85.3921 101.12L83.2544 96.9398C83.2544 96.9398 80.9215 97.4182 80.0732 98.3304L83.6234 101.56L85.3921 101.12Z" fill="#DDAF8A"/>
<path d="M92.1912 101.141L94.138 97.0079C94.138 97.0079 96.1676 97.2205 97.3191 98.3984L93.7987 101.56L92.1912 101.141Z" fill="#DDAF8A"/>
<path d="M40.6548 171.479H42.1817C44.1936 171.479 46.1232 172.28 47.5458 173.706C48.9684 175.132 49.7677 177.067 49.7677 179.084V198.351H32.6023V179.552C32.604 177.411 33.4529 175.359 34.9627 173.845C36.4724 172.331 38.5197 171.48 40.6548 171.479Z" fill="#DDAF8A"/>
<path d="M42.1817 170.864H40.6548C38.3576 170.866 36.1552 171.782 34.5306 173.41C32.9061 175.039 31.9922 177.247 31.9894 179.55V198.966H50.3805V179.084C50.3783 176.905 49.5138 174.815 47.9767 173.274C46.4396 171.733 44.3555 170.866 42.1817 170.864ZM40.6548 172.093H42.1817C44.0304 172.095 45.8027 172.833 47.1099 174.143C48.4171 175.454 49.1525 177.231 49.1547 179.084V197.739H33.2152V179.55C33.2152 179.479 33.2152 179.409 33.2152 179.337C33.2736 177.397 34.0828 175.556 35.4714 174.204C36.86 172.852 38.719 172.095 40.6548 172.093Z" fill="white"/>
<path d="M49.4878 179.343H32.736V180.504H49.4878V179.343Z" fill="white"/>
<path d="M41.6749 179.922H40.5488V198.253H41.6749V179.922Z" fill="white"/>
<path d="M36.882 164.392C36.882 164.392 40.5487 163.161 46.2281 164.392L44.2537 169.321C42.4664 169.11 40.6606 169.11 38.8733 169.321L36.882 164.392Z" fill="#DDAF8A"/>
<path d="M38.1502 169.438L36.0146 165.26C36.0146 165.26 33.6818 165.736 32.8335 166.648L36.3879 169.886L38.1502 169.438Z" fill="#DDAF8A"/>
<path d="M44.96 169.461L46.9068 165.328C46.9068 165.328 48.9364 165.54 50.0879 166.718L46.5526 169.886L44.96 169.461Z" fill="#DDAF8A"/>
<path d="M87.8945 171.479H89.4215C91.4334 171.479 93.3629 172.28 94.7855 173.706C96.2082 175.132 97.0074 177.067 97.0074 179.084V198.351H79.842V179.552C79.8437 177.411 80.6926 175.359 82.2024 173.845C83.7122 172.331 85.7594 171.48 87.8945 171.479Z" fill="#DDAF8A"/>
<path d="M89.4237 170.864H87.8946C85.5976 170.866 83.3954 171.782 81.7712 173.411C80.147 175.039 79.2336 177.247 79.2313 179.55V198.966H97.6225V179.084C97.6197 176.905 96.755 174.816 95.218 173.275C93.681 171.734 91.5973 170.867 89.4237 170.864ZM87.8946 172.093H89.4237C91.2723 172.095 93.0446 172.833 94.3519 174.143C95.6591 175.454 96.3944 177.231 96.3967 179.084V197.739H80.4571V179.55C80.4571 179.479 80.4571 179.409 80.4571 179.337C80.515 177.397 81.3237 175.557 82.712 174.204C84.1003 172.852 85.9591 172.095 87.8946 172.093Z" fill="white"/>
<path d="M96.7296 179.343H79.9778V180.504H96.7296V179.343Z" fill="white"/>
<path d="M88.9168 179.922H87.7906V198.253H88.9168V179.922Z" fill="white"/>
<path d="M84.1239 164.392C84.1239 164.392 87.7907 163.161 93.4701 164.392L91.4956 169.321C89.7084 169.11 87.9026 169.11 86.1153 169.321L84.1239 164.392Z" fill="#DDAF8A"/>
<path d="M85.3921 169.438L83.2544 165.26C83.2544 165.26 80.9215 165.736 80.0732 166.648L83.6297 169.886L85.3921 169.438Z" fill="#DDAF8A"/>
<path d="M92.1912 169.461L94.138 165.328C94.138 165.328 96.1676 165.54 97.3191 166.718L93.7923 169.886L92.1912 169.461Z" fill="#DDAF8A"/>
<path d="M138.082 103.161H139.609C141.621 103.161 143.551 103.962 144.973 105.389C146.396 106.815 147.195 108.749 147.195 110.766V130.034H130.03V111.234C130.03 109.091 130.879 107.036 132.39 105.521C133.901 104.006 135.951 103.155 138.089 103.155L138.082 103.161Z" fill="#DDAF8A"/>
<path d="M139.611 102.547H138.082C135.785 102.549 133.584 103.465 131.959 105.093C130.335 106.722 129.422 108.929 129.419 111.232V130.648H147.816V110.766C147.814 108.586 146.948 106.496 145.41 104.955C143.871 103.414 141.786 102.548 139.611 102.547ZM138.082 103.775H139.611C141.46 103.778 143.232 104.515 144.539 105.825C145.847 107.136 146.582 108.913 146.584 110.766V129.419H130.638V111.232C130.638 111.162 130.638 111.092 130.638 111.019C130.696 109.079 131.506 107.237 132.896 105.884C134.285 104.532 136.146 103.776 138.082 103.775Z" fill="white"/>
<path d="M146.917 111.023H130.165V112.184H146.917V111.023Z" fill="white"/>
<path d="M139.104 111.604H137.978V129.936H139.104V111.604Z" fill="white"/>
<path d="M134.312 96.0745C134.312 96.0745 137.978 94.8434 143.658 96.0745L141.683 100.999C139.896 100.787 138.09 100.787 136.303 100.999L134.312 96.0745Z" fill="#DDAF8A"/>
<path d="M135.58 101.12L133.442 96.9398C133.442 96.9398 131.109 97.4182 130.261 98.3304L133.819 101.56L135.58 101.12Z" fill="#DDAF8A"/>
<path d="M142.379 101.141L144.326 97.0079C144.326 97.0079 146.355 97.2205 147.507 98.3984L143.986 101.56L142.379 101.141Z" fill="#DDAF8A"/>
<path d="M217.186 86.0603H219.201C221.854 86.0603 224.397 87.1167 226.273 88.9971C228.149 90.8775 229.202 93.4279 229.202 96.0872V121.491H206.561V96.7038C206.561 95.3054 206.836 93.9206 207.37 92.6288C207.904 91.3369 208.687 90.1631 209.674 89.1747C210.661 88.1862 211.832 87.4024 213.121 86.868C214.41 86.3336 215.791 86.0592 217.186 86.0603Z" fill="#DDAF8A"/>
<path d="M219.201 85.2502H217.186C214.158 85.2536 211.254 86.4611 209.112 88.6079C206.971 90.7547 205.766 93.6654 205.762 96.7017V122.301H230.01V96.0872C230.009 93.2136 228.869 90.4581 226.843 88.4262C224.816 86.3942 222.067 85.2519 219.201 85.2502ZM217.186 86.8703H219.201C221.64 86.8703 223.98 87.8411 225.705 89.5693C227.431 91.2975 228.402 93.6418 228.405 96.0872V120.681H207.388V96.7017C207.388 96.6103 207.388 96.5189 207.388 96.4274C207.462 93.8702 208.526 91.4423 210.355 89.6582C212.184 87.8742 214.634 86.8742 217.186 86.8703Z" fill="white"/>
<path d="M228.833 96.4274H206.746V97.9583H228.833V96.4274Z" fill="white"/>
<path d="M218.533 97.1928H217.048V121.361H218.533V97.1928Z" fill="white"/>
<path d="M238.489 95.3984H239.984C241.953 95.3984 243.841 96.1824 245.233 97.578C246.625 98.9735 247.407 100.866 247.407 102.84V121.697H230.611V103.299C230.611 101.204 231.441 99.1948 232.918 97.7132C234.396 96.2316 236.399 95.3989 238.489 95.3984Z" fill="#DDAF8A"/>
<path d="M239.984 94.7967H238.5C236.25 94.7967 234.092 95.6927 232.501 97.2876C230.91 98.8825 230.017 101.046 230.017 103.301V122.303H248.016V102.842C248.013 100.708 247.166 98.6618 245.66 97.1533C244.155 95.6448 242.113 94.7972 239.984 94.7967ZM238.5 96.0001H239.984C241.794 96.0018 243.529 96.7231 244.808 98.0059C246.088 99.2887 246.807 101.028 246.809 102.842V121.097H231.211V103.299C231.211 103.231 231.211 103.163 231.211 103.087C231.268 101.189 232.06 99.388 233.418 98.0654C234.777 96.7427 236.595 96.002 238.489 96.0001H238.5Z" fill="white"/>
<path d="M247.136 103.095H230.74V104.23H247.136V103.095Z" fill="white"/>
<path d="M239.49 103.663H238.387V121.603H239.49V103.663Z" fill="white"/>
<path d="M196.244 95.3984H197.739C199.708 95.3984 201.595 96.1824 202.987 97.578C204.38 98.9735 205.162 100.866 205.162 102.84V121.697H188.363V103.299C188.363 101.204 189.193 99.1942 190.671 97.7125C192.149 96.2308 194.154 95.3984 196.244 95.3984Z" fill="#DDAF8A"/>
<path d="M197.739 94.7967H196.254C194.005 94.7967 191.847 95.6927 190.256 97.2876C188.665 98.8825 187.771 101.046 187.771 103.301V122.303H205.77V102.842C205.768 100.708 204.922 98.6613 203.416 97.1527C201.91 95.6441 199.868 94.7967 197.739 94.7967ZM196.254 96.0001H197.739C199.548 96.0023 201.283 96.7239 202.562 98.0065C203.841 99.2892 204.561 101.028 204.563 102.842V121.097H188.959V103.299C188.959 103.231 188.959 103.163 188.959 103.087C189.016 101.188 189.809 99.386 191.169 98.0631C192.529 96.7403 194.349 96.0003 196.244 96.0001H196.254Z" fill="white"/>
<path d="M204.89 103.095H188.495V104.23H204.89V103.095Z" fill="white"/>
<path d="M197.243 103.663H196.14V121.603H197.243V103.663Z" fill="white"/>
<path d="M302.014 103.161H303.541C305.553 103.161 307.483 103.962 308.905 105.389C310.328 106.815 311.127 108.749 311.127 110.766V130.034H293.962V111.234C293.962 109.091 294.811 107.036 296.322 105.521C297.833 104.006 299.883 103.155 302.021 103.155L302.014 103.161Z" fill="#DDAF8A"/>
<path d="M303.543 102.547H302.014C299.717 102.549 297.515 103.465 295.891 105.093C294.267 106.722 293.354 108.929 293.351 111.232V130.648H311.751V110.766C311.748 108.585 310.883 106.495 309.344 104.953C307.805 103.412 305.719 102.547 303.543 102.547ZM302.014 103.775H303.543C305.392 103.778 307.164 104.515 308.471 105.825C309.779 107.136 310.514 108.913 310.516 110.766V129.419H294.572V111.232C294.572 111.162 294.572 111.092 294.572 111.019C294.63 109.079 295.44 107.237 296.829 105.885C298.218 104.533 300.078 103.776 302.014 103.775Z" fill="white"/>
<path d="M310.849 111.023H294.097V112.184H310.849V111.023Z" fill="white"/>
<path d="M303.036 111.604H301.91V129.936H303.036V111.604Z" fill="white"/>
<path d="M298.243 96.0745C298.243 96.0745 301.91 94.8434 307.59 96.0745L305.615 100.999C303.828 100.787 302.022 100.787 300.235 100.999L298.243 96.0745Z" fill="#DDAF8A"/>
<path d="M299.512 101.12L297.374 96.9398C297.374 96.9398 295.041 97.4182 294.193 98.3304L297.754 101.56L299.512 101.12Z" fill="#DDAF8A"/>
<path d="M306.313 101.141L308.26 97.0079C308.26 97.0079 310.287 97.2205 311.441 98.3984L307.923 101.56L306.313 101.141Z" fill="#DDAF8A"/>
<path d="M357.226 103.161H358.753C360.765 103.161 362.694 103.962 364.117 105.389C365.54 106.815 366.339 108.749 366.339 110.766V130.034H349.173V111.234C349.173 109.091 350.022 107.036 351.534 105.521C353.045 104.006 355.095 103.155 357.232 103.155L357.226 103.161Z" fill="#DDAF8A"/>
<path d="M358.753 102.547H357.226C354.929 102.549 352.726 103.464 351.102 105.093C349.477 106.721 348.563 108.929 348.56 111.232V130.648H366.952V110.766C366.949 108.587 366.085 106.498 364.548 104.956C363.011 103.415 360.927 102.549 358.753 102.547ZM357.226 103.775H358.753C360.601 103.778 362.374 104.515 363.681 105.825C364.988 107.136 365.724 108.913 365.726 110.766V129.419H349.786V111.232C349.786 111.162 349.786 111.092 349.786 111.019C349.845 109.079 350.654 107.239 352.042 105.887C353.431 104.534 355.29 103.777 357.226 103.775Z" fill="white"/>
<path d="M366.059 111.023H349.307V112.184H366.059V111.023Z" fill="white"/>
<path d="M358.246 111.604H357.12V129.936H358.246V111.604Z" fill="white"/>
<path d="M353.453 96.0745C353.453 96.0745 357.12 94.8434 362.799 96.0745L360.825 100.999C359.038 100.787 357.232 100.787 355.444 100.999L353.453 96.0745Z" fill="#DDAF8A"/>
<path d="M354.721 101.12L352.586 96.9398C352.586 96.9398 350.253 97.4182 349.404 98.3304L352.952 101.56L354.721 101.12Z" fill="#DDAF8A"/>
<path d="M361.522 101.141L363.469 97.0079C363.469 97.0079 365.499 97.2205 366.65 98.3984L363.13 101.56L361.522 101.141Z" fill="#DDAF8A"/>
<path d="M357.226 171.479H358.753C360.765 171.479 362.694 172.28 364.117 173.706C365.54 175.132 366.339 177.067 366.339 179.084V198.351H349.173V179.552C349.175 177.411 350.024 175.359 351.534 173.845C353.044 172.331 355.091 171.48 357.226 171.479Z" fill="#DDAF8A"/>
<path d="M358.753 170.864H357.226C354.929 170.866 352.726 171.782 351.102 173.41C349.477 175.039 348.563 177.247 348.56 179.55V198.966H366.952V179.084C366.949 176.905 366.085 174.815 364.548 173.274C363.011 171.733 360.927 170.866 358.753 170.864ZM357.226 172.093H358.753C360.601 172.095 362.374 172.833 363.681 174.143C364.988 175.454 365.724 177.231 365.726 179.084V197.739H349.786V179.55C349.786 179.479 349.786 179.409 349.786 179.337C349.845 177.397 350.654 175.556 352.042 174.204C353.431 172.852 355.29 172.095 357.226 172.093Z" fill="white"/>
<path d="M366.059 179.343H349.307V180.504H366.059V179.343Z" fill="white"/>
<path d="M358.246 179.922H357.12V198.253H358.246V179.922Z" fill="white"/>
<path d="M353.453 164.392C353.453 164.392 357.12 163.161 362.799 164.392L360.825 169.321C359.037 169.11 357.232 169.11 355.444 169.321L353.453 164.392Z" fill="#DDAF8A"/>
<path d="M354.721 169.438L352.586 165.26C352.586 165.26 350.253 165.736 349.404 166.648L352.959 169.886L354.721 169.438Z" fill="#DDAF8A"/>
<path d="M361.522 169.461L363.469 165.328C363.469 165.328 365.499 165.54 366.65 166.718L363.124 169.886L361.522 169.461Z" fill="#DDAF8A"/>
<path d="M165.631 77.7449H0L14.3278 65.2792H165.631V77.7449Z" fill="#ED7D2B"/>
<path d="M388.518 65.2792L405 77.7449H268.979V65.2792H388.518Z" fill="#ED7D2B"/>
<path d="M310.177 152.42H130.123V158.543H310.177V152.42Z" fill="#FFF2E6"/>
<path d="M166.078 49.2501H159.667L217.528 0.431396L275.92 49.2501H166.078Z" fill="#F49540"/>
<path d="M130.123 152.42L220.151 135.092L310.177 152.42H130.123Z" fill="#FFF2E6"/>
<path d="M155.93 152.42L220.151 140.058L284.372 152.42H155.93Z" fill="#F2CCAA"/>
<path d="M268.979 55.6094H166.078V49.2501L217.335 6.85876L268.979 49.2501V55.6094Z" fill="#F9DDBF"/>
<path d="M215.095 20.4896C215.095 19.9362 215.259 19.3952 215.565 18.9351C215.872 18.475 216.308 18.1163 216.818 17.9045C217.328 17.6928 217.889 17.6374 218.431 17.7453C218.972 17.8533 219.469 18.1198 219.86 18.5111C220.25 18.9024 220.516 19.401 220.623 19.9437C220.731 20.4865 220.676 21.0491 220.464 21.5603C220.253 22.0716 219.896 22.5086 219.437 22.8161C218.978 23.1235 218.438 23.2876 217.886 23.2876C217.146 23.2876 216.436 22.9928 215.913 22.4681C215.389 21.9434 215.095 21.2317 215.095 20.4896Z" fill="#DBA579"/>
<path d="M217.886 172.076C219.427 172.076 220.677 170.823 220.677 169.278C220.677 167.733 219.427 166.48 217.886 166.48C216.345 166.48 215.095 167.733 215.095 169.278C215.095 170.823 216.345 172.076 217.886 172.076Z" fill="#DBA579"/>
<path d="M302.394 229.151H132.57V231.781H302.394V229.151Z" fill="#FFF2E6"/>
<path d="M312.247 231.779H122.717V234.407H312.247V231.779Z" fill="#F7E6D7"/>
<path d="M322.518 234.409H112.449V238.038H322.518V234.409Z" fill="#F4DDCB"/>
<path d="M217.356 45.6824H218.883C220.895 45.6824 222.824 46.4837 224.247 47.9099C225.669 49.3362 226.469 51.2706 226.469 53.2877V72.5549H209.303V53.7554C209.305 51.6148 210.154 49.5624 211.664 48.0488C213.173 46.5352 215.221 45.6841 217.356 45.6824Z" fill="#DDAF8A"/>
<path d="M226.021 49.248C225.307 47.9799 224.27 46.9247 223.016 46.1902C221.762 45.4558 220.335 45.0685 218.883 45.068H217.356C215.057 45.0668 212.852 45.9812 211.225 47.61C209.598 49.2387 208.684 51.4485 208.682 53.7533V73.1694H227.073V53.2877C227.078 51.8724 226.716 50.4801 226.021 49.248ZM225.86 71.9405H209.916V53.7533C209.916 53.6832 209.916 53.613 209.916 53.5407C209.974 51.6005 210.782 49.7589 212.17 48.406C213.559 47.0531 215.418 46.2951 217.354 46.2926H218.881C220.731 46.2926 222.506 47.0295 223.815 48.3413C225.124 49.6531 225.86 51.4323 225.86 53.2877V71.9405Z" fill="white"/>
<path d="M226.189 53.5471H209.437V54.7079H226.189V53.5471Z" fill="white"/>
<path d="M218.376 54.1275H217.25V72.4593H218.376V54.1275Z" fill="white"/>
<path d="M213.583 38.5959C213.583 38.5959 217.25 37.3649 222.929 38.5959L220.955 43.5244C219.167 43.3134 217.362 43.3134 215.574 43.5244L213.583 38.5959Z" fill="#DDAF8A"/>
<path d="M214.851 43.6413L212.711 39.4634C212.711 39.4634 210.379 39.9397 209.53 40.8518L213.078 44.0814L214.851 43.6413Z" fill="#DDAF8A"/>
<path d="M221.653 43.6626L223.599 39.5293C223.599 39.5293 225.629 39.7419 226.781 40.9198L223.26 44.0814L221.653 43.6626Z" fill="#DDAF8A"/>
</g>
<defs>
<clipPath id="clip0">
<rect width="405" height="238" fill="white" transform="translate(0 0.431396)"/>
</clipPath>
</defs>
</svg>
