<svg width="364" height="410" viewBox="0 0 364 410" fill="none" xmlns="http://www.w3.org/2000/svg">
<path d="M361.281 325.009C356.403 349.608 343.835 373.466 323.655 388.817C299.721 407.081 268.787 408.282 239.871 408.359C206.92 408.461 133.123 419.317 110.747 367.718C110.21 366.492 109.699 365.215 109.24 363.938C89.3153 309.197 127.963 253 191.287 245.337C207.788 236.933 227.942 171.771 240.97 159.152C260.332 140.454 286.08 137.772 307.971 152.281C309.351 153.175 310.679 154.146 311.982 155.167C315.992 158.284 319.568 161.783 322.787 165.615C337.5 183.061 344.857 206.817 351.473 228.044C361.154 259.131 367.744 292.568 361.281 325.009Z" fill="white"/>
<path d="M260.894 281.175C260.894 281.175 277.472 252.668 300.64 241.761C300.64 241.761 264.138 258.952 248.684 285.62L260.894 281.175Z" fill="#BFCFEF"/>
<path d="M260.894 281.175C260.894 281.175 202.015 293.896 184.696 308.405C184.696 308.405 224.34 292.568 254.865 292.849L260.894 281.175Z" fill="#BFCFEF"/>
<path d="M361.281 325.009C356.403 349.608 343.835 373.466 323.655 388.817C299.721 407.081 268.787 408.282 239.871 408.359C206.92 408.461 133.123 419.317 110.747 367.718C122.344 380.771 184.952 397.63 216.907 397.63C283.858 397.63 315.456 388.945 329.607 359.621C363.325 289.733 345.955 212.437 322.787 165.64C337.5 183.087 344.857 206.843 351.473 228.07C361.154 259.131 367.744 292.568 361.281 325.009Z" fill="#D3DDF8"/>
<path d="M255.274 281.175C255.274 281.175 210.343 266.232 180.38 278.033C180.38 278.033 231.34 275.326 248.684 289.145L255.274 281.175Z" fill="#BFCFEF"/>
<path d="M59.9908 374.845H43.2085C40.2198 387.668 31.254 396.123 15.9532 397.528C6.96171 398.345 7.67681 409.431 7.67681 409.431H57.4365C57.4365 409.431 63.4392 404.22 57.0788 393.032C55.5206 390.273 59.9908 374.845 59.9908 374.845Z" fill="#FBBCBE"/>
<path d="M15.9531 397.503C6.96165 398.32 7.67675 409.406 7.67675 409.406H57.4364C57.4364 409.406 63.4392 404.195 57.0787 393.007C53.7069 394.923 45.1243 396.941 34.4724 390.197C30.3854 393.518 22.1858 396.941 15.9531 397.503Z" fill="#0C1540"/>
<path d="M26.2473 394.795C26.2473 394.795 34.7534 389.737 35.8007 385.292C36.848 380.848 42.11 384.884 42.6465 386.11C43.1573 387.361 36.3882 394.667 26.2473 394.795Z" fill="#0C1540"/>
<path d="M113.633 374.845H96.8506C93.862 387.668 84.8961 396.123 69.5953 397.528C60.6039 398.345 61.319 409.431 61.319 409.431H111.104C111.104 409.431 117.107 404.22 110.747 393.032C109.188 390.273 113.633 374.845 113.633 374.845Z" fill="#FBBCBE"/>
<path d="M69.6207 397.503C60.6293 398.32 61.3445 409.406 61.3445 409.406H111.104C111.104 409.406 117.107 404.195 110.747 393.007C107.375 394.923 98.7919 396.941 88.1401 390.197C84.0275 393.518 75.8535 396.941 69.6207 397.503Z" fill="#0C1540"/>
<path d="M79.9151 394.795C79.9151 394.795 88.4211 389.737 89.4429 385.292C90.4902 380.848 95.7522 384.884 96.2886 386.11C96.7995 387.361 90.056 394.667 79.9151 394.795Z" fill="#0C1540"/>
<path d="M191.849 67.2196C191.849 67.2196 192.078 78.791 193.151 84.5129L195.655 83.1846C195.655 83.1846 194.863 72.6094 195.144 68.0626L191.849 67.2196Z" fill="#6F8FE4"/>
<path d="M207.277 90.567C207.022 93.0703 206.23 97.2339 203.726 98.5111C203.599 98.5622 203.471 98.6388 203.343 98.6899C197.366 101.372 191.593 96.11 191.721 88.4979C191.797 82.9293 195.169 79.1233 200.329 78.5358C200.866 78.4847 201.427 78.5102 201.964 78.6379C203.624 78.9955 205.157 80.145 205.923 81.8309C207.047 84.1299 207.456 88.9321 207.277 90.567Z" fill="#2647C8"/>
<path d="M207.277 90.5674C207.022 93.0708 206.23 97.2344 203.726 98.5116C203.599 98.5627 203.471 98.6393 203.343 98.6904C206.179 91.9979 206.434 84.5902 201.938 78.6129C203.599 78.9705 205.131 80.12 205.898 81.8059C207.047 84.1304 207.456 88.9326 207.277 90.5674Z" fill="#6F8FE4"/>
<path d="M236.729 84.5129L233.434 84.1297C233.459 83.8998 235.988 60.757 226.741 50.4628C223.829 47.2187 220.151 45.6605 215.476 45.6605C215.425 45.6605 215.374 45.6605 215.323 45.6605C208.58 45.7116 203.42 47.6785 199.997 51.5357C194.173 58.0494 195.118 67.9604 195.118 68.0626L191.797 68.4202C191.746 67.9604 190.648 56.9765 197.468 49.3389C201.555 44.7665 207.532 42.4165 215.272 42.3398C220.917 42.3654 225.617 44.2812 229.194 48.2661C239.462 59.6586 236.857 83.4911 236.729 84.5129Z" fill="#6F8FE4"/>
<path d="M203.011 156.189C198.03 168.195 162.09 206.179 155.474 213.433C147.504 222.195 128.423 214.557 131.667 204.212C134.528 195.067 172.767 144.975 178.387 140.352C188.477 131.999 209.244 141.169 203.011 156.189Z" fill="#FBBCBE"/>
<path d="M207.047 236.78C229.04 246.002 212.233 281.661 183.853 290.908C155.474 300.18 123.723 294.382 99.0218 296.17C92.0228 296.681 74.091 285.007 87.2461 270.626C100.427 256.245 177.365 224.34 207.047 236.78Z" fill="#83A5F2"/>
<path d="M95.4202 264.802C69.4165 277.625 47.8319 359.902 38.3551 372.674C38.3551 372.674 49.0324 383.53 61.8299 389.737C61.8299 389.737 115.421 302.581 119.917 292.159C129.317 270.396 103.977 260.562 95.4202 264.802Z" fill="#83A5F2"/>
<path d="M176.292 236.857C176.292 236.857 125.153 261.813 115.089 274.994C106.557 286.182 71.4344 330.628 61.8555 389.737L124.796 285.646L157.722 295.378L201.632 252.694L176.292 236.857Z" fill="#2647C8"/>
<path d="M259.08 236.78C267.561 253.946 261.941 277.931 233.562 287.178C205.182 296.451 173.61 294.382 146.968 296.17C139.943 296.629 119.559 285.416 132.714 271.034C145.895 256.653 244.827 207.915 259.08 236.78Z" fill="#83A5F2"/>
<path d="M185.897 185.13C197.724 171.95 206.587 153.788 209.372 147.223C215.962 131.616 197.392 120.172 187.072 128.499C184.492 130.568 166.024 144.03 155.985 158.514C161.579 171.975 183.317 184.441 185.897 185.13Z" fill="#FF8872"/>
<path d="M232.08 242.349C232.08 242.349 257.037 250.242 243.856 265.108C230.701 279.975 163.341 295.863 163.341 295.863C163.341 295.863 244.98 299.465 258.492 268.378C270.217 241.429 253.435 229.168 253.435 229.168L232.08 242.349Z" fill="#2647C8"/>
<path d="M203.088 123.467C203.088 123.467 192.232 122.522 186.51 128.321C180.788 134.119 177.85 155.116 173.099 184.032C168.322 213.075 162.626 235.912 162.626 235.912C162.626 235.912 201.606 255.197 264.265 242.042C264.265 242.042 276.884 159.842 262.017 130.977C257.292 121.807 235.222 121.781 231.876 121.5C228.529 121.168 203.088 123.467 203.088 123.467Z" fill="#FF8872"/>
<path d="M205.795 110.67C205.795 110.67 207.532 120.785 204.365 122.114C201.172 123.442 196.932 123.902 196.932 123.902C196.932 123.902 214.302 149.037 234.047 121.577C234.047 121.577 228.146 121.654 226.333 119.278C224.519 116.903 223.37 105.127 224.289 97.3359L205.795 110.67Z" fill="#FBBCBE"/>
<path d="M226.333 119.278C224.519 116.903 223.37 105.127 224.289 97.3359L213.74 104.922C215.834 106.787 219.002 112.024 218.899 112.356C221.633 117.516 223.191 124.77 217.827 128.755C213.714 131.82 208.222 131.667 203.164 130.16C209.959 135.218 221.505 138.972 234.047 121.577C234.047 121.603 228.146 121.654 226.333 119.278Z" fill="#DA91A7"/>
<path d="M276.552 139.509C286.003 148.449 308.686 195.552 313.131 204.314C318.47 214.864 308.38 226.793 298.724 221.888C290.499 217.699 255.3 163.801 252.975 156.93C248.786 144.464 264.751 128.321 276.552 139.509Z" fill="#FBBCBE"/>
<path d="M295.071 159.765C284.879 145.282 269.195 132.561 263.397 128.372C249.654 118.435 234.328 133.94 240.126 145.895C241.582 148.884 249.501 165.385 261.353 178.412C275.735 175.96 293.794 162.115 295.071 159.765Z" fill="#FF8872"/>
<path d="M138.794 266.028C112.688 278.672 97.0552 365.7 87.4762 378.421C87.4762 378.421 101.985 385.829 114.221 386.186C114.221 386.186 158.769 306.26 163.341 295.863C172.869 274.151 147.377 261.864 138.794 266.028Z" fill="#83A5F2"/>
<path d="M233.204 102.547C232.208 104.054 229.935 105.076 228.121 104.361C226.18 103.594 227.201 100.529 227.917 99.1752C228.862 97.3361 228.453 77.1053 228.53 77.1053C229.168 76.7987 235.043 81.55 235.197 82.444C235.554 84.6408 239.565 92.917 233.204 102.547Z" fill="#0C1540"/>
<path d="M194.715 70.5066V100.803C194.715 109.004 202.424 115.635 211.938 115.635C221.453 115.635 229.161 109.004 229.161 100.803V100.12C229.161 100.12 238.002 101.917 238.002 92.8304C238.002 83.744 232.45 85.0095 232.45 85.0095V70.5066H194.715Z" fill="#FBBCBE"/>
<path d="M232.668 84.8193V66.1978H219.972C219.972 66.2999 219.972 72.8903 219.972 72.9924V104.718C219.972 110.261 214.608 114.757 209.039 114.578C207.302 114.527 205.719 114.041 204.339 113.275C206.894 114.808 209.933 115.727 213.229 115.727C222.246 115.727 229.551 109.035 229.551 100.759V100.069C229.551 100.069 237.93 101.883 237.93 92.7123C237.93 83.5165 232.668 84.8193 232.668 84.8193Z" fill="#DA91A7"/>
<path d="M232.668 84.8193C233.383 86.8884 229.704 89.8515 227.916 89.8515C224.289 89.8515 222.833 76.7985 221.147 70.1826C217.418 71.7919 209.218 72.9669 206.051 70.2848C202.986 73.0691 198.464 72.4816 194.454 71.5364C188.502 70.106 185.641 63.3368 186.74 57.6405C187.199 55.2394 189.626 50.0285 197.136 49.8497C200.814 45.1751 207.354 47.3719 209.32 48.8024C213.739 46.0947 228.734 45.6605 233.178 54.8818C233.204 54.9074 233.178 54.9329 233.204 54.9585C241.889 57.5639 241.71 83.3122 232.668 84.8193Z" fill="#0C1540"/>
<path d="M236.729 84.5129L233.434 84.1297C233.459 83.8998 235.988 60.757 226.741 50.4628C223.829 47.2188 220.151 45.6606 215.477 45.6606C215.426 45.6606 215.374 45.6606 215.323 45.6606C212.565 45.6861 210.061 46.0183 207.839 46.6824L206.894 43.4894C209.397 42.7486 212.233 42.3399 215.298 42.3143C220.943 42.3399 225.643 44.2557 229.219 48.2405C239.462 59.6587 236.857 83.4912 236.729 84.5129Z" fill="#6F8FE4"/>
<path d="M216.115 114.859C214.812 114.859 213.918 114.808 213.816 114.808L213.944 112.586C214.046 112.586 223.165 113.071 226.844 110.874C229.398 109.367 231.007 101.704 231.416 97.2336L233.638 97.438C233.511 98.7408 232.361 110.21 227.993 112.79C224.953 114.578 219.283 114.859 216.115 114.859Z" fill="#6F8FE4"/>
<path d="M225.95 93.4787C226.231 95.982 226.997 100.146 229.5 101.423C229.628 101.474 229.781 101.551 229.883 101.602C235.861 104.284 241.634 99.0217 241.506 91.4096C241.429 85.8411 238.057 82.035 232.923 81.4475C232.387 81.3964 231.825 81.422 231.288 81.5497C229.628 81.9073 228.095 83.0568 227.329 84.7427C226.18 87.0672 225.771 91.8439 225.95 93.4787Z" fill="#2647C8"/>
<path d="M225.95 93.4786C226.231 95.9819 226.997 100.146 229.5 101.423C229.628 101.474 229.781 101.551 229.883 101.602C227.048 94.9091 226.793 87.5013 231.288 81.524C229.628 81.8817 228.095 83.0311 227.329 84.717C226.18 87.0671 225.771 91.8438 225.95 93.4786Z" fill="#6F8FE4"/>
<path d="M235.988 95.1901C237.01 93.1466 237.214 90.9499 236.627 88.7531C236.142 86.9139 239.003 86.122 239.488 87.9611C240.28 90.9498 239.922 93.9385 238.543 96.6972C237.7 98.4086 235.145 96.9016 235.988 95.1901Z" fill="#6F8FE4"/>
<path d="M210.955 113.275C211.262 115.472 213.28 117.005 215.477 116.698C217.673 116.392 219.206 114.374 218.925 112.177C218.619 109.98 216.601 108.448 214.404 108.729C212.182 109.035 210.649 111.079 210.955 113.275Z" fill="#2647C8"/>
<path d="M84.8195 249.961H188.962V255.453H84.8195V249.961Z" fill="#1D3599"/>
<path d="M188.962 255.453H236.908V252.362C236.908 251.034 235.835 249.961 234.507 249.961H188.962V255.453Z" fill="#120D80"/>
<path d="M87.757 249.961H191.491L177.825 186.101C177.416 184.236 175.858 182.908 174.07 182.908H80.6558C76.9519 182.908 74.1933 186.561 75.0107 190.418L87.757 249.961Z" fill="#1D3599"/>
<path d="M85.2282 249.961H188.962L175.296 186.101C174.887 184.236 173.329 182.908 171.541 182.908H76.16C73.4524 182.908 71.46 185.565 72.0475 188.374L85.2282 249.961Z" fill="#120D80"/>
<path opacity="0.11" d="M125.945 182.908L96.7229 249.961H110.108L140.403 182.908H125.945Z" fill="#F0F5FF"/>
<path opacity="0.11" d="M147.785 182.908L118.563 249.961H123.774L154.069 182.908H147.785Z" fill="#F0F5FF"/>
<path d="M306.566 223.421C295.812 229.781 250.829 239.616 242.374 241.634C232.182 244.06 223.14 230.343 233.281 226.69C243.09 223.165 297.651 199.69 303.782 199.103C314.894 198.081 320.028 215.477 306.566 223.421Z" fill="#FBBCBE"/>
<path d="M204.007 248.964C206.613 244.954 209.014 241.046 206.817 243.881C204.007 247.508 198.592 246.001 201.376 242.4C204.876 237.878 208.324 232.412 213.05 228.989C218.159 225.26 232.693 227.789 238.313 225.873C240.586 225.106 243.524 236.065 242.119 237.495C237.419 242.246 229.526 241.991 228.785 242.681C227.201 245.21 226.665 246.768 225.439 249.271C223.855 252.49 217.827 252.668 219.385 249.475C220.381 247.432 219.334 247.253 217.827 250.088C215.885 253.716 209.652 253.511 211.568 249.91C212.386 248.403 212.232 247.585 210.981 249.526C208.401 253.486 201.479 252.873 204.007 248.964Z" fill="#FBBCBE"/>
<path d="M200.083 86.6369C199.76 87.1323 199.067 87.2918 198.53 86.9938C197.992 86.6957 197.824 86.0533 198.143 85.5579C198.467 85.0625 199.159 84.903 199.697 85.201C200.234 85.4991 200.406 86.1415 200.083 86.6369Z" fill="#262651"/>
<path d="M214.378 86.9476C214.332 87.5227 213.795 87.9594 213.169 87.9174C212.548 87.8754 212.078 87.3758 212.124 86.8006C212.17 86.2254 212.708 85.7888 213.333 85.8308C213.95 85.8728 214.42 86.3724 214.378 86.9476Z" fill="#262651"/>
<path d="M195.78 80.3393C198.341 79.5458 201.254 79.7894 203.626 80.9859" stroke="#9A6B60" stroke-width="1.78" stroke-miterlimit="10" stroke-linecap="round" stroke-linejoin="round"/>
<path d="M210.352 80.8935C213.06 79.9321 216.272 80.2848 218.661 81.8088" stroke="#9A6B60" stroke-width="1.78" stroke-miterlimit="10" stroke-linecap="round" stroke-linejoin="round"/>
<path d="M205.285 84.8737C205.214 87.6236 204.508 90.3568 203.228 92.838C202.93 93.4174 202.59 94.064 202.812 94.6686C203.131 95.5418 204.344 95.7475 205.339 95.8021" stroke="#9A6B60" stroke-width="1.78" stroke-miterlimit="10" stroke-linecap="round" stroke-linejoin="round"/>
<path d="M201.502 100.559C205.885 102.138 210.755 102.557 215.386 101.756C214.773 102.709 213.963 103.51 212.85 104.304C210.646 105.874 207.829 106.319 205.486 105.253C203.626 104.413 202.094 102.692 201.502 100.559Z" fill="#D34C3B"/>
<path d="M201.246 98.8334C206.255 100.42 211.734 100.244 216.767 98.317C216.415 99.7235 215.999 100.815 215.386 101.756C210.755 102.557 205.885 102.133 201.502 100.559C201.347 100.009 201.254 99.4254 201.246 98.8334Z" fill="#F1F1F1"/>
<path d="M152.153 1.58302L11.8313 0.431684C5.30333 0.395939 0.00213417 3.69623 0 7.80018L0.109885 55.647C0.149288 59.749 5.48 63.1292 12.0116 63.1911L99.2603 63.9648L114.132 85.0491C115.757 87.3668 121.051 87.25 122.303 84.8763L133.248 64.2118L152.291 64.3444C158.861 64.3782 164.121 61.0799 164.123 56.9759L164.013 9.1291C164.011 4.99902 158.681 1.61876 152.153 1.58302Z" fill="#EBEAEE"/>
</svg>
