<svg width="70" height="82" viewBox="0 0 70 82" fill="none" xmlns="http://www.w3.org/2000/svg">
<path d="M33.574 0.431396H36.2608V3.1182H33.574V0.431396Z" fill="#FCAA67"/>
<path d="M27.0006 2.26978L29.4826 1.24097L30.5114 3.723L28.0294 4.75181L27.0006 2.26978Z" fill="#FCAA67"/>
<path d="M21.6157 6.49927L23.5155 4.59941L25.4154 6.49927L23.5155 8.39913L21.6157 6.49927Z" fill="#FCAA67"/>
<path d="M18.2765 12.452L19.3053 9.97L21.7873 10.9988L20.7585 13.4808L18.2765 12.452Z" fill="#FCAA67"/>
<path d="M48.0687 10.9917L50.5507 9.96289L51.5795 12.4449L49.0975 13.4737L48.0687 10.9917Z" fill="#FCAA67"/>
<path d="M44.4112 6.50122L46.3111 4.60136L48.2109 6.50122L46.3111 8.40108L44.4112 6.50122Z" fill="#FCAA67"/>
<path d="M39.3432 3.7218L40.372 1.23977L42.854 2.26858L41.8252 4.75061L39.3432 3.7218Z" fill="#FCAA67"/>
<path d="M69.8486 56.6998L65.8184 21.7714C65.7805 21.4446 65.6241 21.143 65.3787 20.9239C65.1333 20.7047 64.8161 20.5832 64.4871 20.5825H46.9489C46.998 20.1363 47.0226 19.6879 47.0228 19.2391C47.0228 16.0324 45.749 12.9571 43.4816 10.6897C41.2141 8.42227 38.1388 7.14844 34.9322 7.14844C31.7256 7.14844 28.6503 8.42227 26.3829 10.6897C24.1154 12.9571 22.8416 16.0324 22.8416 19.2391C22.8418 19.6879 22.8665 20.1363 22.9155 20.5825H5.37736C5.0479 20.5826 4.72998 20.7038 4.48403 20.923C4.23808 21.1422 4.08125 21.4441 4.04336 21.7714L0.0131546 56.6998C-0.0102924 56.9005 0.0118369 57.1039 0.0778939 57.2949C0.143951 57.4859 0.252234 57.6595 0.394681 57.8028C1.92399 59.3325 2.78311 61.407 2.78311 63.57C2.78311 65.733 1.92399 67.8075 0.394681 69.3372C0.206235 69.5252 0.0778729 69.7649 0.0258804 70.0259C-0.0261121 70.287 0.000608655 70.5576 0.102653 70.8034C0.204696 71.0492 0.377464 71.2592 0.599034 71.4067C0.820604 71.5542 1.08099 71.6325 1.34715 71.6318H29.5586C31.5462 71.6369 33.4635 70.8968 34.9322 69.5575C36.4009 70.8968 38.3182 71.6369 40.3058 71.6318H47.0228V79.6922C47.0229 79.9578 47.1017 80.2175 47.2493 80.4384C47.3969 80.6592 47.6067 80.8314 47.8522 80.933C48.0976 81.0347 48.3677 81.0613 48.6282 81.0095C48.8888 80.9577 49.1281 80.8298 49.316 80.642L53.7398 76.2181L58.1637 80.642C58.3515 80.8298 58.5909 80.9577 58.8515 81.0095C59.112 81.0613 59.3821 81.0347 59.6275 80.933C59.873 80.8314 60.0827 80.6592 60.2304 80.4384C60.378 80.2175 60.4568 79.9578 60.4569 79.6922V71.6318H68.5173C68.7829 71.6317 69.0426 71.5529 69.2635 71.4053C69.4843 71.2576 69.6565 71.0479 69.7581 70.8024C69.8598 70.557 69.8864 70.2869 69.8346 70.0264C69.7828 69.7658 69.6549 69.5264 69.4671 69.3386C67.9378 67.8089 67.0786 65.7344 67.0786 63.5713C67.0786 61.4083 67.9378 59.3338 69.4671 57.8041C69.6097 57.6607 69.7181 57.4868 69.7842 57.2956C69.8502 57.1044 69.8722 56.9007 69.8486 56.6998ZM34.9322 9.83524C37.4254 9.83809 39.8156 10.8298 41.5786 12.5927C43.3415 14.3556 44.3332 16.7459 44.336 19.2391C44.3405 20.7084 43.9974 22.1579 43.3348 23.4693C42.6722 24.7807 41.7089 25.9169 40.5235 26.785C40.371 26.8982 40.2443 27.0425 40.1516 27.2083C40.059 27.3741 40.0026 27.5576 39.9861 27.7468L39.5508 32.6731H36.2756V25.1688L39.9122 21.5322L38.0126 19.6327L34.9322 22.7131L31.8518 19.6327L29.9522 21.5322L33.5888 25.1688V32.6731H30.3136L29.8783 27.7468C29.8618 27.5576 29.8054 27.3741 29.7128 27.2083C29.6202 27.0425 29.4934 26.8982 29.341 26.785C28.1555 25.9169 27.1922 24.7807 26.5296 23.4693C25.867 22.1579 25.5239 20.7084 25.5284 19.2391C25.5312 16.7459 26.5229 14.3556 28.2859 12.5927C30.0488 10.8298 32.439 9.83809 34.9322 9.83524ZM30.7892 38.0467L30.5514 35.3599H39.313L39.0753 38.0467H30.7892ZM38.5661 40.7335C38.3279 41.5115 37.8463 42.1924 37.1921 42.6762C36.538 43.16 35.7458 43.4211 34.9322 43.4211C34.1186 43.4211 33.3265 43.16 32.6723 42.6762C32.0182 42.1924 31.5366 41.5115 31.2983 40.7335H38.5661ZM57.7701 76.4492L54.6896 73.3688C54.4377 73.1169 54.0961 72.9754 53.7398 72.9754C53.3836 72.9754 53.042 73.1169 52.7901 73.3688L49.7096 76.4492V63.5713H57.7701V76.4492ZM65.8103 68.945H60.4569V62.2279C60.4569 61.8716 60.3153 61.5299 60.0634 61.278C59.8115 61.0261 59.4697 60.8845 59.1135 60.8845H41.6492V63.5713H47.0228V68.945H40.3058C39.468 68.9453 38.6419 68.7478 37.8949 68.3684C37.1478 67.9891 36.501 67.4386 36.0069 66.7619C35.8762 66.6035 35.7121 66.4759 35.5263 66.3883C35.3405 66.3007 35.1376 66.2552 34.9322 66.2552C34.7268 66.2552 34.5239 66.3007 34.3381 66.3883C34.1523 66.4759 33.9882 66.6035 33.8575 66.7619C33.3635 67.4386 32.7166 67.9891 31.9696 68.3684C31.2225 68.7478 30.3964 68.9453 29.5586 68.945H4.05411C4.53196 68.102 4.89348 67.1981 5.12883 66.2581H28.2152V63.5713H5.47274C5.47731 61.687 4.9882 59.8343 4.05411 58.1977H29.5586C30.3964 58.1974 31.2225 58.3949 31.9696 58.7743C32.7166 59.1536 33.3635 59.7041 33.8575 60.3808C33.9882 60.5392 34.1523 60.6668 34.3381 60.7544C34.5239 60.842 34.7268 60.8875 34.9322 60.8875C35.1376 60.8875 35.3405 60.842 35.5263 60.7544C35.7121 60.6668 35.8762 60.5392 36.0069 60.3808C36.501 59.7041 37.1478 59.1536 37.8949 58.7743C38.6419 58.3949 39.468 58.1974 40.3058 58.1977H65.8103C64.88 59.8359 64.3909 61.6875 64.3909 63.5713C64.3909 65.4552 64.88 67.3068 65.8103 68.945ZM40.3058 55.5109C38.3182 55.5058 36.4009 56.2459 34.9322 57.5851C33.4635 56.2459 31.5462 55.5058 29.5586 55.5109H2.85445L6.57568 23.2693H23.5308C24.2634 25.3416 25.5511 27.173 27.2533 28.5636L28.2152 39.5083C28.2289 39.5774 28.2482 39.6452 28.273 39.7112H28.2501L28.6169 41.1741C28.9681 42.5818 29.78 43.8317 30.9234 44.7248C32.0668 45.618 33.476 46.1031 34.9268 46.1031C36.3777 46.1031 37.7869 45.618 38.9303 44.7248C40.0737 43.8317 40.8856 42.5818 41.2368 41.1741L41.6035 39.7112H41.5807C41.6091 39.6456 41.632 39.5777 41.6492 39.5083L42.6165 28.5636C44.3168 27.1723 45.6025 25.341 46.3337 23.2693H63.2888L67.01 55.5109H40.3058Z" fill="#FCAA67"/>
<path d="M9.40758 40.7335H21.4982C21.8545 40.7335 22.1962 40.5919 22.4481 40.34C22.7001 40.0881 22.8416 39.7464 22.8416 39.3901V27.2995C22.8416 26.9432 22.7001 26.6015 22.4481 26.3495C22.1962 26.0976 21.8545 25.9561 21.4982 25.9561H10.751C10.4203 25.956 10.1012 26.078 9.85477 26.2986C9.60838 26.5192 9.45202 26.823 9.41564 27.1517L8.07224 39.2423C8.05146 39.4301 8.07051 39.6201 8.12814 39.8C8.18578 39.9798 8.2807 40.1456 8.40671 40.2863C8.53272 40.427 8.68699 40.5396 8.85945 40.6166C9.03192 40.6937 9.21869 40.7335 9.40758 40.7335ZM11.96 28.6429H20.1548V38.0467H10.9082L11.96 28.6429Z" fill="#FCAA67"/>
<path d="M8.06415 43.4202H16.1246V46.107H8.06415V43.4202Z" fill="#FCAA67"/>
<path d="M18.8114 43.4202H21.4982V46.107H18.8114V43.4202Z" fill="#FCAA67"/>
<path d="M6.72076 48.7939H18.8114V51.4808H6.72076V48.7939Z" fill="#FCAA67"/>
<path d="M21.4982 48.7939H28.2152V51.4808H21.4982V48.7939Z" fill="#FCAA67"/>
<path d="M47.0228 27.2994H60.4569V29.9862H47.0228V27.2994Z" fill="#FCAA67"/>
<path d="M45.6794 32.673H48.3662V35.3598H45.6794V32.673Z" fill="#FCAA67"/>
<path d="M51.053 32.673H61.8003V35.3598H51.053V32.673Z" fill="#FCAA67"/>
<path d="M44.336 38.0466H51.053V40.7334H44.336V38.0466Z" fill="#FCAA67"/>
<path d="M53.7399 38.0466H61.8003V40.7334H53.7399V38.0466Z" fill="#FCAA67"/>
<path d="M60.4568 43.4202H63.1437V46.107H60.4568V43.4202Z" fill="#FCAA67"/>
<path d="M42.9926 43.4202H57.77V46.107H42.9926V43.4202Z" fill="#FCAA67"/>
<path d="M40.3058 48.7939H53.7399V51.4808H40.3058V48.7939Z" fill="#FCAA67"/>
<path d="M56.4266 48.7939H63.1436V51.4808H56.4266V48.7939Z" fill="#FCAA67"/>
</svg>
