<svg width="298" height="371" viewBox="0 0 298 371" fill="none" xmlns="http://www.w3.org/2000/svg">
<path d="M282.073 250.704L297.853 305.856C293.741 304.939 289.932 302.31 287.117 298.728C283.68 294.337 281.673 288.622 280.954 282.774C280.659 280.366 280.453 277.664 278.845 276.065C277.416 274.651 275.235 274.599 273.461 275.394C272.189 275.964 270.921 276.558 269.653 277.192C269.544 274.28 270.675 271.262 272.787 269.586C274.338 268.346 276.349 267.72 277.452 265.963C278.914 263.641 278.175 260.373 276.983 257.861C276.43 256.702 275.8 255.563 275.255 254.4C277.517 253.148 279.786 251.916 282.073 250.704Z" fill="#242450"/>
<path d="M251.582 268.205C259.378 263.403 267.274 258.79 275.255 254.396C275.8 255.559 276.434 256.698 276.983 257.857C278.175 260.369 278.914 263.637 277.452 265.959C276.349 267.716 274.338 268.338 272.787 269.582C270.675 271.258 269.548 274.275 269.653 277.188C265.258 279.357 260.864 281.877 256.53 284.591C255.322 278.969 253.666 273.476 251.582 268.205Z" fill="#00AFD6"/>
<path d="M238.209 288.093C236.844 285.197 235.354 282.382 233.75 279.66C239.635 275.722 245.576 271.909 251.582 268.205C253.666 273.476 255.322 278.969 256.53 284.591C251.283 287.863 246.122 291.429 241.178 294.996C240.273 292.653 239.271 290.347 238.209 288.093Z" fill="#FFD3CB"/>
<path d="M93.5575 127.956C89.1509 131.409 84.6071 134.568 79.8734 137.294C75.3982 139.867 70.2607 143.195 65.4422 143.942C54.6581 145.606 44.488 140.279 34.1926 137.779C34.4107 136.628 34.548 135.452 34.6167 134.285C34.851 130.294 34.233 126.292 32.8921 122.721C35.0125 122.943 37.1168 123.267 39.205 123.683C45.8006 125.007 52.5861 127.261 59.1131 124.931C64.2709 123.101 68.5602 118.634 72.6719 114.296C80.1036 106.436 87.5354 98.5885 94.9711 90.7286C98.8203 86.6574 102.73 82.5336 106.979 79.1691C109.265 77.3556 111.648 75.7602 114.168 74.5C121.818 70.6792 134.884 72.8925 133.16 86.1C131.265 100.6 116.854 107.171 108.522 114.979C103.675 119.522 98.7112 123.941 93.5575 127.956Z" fill="#000025"/>
<path d="M233.75 265.523C232.571 266.819 231.395 268.112 230.216 269.408C224.885 275.261 219.056 281.416 211.77 282.612C202.759 284.094 194.112 277.422 188.485 269.194C178.893 255.183 173.711 226.377 176.999 205.912C176.288 203.634 175.601 201.344 174.943 199.037C164.647 196.145 155.229 190.208 145.559 185.208C136.233 180.369 126.204 176.298 116.014 176.855C116.05 176.928 116.087 177.005 116.119 177.077C121.503 188.306 126.879 199.55 132.259 210.787C136.128 218.869 139.993 226.947 143.863 235.029C150.353 248.591 159.906 275.968 168.02 288.323C175.431 299.612 184.822 310.23 196.781 313.47C206.628 316.139 217.122 313.413 226.201 308.235C231.177 305.396 235.786 301.837 240.241 297.996V282.995C238.637 276.921 236.529 271.064 233.75 265.523Z" fill="#0094BC"/>
<path d="M227.159 254.747C226.807 254.981 226.468 255.248 226.113 255.482C219.989 259.493 213.055 263.152 206.144 261.646C196.584 259.57 187.698 234.863 183.655 224.677C181.207 218.538 178.99 212.269 176.999 205.908C173.711 226.377 178.893 255.179 188.485 269.19C194.112 277.418 202.759 284.094 211.77 282.608C219.056 281.408 224.885 275.253 230.216 269.404C231.396 268.108 232.571 266.815 233.75 265.519C231.872 261.775 229.699 258.172 227.159 254.747Z" fill="#007BA2"/>
<path d="M239.473 79.7464C239.813 81.9355 239.587 84.3226 238.928 86.4632C238.855 86.645 238.791 86.8469 238.726 87.0206C237.862 89.4763 236.731 91.3908 235.41 92.8408C229.917 98.9315 221.205 96.8878 214.747 91.4594C216.601 84.1449 215.05 75.5499 210.865 69.4753C205.174 61.2237 195.655 57.3584 186.498 57.4311C181.28 57.4674 175.46 58.461 171.368 54.7411C167.834 51.5342 166.885 45.9362 164.874 41.3035C162.006 34.6795 156.509 29.6429 150.252 27.9021C145.555 26.6016 140.498 27.1751 136.064 29.4168C136.294 25.4989 136.035 21.6337 135.054 18.2732C136.577 16.3143 138.515 14.727 140.773 13.8102C141.197 13.6486 141.629 13.5032 142.07 13.378C145.842 12.3521 149.861 13.0791 153.492 14.6583C160.831 17.8532 166.396 22.7161 172.289 28.4434C173.254 29.3683 174.244 30.2811 175.27 31.1454C179.43 34.6351 184.107 37.321 189.2 37.628C194.544 37.9511 200.259 36.4607 205.417 37.0504C209.367 37.5028 212.99 39.1426 215.858 43.7066C218.774 48.3757 217.675 53.6667 219.598 58.8528C219.691 59.1194 219.8 59.39 219.905 59.6485C221.254 62.9443 223.281 65.9008 225.797 68.1101C226.985 69.1643 228.277 70.0489 229.675 70.7153C232.385 72.0401 235.471 72.7267 237.523 75.1501C238.585 76.4264 239.199 78.0258 239.473 79.7464Z" fill="#EE5844"/>
<path d="M214.747 91.4553C213.951 90.7849 213.188 90.0659 212.469 89.3025C210.7 87.4406 209.12 85.2717 207.473 83.236C205.316 80.5299 203.038 78.0257 200.106 76.6687C195.925 74.7219 191.389 75.5095 186.817 76.1355C184.584 76.4425 182.33 76.7292 180.129 76.6242C170.221 76.184 161.121 67.1609 159.276 55.9447C158.706 52.4146 158.771 48.7593 157.983 45.2777C157.204 41.7921 155.309 38.3267 152.308 37.3371C148.883 36.1941 145.353 38.6054 141.803 38.775C138.931 38.9002 136.702 38.2661 135.066 37.1231C135.567 34.6149 135.922 32.0016 136.068 29.4167C140.502 27.1751 145.559 26.6015 150.256 27.9021C156.513 29.6388 162.01 34.6754 164.878 41.3034C166.889 45.9401 167.838 51.5381 171.372 54.741C175.464 58.4609 181.284 57.4674 186.502 57.431C195.659 57.3583 205.178 61.2236 210.869 69.4752C215.05 75.5458 216.601 84.1367 214.747 91.4553Z" fill="#EE5844"/>
<path d="M174.943 199.033C164.647 196.142 155.224 190.204 145.559 185.204C136.233 180.365 126.204 176.294 116.014 176.851C114.936 174.606 113.865 172.356 112.787 170.11C117.157 171.835 122.525 170.078 127.4 169.747C134.719 169.242 141.892 172.291 148.322 176.318C154.76 180.341 160.685 185.374 167.148 189.344C168.892 190.41 170.924 191.404 172.806 191.056C173.477 193.722 174.187 196.388 174.943 199.033Z" fill="#007BA2"/>
<path d="M111.159 166.705C110.76 167.23 110.348 167.756 109.94 168.277C107.213 165.708 106.099 161.487 105.202 157.529C103.736 151.115 102.399 144.669 101.195 138.194C106.583 132.863 112.416 128.012 117.686 122.523C124.561 115.374 130.765 106.189 132.699 96.0355C134.707 93.4627 136.136 90.5829 136.569 87.2588C146.609 109.78 156.638 132.31 166.679 154.831C170.246 162.852 173.844 170.93 176.025 179.59C177.019 183.528 177.221 188.831 174.018 190.628C173.626 190.85 173.214 190.988 172.802 191.052C170.924 191.4 168.888 190.406 167.144 189.34C160.685 185.37 154.756 180.341 148.318 176.314C141.888 172.283 134.715 169.234 127.396 169.743C122.521 170.074 117.153 171.835 112.783 170.106C112.246 168.971 111.701 167.844 111.159 166.705Z" fill="#242450"/>
<path d="M132.259 210.783C128.697 214.491 125.13 218.202 121.564 221.918C118.47 204.187 114.912 186.565 110.901 169.084C111.503 169.517 112.133 169.848 112.787 170.11C113.865 172.356 114.936 174.606 116.014 176.851C115.558 176.876 115.105 176.916 114.649 176.956C115.138 176.997 115.63 177.033 116.119 177.078C121.503 188.302 126.879 199.546 132.259 210.783Z" fill="#007BA2"/>
<path d="M72.2438 306.599C64.901 305.024 57.7277 302.391 50.9584 298.772C50.09 285.383 49.7871 271.787 53.5232 259.137C57.7358 244.904 70.3132 219.281 79.0252 208.065C89.3287 194.805 99.6321 181.537 109.936 168.277C110.02 168.37 110.101 168.45 110.19 168.527C110.416 168.729 110.658 168.911 110.901 169.084C114.907 186.565 118.466 204.187 121.564 221.918C121.277 222.213 120.998 222.512 120.712 222.807C107.746 230.562 94.0785 251.988 87.2122 265.014C80.5156 277.721 77.5793 292.984 78.8758 307.75C76.6544 307.464 74.437 307.084 72.2438 306.599Z" fill="#0094BC"/>
<path d="M87.4505 308.368C84.5828 308.324 81.7232 308.122 78.8717 307.75C77.5752 292.988 80.5115 277.721 87.2081 265.014C94.0744 251.988 107.746 230.561 120.707 222.807C118.563 225.036 116.426 227.27 114.281 229.499C108.033 236.014 98.0003 256.702 94.0259 265.26C87.9957 278.233 88.2542 293.634 88.9611 308.384C88.4602 308.38 87.9553 308.38 87.4505 308.368Z" fill="#007BA2"/>
<path d="M80.5398 370.431L32.0883 353.775C35.0933 350.422 39.1524 348.338 43.3207 347.736C48.4259 347.009 53.6564 348.383 58.2487 351.048C60.1389 352.147 62.1907 353.496 64.2506 352.898C66.0762 352.361 67.3606 350.338 67.8049 348.213C68.124 346.69 68.4229 345.151 68.6975 343.596C70.8422 345.16 72.3528 347.946 72.3447 350.895C72.3447 353.064 71.6419 355.318 72.268 357.361C73.096 360.067 75.8505 361.239 78.3264 361.55C79.4695 361.691 80.6448 361.748 81.7878 361.897C81.3961 364.745 80.98 367.584 80.5398 370.431Z" fill="#242450"/>
<path d="M85.4512 331.71C84.4293 341.795 83.2176 351.868 81.7959 361.897C80.6529 361.748 79.4775 361.691 78.3345 361.55C75.8586 361.235 73.1 360.063 72.276 357.361C71.65 355.318 72.3528 353.068 72.3528 350.895C72.3609 347.946 70.8462 345.16 68.7056 343.596C69.6669 338.217 70.3737 332.639 70.9109 327.004C75.6163 329.08 80.4913 330.66 85.4512 331.71Z" fill="#00AFD6"/>
<path d="M78.8717 307.751C81.7232 308.122 84.5828 308.324 87.4504 308.369C86.9011 316.16 86.2347 323.935 85.4512 331.71C80.4913 330.66 75.6163 329.08 70.9109 327.008C71.5692 320.195 71.9691 313.296 72.2478 306.604C74.4369 307.084 76.6543 307.464 78.8717 307.751Z" fill="#FFD3CB"/>
<path d="M132.699 96.0396C130.764 106.198 124.557 115.378 117.686 122.527C112.415 128.012 106.583 132.867 101.195 138.198C100.234 133.146 99.3655 128.085 98.5738 122.996C103.618 119.522 108.473 115.665 113.219 111.695C118.672 107.123 127.557 102.599 132.699 96.0396Z" fill="#060634"/>
<path d="M110.901 169.084C110.658 168.911 110.416 168.729 110.19 168.527C110.101 168.45 110.02 168.37 109.935 168.277C110.343 167.756 110.751 167.231 111.155 166.705C111.696 167.844 112.242 168.971 112.787 170.11C112.133 169.848 111.506 169.517 110.901 169.084Z" fill="#242450"/>
<path d="M123.684 58.356C125.833 63.1745 127.982 67.993 130.122 72.8074C126.297 72.4439 122.315 73.1709 118.704 74.7017C116.236 75.7559 113.906 77.121 111.668 78.6922C110.796 75.5135 109.919 72.3348 109.055 69.1602C110.723 67.6537 112.391 66.1471 114.059 64.6406C116.967 62.0112 120.186 59.2809 123.684 58.356Z" fill="#FFD3CB"/>
<path d="M123.434 57.3423C123.345 57.6856 123.24 57.9966 123.094 58.2228C122.351 59.3981 119.831 60.0363 118.68 60.8401C117.06 61.971 115.546 63.2958 114.059 64.6448C112.391 66.1513 110.723 67.6578 109.055 69.1644C108.833 68.3445 108.603 67.5286 108.38 66.7087C107.435 63.2675 103.93 60.8522 101.664 58.5015C105.279 57.6048 109.475 57.2171 111.624 53.2872C112.557 51.5787 113.114 49.636 113.886 47.8184C115.485 44.0339 118.042 40.7946 121.156 38.5934C122.206 37.8502 123.482 37.2121 124.629 37.721C125.558 38.133 126.152 39.2356 126.338 40.3625C126.524 41.4893 126.366 42.6526 126.192 43.7794C125.788 46.3523 125.276 48.8968 124.71 51.4293C124.439 52.649 124.153 53.8647 123.862 55.0805C123.716 55.6742 123.624 56.591 123.434 57.3423Z" fill="#FFC4BC"/>
<path d="M122.456 34.841C124.233 37.5148 123.668 41.7921 121.774 44.4941C119.783 47.3335 116.087 48.8926 115.017 52.5398C114.487 54.3371 115.247 55.7063 113.902 57.3179C112.739 58.7113 110.965 59.2324 109.394 59.6686C105.586 60.7308 101.7 62.205 97.7782 62.5322C94.446 62.8109 90.5565 62.819 87.7898 60.335C84.7566 57.6249 85.007 52.459 85.2695 48.4241C85.4028 46.3763 85.6492 44.2841 85.7097 42.2767C85.738 41.271 85.4391 40.1967 84.7364 39.607C84.4496 39.3646 84.1022 39.2071 83.872 38.8921C83.3631 38.1933 83.6822 37.1271 84.1022 36.3516C85.5724 33.6535 87.1678 30.9636 88.5976 28.1969C89.9991 25.4786 90.7383 22.6191 91.9661 19.816C92.1237 19.4565 92.2973 19.1051 92.5033 18.7659C95.7385 22.0132 101.03 26.0441 105.23 22.7685C106.797 21.5447 108.013 19.4888 109.887 19.1778C111.765 18.8668 113.526 20.5794 114.233 22.6029C114.94 24.6264 114.851 26.8883 114.774 29.0693C114.71 30.9757 114.532 33.4314 115.437 35.0712C117.161 32.6317 120.675 32.1712 122.456 34.841Z" fill="#FFD3CB"/>
<path d="M92.2851 31.739C93.0242 31.8157 93.7835 32.0096 94.4904 32.2923C94.7125 31.7995 94.6479 31.1937 94.2722 30.7575C93.7674 30.1759 92.9071 30.1193 92.3457 30.6363C92.0347 30.9231 91.8852 31.327 91.8973 31.7268C92.0225 31.7228 92.1518 31.7228 92.2851 31.739Z" fill="#262651"/>
<path d="M91.2795 25.4506C93.816 24.4166 96.9785 25.281 98.7112 27.4822" stroke="#9A6B60" stroke-width="1.9097" stroke-miterlimit="10" stroke-linecap="round" stroke-linejoin="round"/>
<path d="M86.1135 47.1358C88.8842 48.5575 92.2285 48.5373 94.7731 47.0913" stroke="#9A6B60" stroke-width="1.7008" stroke-miterlimit="10" stroke-linecap="round" stroke-linejoin="round"/>
<path d="M135.066 37.119C135.567 34.6108 135.922 31.9976 136.068 29.4126C136.298 25.4948 136.039 21.6295 135.058 18.2691C132.95 11.0555 126.915 7.75972 121.257 4.90012C114.617 1.54777 108.15 -1.61475 100.892 0.917687C94.9953 2.97352 89.3569 7.60219 86.1863 13.7576C85.3542 15.3732 84.6757 17.4815 85.5885 19.0365C86.0691 19.8524 86.885 20.3048 87.6645 20.7167C91.5581 22.7806 95.4517 24.8486 99.3452 26.9125C100.876 27.7244 102.508 28.5564 104.184 28.3181C107.015 27.9142 108.817 24.7274 110.222 21.8638C111.208 23.9924 112.092 26.3794 112.484 28.7624C112.864 31.0727 112.92 35.6852 116.196 34.8249C117.129 34.5785 117.533 33.3062 118.478 33.0195C119.839 32.6075 121.644 33.597 122.468 34.837C124.674 38.157 122.921 40.948 122.121 44.3367C121.127 48.5332 121.269 53.1901 122.295 57.3462C122.367 57.637 122.501 57.9803 122.763 58.0005C122.901 58.0126 123.03 57.9238 123.147 57.8349C124.726 56.6757 126.475 55.7104 127.856 54.2645C129.815 52.2167 131.302 49.555 132.352 46.7722C133.394 44.0055 134.363 40.6733 135.066 37.119Z" fill="#EE5844"/>
<path d="M165.108 140.436C165.794 137.758 164.005 134.939 161.804 133.784C159.603 132.629 157.09 132.661 154.675 132.463C140.377 131.296 126.964 120.685 120.897 105.737C121.249 106.84 111.515 111.351 111.394 112.898C111.353 113.395 111.62 113.847 111.874 114.255C113.11 116.238 114.617 118.06 115.804 120.043C119.847 125.104 124.621 129.381 129.835 132.725C140.458 139.543 153.019 142.544 165.108 140.436Z" fill="#FFAC3D"/>
<path d="M45.3645 116.634L45.1746 117.361C44.5647 119.7 42.4564 121.065 40.4854 120.391L25.9047 115.378C25.941 115.35 25.9653 115.33 26.0016 115.305L23.1218 114.316C24.8384 114.461 26.5065 113.173 27.0396 111.129L27.2295 110.402C27.8434 108.051 26.7327 105.584 24.7576 104.905L24.7657 104.877L30.4647 106.836L30.4566 106.864L42.9007 111.141C44.8677 111.82 45.9784 114.284 45.3645 116.634Z" fill="white"/>
<path d="M14.8621 73.4941L14.2522 75.8327L22.8431 78.7852C23.0168 78.8296 23.2026 78.8862 23.3803 78.9468L32.4962 82.081C35.1579 82.6747 38.1104 79.8959 39.2211 75.6429L37.7792 75.1461C36.9553 78.3005 34.6975 80.3119 32.7466 79.6415L18.3719 74.7018C18.4083 74.6695 18.4366 74.6372 18.4689 74.6049L15.6012 73.6194C15.476 73.6153 15.3589 73.6032 15.2296 73.583C15.1084 73.5669 14.9832 73.5386 14.8621 73.4941Z" fill="#242450"/>
<path d="M18.1053 61.0701L18.0973 61.0983C20.0481 61.7688 20.9569 64.8748 20.1329 68.0211L19.8785 68.9945C19.1595 71.7491 17.3501 73.6353 15.6012 73.6192L18.4689 74.6047C18.4325 74.637 18.4042 74.6693 18.3719 74.7016L32.7466 79.6413C34.6974 80.3117 36.9552 78.3003 37.7792 75.1459L38.0337 74.1725C38.8536 71.0302 37.9327 67.9121 35.9859 67.2416L23.7195 63.0249L23.7276 62.9966L18.1053 61.0701Z" fill="white"/>
<path d="M18.7032 58.7681L18.1014 61.0703L23.7196 63.0009L23.7115 63.0292L35.9779 67.2459C37.9287 67.9163 38.8455 71.0344 38.0256 74.1767L37.7712 75.1501L39.2131 75.6469L39.4675 74.6735C40.5782 70.4245 39.4393 66.2483 36.9311 65.0608L32.6619 63.5946C32.5286 63.5502 32.3953 63.4937 32.2701 63.4371L18.7032 58.7681Z" fill="#242450"/>
<path d="M6.86087 113.023C5.23721 114.142 4.02549 115.98 3.45195 118.169C2.27258 122.689 4.21131 127.362 7.77773 128.589L42.7431 140.609C39.3867 139.454 37.5571 135.048 38.6678 130.791L38.9142 129.85C40.0289 125.584 43.664 123.056 47.0204 124.211L68.8834 131.728V131.72L66.6094 130.936L39.8916 121.751L21.6758 115.491L12.0509 112.183C10.3223 111.589 8.47242 111.892 6.86087 113.023Z" fill="#4F4F79"/>
<path d="M16.4938 89.0359C15.2337 89.9043 14.2926 91.326 13.8483 93.0264C13.0122 96.2253 14.1956 99.5332 16.5019 100.801C16.724 100.923 16.9543 101.028 17.1926 101.108L24.7495 103.705L24.7616 103.665L42.9451 109.917L48.22 111.731C47.9898 111.614 47.7757 111.468 47.5778 111.311C47.3597 111.149 47.1618 110.959 46.976 110.749C46.9679 110.745 46.9638 110.745 46.9598 110.737C46.7942 110.556 46.6448 110.362 46.5074 110.152C46.3338 109.901 46.1803 109.623 46.047 109.332C45.3806 107.91 45.1988 106.125 45.6552 104.372L45.8451 103.645C46.3055 101.888 47.3112 100.503 48.5511 99.7352C49.0924 99.3918 49.6861 99.1697 50.2879 99.0768C50.8897 98.9839 51.5158 99.0364 52.1297 99.2464L20.8802 88.5028L20.5126 88.3776C19.1797 87.9212 17.7459 88.1595 16.4938 89.0359Z" fill="#30305B"/>
<path d="M19.2282 79.0517C17.9842 79.6091 17.1077 80.6068 16.7725 81.8952C16.0858 84.5286 17.9316 87.4932 20.8841 88.511L52.1337 99.2547L54.5167 100.075C54.4682 100.058 54.4198 100.042 54.3713 100.018C54.3632 100.014 54.3632 100.014 54.3592 100.014C54.2582 99.9696 54.1532 99.9292 54.0562 99.8767C53.9553 99.8323 53.8543 99.7838 53.7574 99.7273C53.6564 99.6788 53.5595 99.6222 53.4666 99.5576C53.3696 99.5011 53.2767 99.4445 53.1879 99.3759C53.0869 99.3112 52.9859 99.2385 52.8849 99.1578C52.7234 99.0326 52.5699 98.9033 52.4285 98.762C51.0512 97.4574 50.3687 95.5994 50.8129 93.8909L50.9543 93.3457C51.5642 91.0152 54.0603 89.7752 56.6614 90.4134L32.1327 81.98L22.839 78.7852C21.5788 78.4742 20.3146 78.563 19.2282 79.0517Z" fill="#80BAC8"/>
<path d="M22.0999 113.876L21.6799 115.491L39.8956 121.752C42.6825 122.689 45.5906 120.968 46.3863 117.915L46.564 117.236C46.6084 117.058 46.6488 116.881 46.6771 116.699C46.7094 116.525 46.7296 116.348 46.7417 116.166C46.7619 115.988 46.7659 115.814 46.7659 115.637C46.7659 115.459 46.7579 115.281 46.7457 115.108C46.7336 114.95 46.7134 114.797 46.6932 114.651C46.6892 114.619 46.6852 114.578 46.673 114.546C46.6528 114.393 46.6205 114.243 46.5842 114.098C46.5801 114.082 46.5761 114.074 46.5761 114.057C46.5317 113.896 46.4873 113.734 46.4267 113.577C46.4267 113.569 46.4267 113.569 46.4226 113.561C46.3701 113.403 46.3095 113.254 46.2449 113.1C46.1803 112.947 46.1076 112.789 46.0268 112.64C45.9501 112.482 45.8653 112.337 45.7683 112.195C45.6754 112.046 45.5825 111.917 45.4775 111.779C45.3725 111.642 45.2675 111.513 45.1544 111.392C44.9322 111.137 44.6859 110.915 44.4193 110.717C44.286 110.616 44.1527 110.519 44.0073 110.43C43.8619 110.342 43.7165 110.261 43.563 110.184C43.5428 110.176 43.5226 110.164 43.5024 110.156L24.7576 103.714L24.3537 105.269L30.0648 107.232L30.0567 107.26L42.529 111.549C44.5162 112.232 45.6592 114.562 45.0938 116.739L44.9161 117.418C44.3466 119.599 42.2746 120.819 40.2874 120.136L25.6744 115.112C25.6987 115.091 25.7269 115.067 25.7633 115.051L22.8633 114.053C22.835 114.053 22.8108 114.045 22.7785 114.041C22.6815 114.029 22.5765 114.017 22.4796 113.993C22.4796 113.993 22.4796 113.993 22.4715 113.989C22.3463 113.952 22.2211 113.92 22.0999 113.876Z" fill="#9BD4E1"/>
<path d="M64.8685 74.6573L36.939 65.0566C39.4472 66.2441 40.5822 70.4164 39.4755 74.6694L39.2211 75.6428C38.1103 79.8918 35.1619 82.6706 32.4962 82.0809L57.1864 90.5668L65.846 93.5435C66.0883 93.6041 66.3428 93.6283 66.5972 93.6324C66.6053 93.6364 66.6053 93.6364 66.6053 93.6364C66.6659 93.6405 66.7184 93.6364 66.779 93.6364C66.7911 93.6405 66.7992 93.6364 66.8113 93.6404C69.3639 93.5314 71.965 90.7405 73.0111 86.7298C73.6048 84.4477 73.617 82.1132 73.0313 80.1664C72.5345 78.4418 71.6258 77.1978 70.4545 76.5879L65.123 74.7542C65.0301 74.7219 64.9493 74.6936 64.8685 74.6573Z" fill="#4F4F79"/>
<path d="M5.08371 122.596C5.09583 122.762 5.10393 122.927 5.10797 123.089C5.10393 122.927 5.09583 122.753 5.08371 122.596Z" fill="#4F4F79"/>
<path d="M39.8916 121.756L66.6094 130.94C69.57 131.958 72.6759 130.141 73.5241 126.885C73.9401 125.298 73.7664 123.614 73.0394 122.156C72.3205 120.693 71.133 119.607 69.6952 119.114L65.7774 117.765L65.7652 117.814L48.8096 111.985C48.7288 111.957 48.644 111.929 48.5673 111.892L43.5549 110.168C43.7084 110.245 43.8619 110.325 44.0033 110.422C44.1487 110.511 44.29 110.604 44.4152 110.709C44.6818 110.907 44.9322 111.133 45.1503 111.384C45.2674 111.501 45.3805 111.63 45.4734 111.771C45.5784 111.901 45.6754 112.042 45.7643 112.187C45.8612 112.329 45.942 112.47 46.0228 112.632C46.0955 112.781 46.1762 112.931 46.2408 113.092C46.3055 113.246 46.3661 113.399 46.4186 113.553C46.4226 113.561 46.4226 113.561 46.4226 113.569C46.4832 113.726 46.5276 113.888 46.572 114.049C46.5761 114.065 46.5801 114.074 46.5801 114.09C46.6165 114.231 46.6488 114.385 46.669 114.538C46.6811 114.574 46.6811 114.611 46.6892 114.643C46.7174 114.792 46.7296 114.942 46.7417 115.099C46.7578 115.273 46.7659 115.447 46.7619 115.629C46.7619 115.806 46.7578 115.98 46.7376 116.158C46.7255 116.339 46.7053 116.517 46.673 116.691C46.6447 116.873 46.6043 117.05 46.5599 117.228L46.3822 117.907C45.5865 120.972 42.6785 122.689 39.8916 121.756Z" fill="#80BAC8"/>
<path d="M38.9142 129.85L38.6678 130.791L40.4328 131.397L40.6792 130.456C41.4668 127.435 44.0477 125.637 46.4347 126.457L61.4314 131.611L61.4395 131.575L68.3058 133.933L68.8834 131.724L47.0204 124.208C43.664 123.06 40.0249 125.585 38.9142 129.85Z" fill="#30305B"/>
<path d="M40.4329 131.397L38.6678 130.791C37.5571 135.048 39.3868 139.454 42.7431 140.61L64.6061 148.126L65.1918 145.88C64.8848 145.775 64.6021 145.634 64.3355 145.456L64.3274 145.452L60.8499 144.257C60.8701 144.309 60.8822 144.362 60.9024 144.406L43.3248 138.364C40.9418 137.544 39.6453 134.418 40.4329 131.397Z" fill="#30305B"/>
<path d="M45.8491 103.645L45.6593 104.372C45.2029 106.125 45.3846 107.91 46.051 109.332C46.1803 109.623 46.3378 109.897 46.5115 110.152C46.6488 110.362 46.8023 110.552 46.9638 110.738C46.9679 110.746 46.976 110.75 46.98 110.75C47.1658 110.952 47.3637 111.141 47.5818 111.311C47.7918 111.477 48.0221 111.622 48.2604 111.743L65.7774 117.765L66.2177 116.077C65.9713 115.992 65.7612 115.883 65.5512 115.742L65.5391 115.738L62.8491 114.813C62.8653 114.857 62.8734 114.89 62.8895 114.934L49.262 110.249C47.4202 109.615 46.4186 107.179 47.0285 104.841L47.2183 104.114C47.8322 101.763 49.8356 100.365 51.6773 101L63.3055 104.998L63.3136 104.97L68.641 106.8L69.0894 105.083L54.6904 100.135L52.1337 99.2548C51.5238 99.0447 50.8978 98.9922 50.296 99.077C49.6942 99.1699 49.1005 99.388 48.5592 99.7354C47.3152 100.503 46.3095 101.888 45.8491 103.645Z" fill="#242450"/>
<path d="M47.2183 104.113L47.0285 104.84C46.4186 107.179 47.4203 109.614 49.2621 110.249L62.8895 114.934C62.8734 114.889 62.8613 114.857 62.8492 114.813L65.5391 115.738C64.1416 114.813 63.4429 112.708 63.976 110.669L64.1659 109.942C64.7798 107.591 66.7831 106.193 68.6289 106.828L68.637 106.799L63.3096 104.97L63.3015 104.998L51.6733 100.999C49.8356 100.369 47.8323 101.763 47.2183 104.113Z" fill="white"/>
<path d="M40.6792 130.46L40.4328 131.401C39.6452 134.422 40.9417 137.544 43.3247 138.364L60.9024 144.406C60.8822 144.362 60.866 144.309 60.8498 144.257L64.3274 145.452C62.5058 144.257 61.6132 141.551 62.2998 138.917L62.5462 137.976C63.3379 134.947 65.9107 133.154 68.2937 133.974L68.3018 133.937L61.4355 131.578L61.4274 131.615L46.4307 126.461C44.0477 125.637 41.4668 127.434 40.6792 130.46Z" fill="white"/>
<path d="M50.9584 93.3454L50.817 93.8907C50.3727 95.5992 51.0513 97.4571 52.4326 98.7617C52.578 98.895 52.7274 99.0323 52.889 99.1575C52.99 99.2383 53.0869 99.311 53.1919 99.3756C53.2808 99.4362 53.3777 99.5008 53.4706 99.5574C53.5675 99.6139 53.6604 99.6705 53.7614 99.727C53.8583 99.7836 53.9593 99.832 54.0603 99.8765C54.1613 99.9249 54.2622 99.9694 54.3632 100.014C54.3713 100.018 54.3713 100.018 54.3753 100.018C54.4763 100.062 54.5894 100.099 54.6904 100.135L54.5207 100.074C54.5732 100.099 54.6298 100.119 54.6904 100.139L69.0893 105.087L72.8132 106.367L73.1525 105.063C72.9021 104.978 72.6638 104.865 72.4457 104.735L72.4255 104.727L69.5538 103.738C69.5659 103.774 69.5821 103.802 69.6023 103.839L55.0337 98.8304C53.0546 98.1478 51.8267 96.1566 52.2872 94.3915L52.4285 93.8463C52.889 92.0893 54.8641 91.1967 56.8472 91.8793L69.2791 96.1525L69.2832 96.1323L74.9741 98.0872L75.3093 96.7947L65.846 93.5393C65.737 93.5191 65.64 93.4909 65.535 93.4545L56.6695 90.4051C54.0603 89.771 51.5642 91.015 50.9584 93.3454Z" fill="#9BD4E1"/>
<path d="M46.0227 112.636C46.1035 112.785 46.1762 112.943 46.2408 113.096C46.1762 112.935 46.0955 112.785 46.0227 112.636Z" fill="url(#paint0_linear)"/>
<path d="M46.7457 115.108C46.7619 115.281 46.7659 115.463 46.7659 115.637C46.7659 115.455 46.7579 115.281 46.7457 115.108Z" fill="url(#paint1_linear)"/>
<path d="M52.4246 93.8463L52.2832 94.3916C51.8228 96.1566 53.0506 98.1478 55.0297 98.8304L69.5983 103.839C69.5821 103.802 69.5619 103.774 69.5498 103.738L72.4215 104.727C70.8827 103.859 70.0062 102.159 70.4061 100.628L70.5474 100.082C71.0079 98.3255 72.991 97.437 74.958 98.1155L74.962 98.0953L69.2711 96.1404L69.2671 96.1607L56.8351 91.8874C54.8601 91.2008 52.885 92.0894 52.4246 93.8463Z" fill="white"/>
<path d="M2.38567 127.164C2.87842 127.757 3.39945 128.343 3.90028 129.014C5.46336 131.102 6.80428 133.509 8.72684 135.1C12.3054 138.061 16.2676 140.343 20.4722 141.882C23.6872 143.061 42.3432 148.582 42.6664 139.204C42.7471 136.922 41.491 135.137 39.9723 134.26C36.6079 132.322 34.0997 132.588 30.9937 129.7C29.992 128.767 22.944 120.657 22.0514 121.255C19.3695 123.092 21.0174 126.606 22.0393 128.206C22.1605 128.396 22.2897 128.646 22.1968 128.909C22.0797 129.244 21.7283 129.28 21.4658 129.252C16.3605 128.67 12.1276 127.858 7.71305 125.108C5.8834 123.969 4.13453 122.66 2.47855 121.198C2.1312 120.891 1.77574 120.572 1.33549 120.499C0.895245 120.427 0.349979 120.685 0.119759 121.239C-0.0498772 121.651 -0.00944901 122.111 0.0592117 122.523C0.422722 124.635 1.34361 125.912 2.38567 127.164Z" fill="#FFD3CB"/>
<path d="M98.7032 130.9C94.4259 134.668 89.983 138.15 85.3261 141.215C80.9196 144.111 75.887 147.803 71.0119 148.897C60.1027 151.337 49.3752 146.749 38.6961 144.992C38.8456 143.829 38.9102 142.645 38.9061 141.474C38.89 137.467 37.9974 133.517 36.402 130.048C38.583 130.116 40.752 130.286 42.9128 130.552C49.7346 131.401 56.8109 133.162 63.3258 130.367C68.4755 128.169 72.571 123.395 76.4928 118.767C83.5812 110.382 90.6656 102.005 97.754 93.616C101.425 89.2701 105.153 84.8716 109.277 81.2002C111.495 79.2252 113.825 77.4601 116.321 76.0182C118.434 74.7984 120.453 74.1886 122.396 72.884C124.678 71.3532 126.734 70.0971 129.464 71.1795C134.751 73.2717 136.867 80.3844 136.468 86.2368C135.462 100.858 121.164 108.463 113.159 116.86C108.494 121.748 103.711 126.518 98.7032 130.9Z" fill="#242450"/>
<path d="M130.736 80.732C129.836 83.7249 131.019 86.9197 132.186 89.7107C140.591 109.768 149.699 129.39 159.474 148.51C160.911 151.321 162.361 154.124 163.836 156.907C165.156 159.407 166.966 161.944 167.875 164.71C169.583 169.913 170.775 175.309 171.59 180.85C172.362 186.073 173.182 191.424 175.476 195.915C177.77 200.407 181.89 203.925 186.341 203.452C189.124 203.157 191.7 201.348 193.752 199.025C196.426 195.996 199.112 191.78 200.861 187.934C207.679 172.95 206.2 154.31 200.203 139.241C194.205 124.171 184.232 112.03 174.058 100.681C168.424 94.3918 162.64 88.2243 156.113 83.3048C152.046 80.2352 147.086 76.4547 142.28 75.2713C138.487 74.3383 132.239 75.7318 130.736 80.732Z" fill="#FFAC3D"/>
<defs>
<linearGradient id="paint0_linear" x1="23.1422" y1="40.9008" x2="61.0163" y2="159.443" gradientUnits="userSpaceOnUse">
<stop stop-color="#FF058B"/>
<stop offset="0.1624" stop-color="#E70587"/>
<stop offset="0.891" stop-color="#7F0575"/>
</linearGradient>
<linearGradient id="paint1_linear" x1="22.5425" y1="39.5695" x2="61.1382" y2="160.347" gradientUnits="userSpaceOnUse">
<stop stop-color="#FF058B"/>
<stop offset="0.1624" stop-color="#E70587"/>
<stop offset="0.891" stop-color="#7F0575"/>
</linearGradient>
</defs>
</svg>
