<svg width="188" height="460" viewBox="0 0 188 460" fill="none" xmlns="http://www.w3.org/2000/svg">
<path d="M176.197 112.17C174.387 115.976 173.254 121.085 169.877 123.806C167.924 125.377 165.416 124.674 163.384 123.667C157.577 120.79 160.034 115.048 160.107 109.792C160.233 101.437 154.691 91.6192 158.476 93.3596C162.256 95.087 164.317 101.727 164.317 101.727C164.317 101.727 164.317 101.727 167.807 91.936C171.301 82.1359 173.302 85.5299 173.302 85.5299C177.351 77.1143 178.349 83.6462 178.349 83.6462C180.459 83.2469 181.062 85.2738 181.149 87.3571C179.521 91.5541 178.284 96.0245 177.473 101.037C176.874 104.696 176.444 108.437 176.197 112.17Z" fill="#EE6E56"/>
<path d="M182.238 94.5574C181.843 99.0191 178.935 105.911 176.396 111.224C176.644 107.491 177.073 103.754 177.672 100.087C178.484 95.0695 179.721 90.6035 181.348 86.4065C181.435 88.3813 181.053 90.3995 181.053 90.3995C182.104 91.0852 182.412 92.5826 182.238 94.5574Z" fill="#EE6E56"/>
<path d="M130.425 120.208C128.533 116.02 126.71 111.801 125.008 107.522C123.524 103.789 122.6 99.1625 120.416 95.8336C117.808 91.8536 113.355 90.5212 108.902 90.7729C106.445 90.9118 103.924 91.2156 101.758 92.4265C93.6331 96.9794 95.226 109.041 97.995 116.445C100.308 122.63 104.284 128.185 107.622 133.806C115.117 146.427 123.068 158.358 131.323 170.437C134.739 175.437 144.722 186.27 148.767 175.641C152.573 165.633 146.154 153.684 142.052 144.93C138.198 136.705 134.192 128.554 130.451 120.269C130.447 120.256 130.438 120.234 130.425 120.208Z" fill="#80BAC8"/>
<path d="M159.422 116.124C158.866 116.97 158.337 117.86 157.842 118.772C156.583 121.076 155.52 123.455 154.661 125.295C151.991 130.998 149.704 136.879 147.122 142.625C143.962 149.661 138.42 156.332 136.805 164.005C135.538 170.025 137.773 177.269 143.22 179.682C144.005 180.029 144.843 180.272 145.694 180.281C148.098 180.311 150.16 178.532 151.77 176.674C157.529 170.016 160.472 161.297 163.276 152.825C164.964 147.725 166.11 142.46 167.677 137.322C169.174 132.408 171.027 127.673 171.253 122.435C171.266 122.131 171.266 121.797 171.275 121.48C166.943 120.612 163.007 118.837 159.422 116.124Z" fill="#80BAC8"/>
<path d="M132.092 299.723C129.843 303.182 128.172 307.314 126.796 310.938C119.848 329.253 114.167 349.622 111.059 369.231C107.739 390.185 101.949 411.049 97.2788 431.738C96.5887 434.798 96.1678 438.726 98.5071 440.484C99.8613 441.504 101.688 441.317 103.216 440.662C111.523 437.094 115.642 422.385 118.75 414.13C123.172 402.377 127.487 390.567 132.217 378.957C133.454 375.923 134.674 372.877 135.876 369.825C136.736 367.647 139.166 363.706 139.166 361.353C142.59 352.404 145.685 343.285 148.198 333.962C149.938 327.517 152.469 321.181 153.654 314.601C155.316 305.343 154.196 291.641 143.124 292.179C138.294 292.409 134.778 295.591 132.092 299.723Z" fill="#EE6E56"/>
<path d="M141.905 279.215C136.566 271.589 130.377 264.463 124.622 256.989C115.412 245.036 111.263 232.697 101.489 221.326C95.5427 214.412 82.7782 207.611 74.011 210.306C73.4555 210.471 72.8956 210.666 72.3488 210.909C70.1005 211.873 67.9434 226.625 66.3028 228.574C64.2456 231.039 63.1693 234.303 62.4835 237.567C59.9792 249.441 62.0451 248.617 66.1509 259.945C67.6744 264.12 69.4712 268.204 71.867 271.854C74.2628 275.504 77.2185 278.668 80.1307 281.837C87.6002 289.957 94.8787 298.277 101.775 306.936C107.105 313.629 110.851 318.212 111.706 327.114C112.491 335.26 111.389 343.485 110.039 351.501C107.148 368.797 101.389 385.294 98.0297 402.346C108.589 402.741 118.988 403.796 129.774 403.028C131.84 402.88 134.027 402.655 135.685 401.366C137.747 399.764 138.476 396.943 139.075 394.334C142.855 377.881 146.64 361.427 149.904 344.852C152.399 332.192 157.269 318.043 154.279 305.243C151.987 295.43 147.395 287.058 141.905 279.215Z" fill="#060634"/>
<path d="M40.7998 319.731C38.5863 323.22 36.9631 327.365 35.6264 331.011C28.8817 349.409 23.4217 369.843 20.5312 389.487C18.3741 404.135 14.9627 418.496 11.7597 432.919C9.41161 443.491 15.5009 458.938 24.1422 444.885C32.3973 431.456 35.9953 413.657 41.7894 398.961C42.9917 395.91 44.1809 392.85 45.3484 389.786C46.1861 387.594 48.5732 383.627 48.5471 381.275C51.8717 372.286 54.8664 363.129 57.2796 353.775C58.9462 347.309 61.4114 340.946 62.5182 334.349C64.0806 325.069 62.8046 311.385 51.7415 312.053C46.9195 312.344 43.443 315.564 40.7998 319.731Z" fill="#EE6E56"/>
<path d="M79.3105 247.684C75.8513 250.47 72.1405 252.51 68.894 254.19C64.0504 256.699 59.211 256.929 54.3804 258.391C50.4004 259.611 45.4657 265.522 42.8051 271.26C39.7887 277.753 38.7948 271.954 37.8486 279.558C36.82 287.87 35.6828 295.834 35.162 304.345C33.873 325.23 32.1499 346.159 29.8062 367.026C28.183 381.522 27.0285 396.231 26.1388 410.888C25.8176 410.814 25.4964 410.723 25.1752 410.615C23.1266 409.951 19.8238 409.413 18.2309 407.177C16.9202 405.359 17.5539 402.329 17.7318 399.352C20.6484 351.18 23.8558 316.311 29.8931 268.226C30.9087 260.132 32.0588 251.803 34.7367 244.598C36.5162 239.815 38.8859 235.74 41.4293 232.168C45.7825 226.031 50.8822 207.776 56.1382 206.07C58.5513 205.28 60.5738 204.36 62.8958 205.206C65.7213 206.218 68.3558 208.206 70.769 210.679C73.3861 213.362 75.834 230.141 77.34 234.794C78.5726 238.596 79.1108 243.062 79.3105 247.684Z" fill="#060634"/>
<path d="M78.3383 248.352C82.2185 245.353 85.1438 241.529 85.7123 236.655C84.0283 251.082 80.7775 252.436 78.59 267.136C76.7238 279.688 60.4827 411.166 62.9349 410.727C55.357 412.086 47.8051 412.45 40.3009 412.42C35.5354 412.407 30.7568 412.212 26.1432 410.888C27.0329 396.231 28.1874 381.522 29.8106 367.026C32.1543 346.158 33.8774 325.23 35.1664 304.345C35.6872 295.834 36.8244 287.87 37.853 279.558C38.7992 271.954 39.793 277.748 42.8095 271.26C45.4657 265.522 50.4005 259.611 54.3848 258.391C58.2519 257.219 70.3307 254.537 78.3383 248.352Z" fill="#242450"/>
<path d="M112.522 90.0133C113.568 91.2502 114.64 92.5002 115.69 93.7632C109.635 94.0583 103.581 94.0497 97.5307 93.7502C88.2687 93.2858 80.7037 90.3214 73.4209 84.8137C74.7794 83.1037 76.242 81.4588 77.8262 79.8659C78.3774 79.3104 78.9286 78.7722 79.4972 78.2427C83.3816 83.6375 89.8442 86.6713 96.3154 87.6088C101.025 88.2902 105.781 88.0168 110.521 87.4178C111.085 88.3423 111.81 89.1886 112.522 90.0133Z" fill="#80BAC8"/>
<path d="M122.087 117.352C121.597 109.939 120.403 94.8049 116.263 94.4794C116.068 94.245 115.881 93.9976 115.69 93.7676C109.635 94.0627 103.581 94.0541 97.5306 93.7546C88.2686 93.2902 80.6993 90.3258 73.4164 84.8181C66.8063 93.0688 62.7222 102.53 59.7145 113.103C53.1608 136.076 46.6158 159.048 40.0621 182.021C38.977 185.81 37.8963 189.608 37.1237 193.484C36.3252 197.485 35.8738 201.561 34.8972 205.519C33.5821 210.831 31.4338 229.329 30.4703 234.737C29.9321 237.771 27.8835 245.917 31.2211 247.805C32.0501 248.278 33.0483 248.291 33.9815 248.3C38.8425 248.309 43.7078 248.322 48.5732 248.344C59.1242 248.37 69.7881 248.383 80.07 245.913C87.5828 244.112 94.2407 240.822 100.495 236.182C104.618 233.122 111.146 230.887 114.201 226.656C115.764 224.49 116.245 221.708 116.671 219.039C120.117 197.381 122.921 175.545 123.455 153.575C123.719 142.669 123.42 131.736 122.339 120.876C122.27 120.225 122.196 118.971 122.087 117.352Z" fill="#64A0AE"/>
<path d="M110.399 78.6853C109.67 80.9509 109.028 83.4074 109.705 85.6774C109.887 86.2937 110.178 86.8753 110.512 87.4178C105.773 88.0167 101.016 88.2902 96.3066 87.6088C89.8398 86.6756 83.3729 83.6418 79.4884 78.2426C81.6542 76.1593 83.8894 74.1542 85.8598 71.8712C88.3424 68.998 90.4301 65.617 91.0854 61.8063C91.1505 61.407 91.2026 60.999 91.22 60.6041C94.831 59.1154 98.2467 57.1363 101.376 54.7405C101.615 55.1268 101.862 55.5087 102.109 55.8776C104.05 58.8463 106.081 61.9105 109.023 63.7811C110.599 64.7707 112.374 65.3913 114.132 65.9469C114.779 66.1422 115.417 66.3418 116.063 66.5371C113.485 70.1178 111.762 74.4146 110.399 78.6853Z" fill="#EE6E56"/>
<path d="M66.8107 453.496C67.618 454.794 68.0607 456.269 67.9175 457.684C56.9542 460.605 45.266 460.77 34.2289 458.14C30.3488 457.211 26.5164 455.944 22.5321 455.705C18.7952 455.497 15.08 456.208 11.3517 456.521C8.52193 456.768 5.5923 456.76 2.88402 455.974C2.84062 454.212 2.9361 452.459 3.15311 450.714C7.60181 451.239 12.2589 450.293 16.8117 450.076C26.486 449.603 35.9737 452.498 45.5438 454.069C52.5706 455.219 60.1095 455.562 66.8107 453.496Z" fill="#242450"/>
<path d="M64.3499 450.866C65.3221 451.547 66.1771 452.463 66.8064 453.496C60.1052 455.557 52.5706 455.219 45.5395 454.064C35.9694 452.497 26.4817 449.598 16.8074 450.071C12.2546 450.288 7.5975 451.239 3.1488 450.709C3.52206 447.697 4.26428 444.715 5.25384 441.816C9.69386 441.248 14.2988 441.591 18.7171 442.393C23.7127 443.314 28.9469 444.798 33.7298 443.097C36.5683 442.085 38.8903 440.063 41.464 438.518C42.0109 438.188 42.5795 437.88 43.1784 437.611C43.3737 437.901 43.5691 438.179 43.7774 438.457C46.5942 442.263 50.5003 445.254 54.897 446.998C58.074 448.257 61.5548 448.908 64.3499 450.866Z" fill="#242450"/>
<path d="M31.1994 427.897C33.5517 427.65 36.1255 428.774 37.9093 430.453C40.0794 432.485 41.4813 435.167 43.174 437.61C42.575 437.88 42.0064 438.188 41.4596 438.518C38.8902 440.063 36.5639 442.085 33.7254 443.096C28.9468 444.798 23.7126 443.313 18.7127 442.393C14.2944 441.59 9.68941 441.248 5.24939 441.816C5.90042 439.889 6.66425 437.988 7.48889 436.135C8.90379 432.979 10.514 429.924 12.1676 426.895C14.2032 427.185 16.1302 428.184 17.4931 429.733C18.8125 431.217 19.8671 433.314 21.8289 433.6C23.2959 433.817 24.6891 432.888 25.7091 431.816C26.729 430.753 27.5797 429.486 28.8253 428.691C29.5675 428.227 30.3747 427.967 31.1994 427.897Z" fill="#242450"/>
<path d="M151.167 448.995C151.974 450.293 152.417 451.769 152.273 453.183C141.31 456.104 129.622 456.269 118.585 453.639C114.705 452.71 110.872 451.443 106.888 451.204C103.151 450.996 99.4359 451.708 95.7077 452.02C92.8779 452.268 89.9483 452.259 87.24 451.473C87.1966 449.711 87.2921 447.958 87.5091 446.213C91.9578 446.738 96.6148 445.792 101.168 445.575C110.842 445.102 120.33 447.997 129.9 449.568C136.931 450.714 144.465 451.057 151.167 448.995Z" fill="#242450"/>
<path d="M148.71 446.365C149.682 447.046 150.537 447.962 151.167 448.995C144.465 451.057 136.931 450.718 129.9 449.563C120.33 447.997 110.842 445.097 101.168 445.571C96.6149 445.788 91.9579 446.738 87.5092 446.209C87.8824 443.196 88.6246 440.215 89.6141 437.315C94.0542 436.747 98.6591 437.09 103.077 437.893C108.073 438.813 113.307 440.297 118.09 438.596C120.929 437.585 123.251 435.562 125.824 434.017C126.371 433.687 126.94 433.379 127.539 433.11C127.734 433.401 127.929 433.678 128.138 433.956C130.954 437.763 134.861 440.753 139.257 442.498C142.434 443.752 145.911 444.403 148.71 446.365Z" fill="#242450"/>
<path d="M115.56 423.392C117.912 423.145 120.486 424.269 122.27 425.948C124.44 427.98 125.842 430.662 127.534 433.105C126.935 433.374 126.367 433.683 125.82 434.012C123.251 435.558 120.924 437.58 118.086 438.591C113.307 440.293 108.073 438.808 103.073 437.888C98.6547 437.085 94.0498 436.742 89.6097 437.311C90.2608 435.384 91.0247 433.483 91.8493 431.63C93.2642 428.474 94.8744 425.419 96.528 422.389C98.5635 422.68 100.491 423.678 101.853 425.228C103.173 426.712 104.227 428.809 106.189 429.095C107.656 429.312 109.049 428.383 110.069 427.311C111.089 426.248 111.94 424.981 113.186 424.186C113.928 423.722 114.735 423.466 115.56 423.392Z" fill="#242450"/>
<path d="M119.384 65.3567C118.581 65.8298 117.812 66.3767 117.096 66.9843C115.647 68.1865 114.397 69.5841 113.303 71.1075C112.656 70.9122 112.018 70.7125 111.372 70.5172C109.614 69.9617 107.839 69.341 106.263 68.3515C103.316 66.4808 101.285 63.4167 99.3492 60.448C99.1018 60.079 98.8501 59.6928 98.6157 59.3108C99.9916 58.2692 101.298 57.1321 102.552 55.9211C104.345 57.8395 106.354 59.5539 108.537 60.9818C111.827 63.1345 115.547 64.6362 119.384 65.3567Z" fill="#DD5744"/>
<path d="M116.983 41.2121C116.38 38.9986 115.664 36.7894 115.581 34.4848C115.495 31.9675 116.402 29.1984 118.515 27.9658C120.16 27.0153 122.17 27.1499 124.001 27.5795C130.199 29.0335 135.447 33.5039 141.627 35.0013C141.61 36.0776 141.588 37.167 141.571 38.2521C141.471 43.8292 141.375 49.5149 142.955 54.8359C143.389 56.2899 143.775 58.2213 142.534 59.0112C141.913 59.3975 141.154 59.2933 140.446 59.4105C138.94 59.6492 137.716 60.8818 137.013 62.2837C136.306 63.6943 136.028 65.2784 135.677 66.8192C134.908 70.2002 133.78 73.5031 132.335 76.6367C132.035 77.3008 131.701 77.9822 131.171 78.4813C129.835 79.7834 127.704 79.5533 125.933 79.0499C122.981 78.2122 120.186 76.8277 117.66 75.0352C114.44 72.7479 111.636 69.7966 109.475 66.4286C108.047 64.1934 106.884 61.7803 105.998 59.263C104.505 54.9748 103.793 50.3872 103.859 45.8257C103.898 43.7294 104.731 40.9994 106.732 41.0775C108.411 41.1557 109.227 43.1522 110 44.7059C111.133 46.9802 112.977 48.8552 115.169 50.0053C115.594 50.2267 116.111 50.4176 116.536 50.2136C116.875 50.0444 117.079 49.6755 117.213 49.3109C118.129 46.9715 117.786 44.3066 117.161 41.8631C117.109 41.6461 117.048 41.4378 116.983 41.2121Z" fill="#EE6E56"/>
<path d="M134.37 48.5342C133.875 49.0723 133.029 49.1157 132.478 48.634C131.927 48.1479 131.883 47.3189 132.378 46.7807C132.873 46.2425 133.719 46.1991 134.27 46.6809C134.822 47.167 134.865 47.996 134.37 48.5342Z" fill="#262651"/>
<path d="M129.865 63.4514C130.972 65.5998 133.033 67.0408 135.321 67.4791" stroke="#DC2B62" stroke-width="2.0684" stroke-miterlimit="10" stroke-linecap="round" stroke-linejoin="round"/>
<path d="M129.718 40.2921C132.408 39.6107 135.312 39.8928 137.816 41.0777" stroke="#9A6B60" stroke-width="2.2504" stroke-miterlimit="10" stroke-linecap="round" stroke-linejoin="round"/>
<path d="M79.7228 80.1524C79.3279 80.6298 78.972 81.1333 78.6768 81.6802C78.3383 82.3051 78.0692 82.9866 77.8913 83.6766C76.3548 84.0239 74.9226 84.6358 73.7247 85.4648C69.2717 88.5463 67.2925 93.7676 65.7778 98.8326C64.0894 104.453 62.757 110.182 61.7241 115.989C58.7337 116.688 55.8604 117.964 53.0697 119.119C48.1436 121.137 42.293 122.799 36.8895 120.464C31.4469 118.103 28.3436 112.265 28.1396 107.044C33.2003 102.904 38.2827 98.7588 43.3434 94.6183C49.0984 89.9222 54.9664 85.1523 62.1494 82.2878C67.4661 80.1698 73.6726 79.1759 79.7228 80.1524Z" fill="#242450"/>
<path d="M53.0567 161.028C51.5333 167.269 49.8796 173.48 48.0958 179.647C45.5004 188.618 42.3624 197.932 35.6438 204.169C30.9998 208.479 23.5303 212.737 17.7535 209.121C11.8856 205.449 7.36309 200.016 4.56367 193.514C1.85105 187.212 0.88319 180.58 0.336326 174.061C-0.583795 163.528 -0.0716334 151.97 7.78845 145.238C9.99761 143.341 12.8318 141.748 13.6477 138.992C14.5071 136.08 12.8274 132.799 12.363 129.661C11.1651 121.684 17.7014 115.577 23.7864 110.612C25.2404 109.423 26.69 108.242 28.144 107.049C28.348 112.265 31.4512 118.107 36.8938 120.468C42.2973 122.799 48.1479 121.137 53.074 119.123C55.8647 117.969 58.7336 116.692 61.7197 116.002C60.1312 120.034 60.3004 125.599 59.5019 129.895C58.4819 135.394 57.5227 140.898 56.3769 146.371C55.3526 151.275 54.2459 156.162 53.0567 161.028Z" fill="#060634"/>
<path d="M77.991 88.4291C82.3356 89.3102 86.0681 92.4829 88.3164 96.4498C90.5646 100.417 91.4369 105.108 91.4239 109.713C91.4109 114.318 90.5559 118.876 89.5533 123.363C93.6808 115.321 95.0089 105.76 93.2425 96.8318C92.3744 92.4568 90.7208 88.1253 87.7347 84.9179C84.7487 81.7105 80.2609 79.7965 76.0727 80.7687C73.0389 81.4718 67.9348 85.0134 67.7005 88.6722C67.5182 91.5714 69.8054 89.6444 71.1335 89.1019C73.2906 88.2078 75.7081 87.9691 77.991 88.4291Z" fill="#242450"/>
<path d="M76.6673 149.457C78.4034 155.637 78.9198 162.638 75.8644 168.237C74.3106 171.084 71.9539 173.349 69.6058 175.519C63.2735 181.37 56.6894 186.921 49.8796 192.151C46.0689 195.076 42.089 197.954 37.5361 199.308C36.412 199.642 34.9407 199.746 34.3418 198.705C34.0119 198.132 34.0857 197.407 34.1898 196.747C34.6586 193.718 35.4441 190.74 36.5248 187.885C37.9875 184.026 39.6715 183.028 43.365 182.607C46.4465 182.26 49.6843 178.484 52.0063 176.474C57.935 171.348 63.4861 165.754 68.5989 159.751C70.0485 158.05 71.4634 156.314 72.8436 154.552C73.3688 153.892 76.8669 150.168 76.6673 149.457Z" fill="#060634"/>
<path d="M114.93 96.4672C114.44 96.0983 113.576 96.2111 113.346 96.8231C112.969 95.8986 112.847 94.857 112.335 94.0323C111.805 93.2034 110.616 92.7043 109.87 93.3987C109.084 92.0185 107.192 91.515 105.799 92.344C105.668 91.3631 104.918 90.6861 104.219 90.0784C103.72 89.6531 103.182 89.1974 102.526 89.1236C101.814 89.0238 101.072 89.397 100.512 89.9439C100.308 90.1349 100.143 90.3432 99.9872 90.5732C99.6964 90.9725 99.4446 91.4022 99.1972 91.8492C98.5245 93.0732 97.8344 94.3362 97.4308 95.6512C97.9299 96.7537 98.2858 97.9429 98.5115 99.1581C98.2858 97.9429 97.9299 96.7537 97.4308 95.6512C96.5714 93.7459 95.3301 92.0749 93.6982 90.8857L93.6852 90.8814C94.2234 94.5618 94.449 98.3074 94.3622 102.066C94.3232 104.366 94.1626 106.701 94.6704 108.915C94.9395 110.069 95.3779 111.154 95.7511 112.248C96.7016 115.035 97.2615 117.986 97.166 120.985C97.1443 121.784 97.0705 122.582 96.9794 123.376C96.4238 124.961 95.8683 126.545 95.3171 128.133C94.6748 129.969 94.015 131.805 93.364 133.637L107.383 134.006C107.739 131.814 108.082 129.618 108.394 127.417C108.459 127.452 108.537 127.469 108.598 127.508C108.798 126.349 109.084 125.217 109.549 124.123C110.243 122.53 111.289 121.137 112.009 119.557C112.417 118.711 112.717 117.817 112.999 116.918C114.336 112.756 115.451 108.507 116.319 104.24C116.345 104.097 116.38 103.971 116.402 103.846C116.415 103.06 116.389 102.261 116.324 101.48C116.224 100.343 116.041 99.2232 115.777 98.1382C115.633 97.5045 115.434 96.8405 114.93 96.4672ZM114.67 106.072C114.201 106.684 113.754 107.313 113.268 107.908C113.75 107.313 114.201 106.688 114.67 106.072ZM98.8673 102.062C98.9498 102.643 99.1017 103.194 99.4924 103.576C99.4967 103.581 99.501 103.581 99.5053 103.585C99.501 103.581 99.4967 103.581 99.4924 103.576C99.1017 103.19 98.9498 102.643 98.8673 102.062ZM100.816 104.293C100.846 104.31 100.881 104.323 100.912 104.336C101.176 104.475 101.415 104.648 101.641 104.844C101.415 104.648 101.176 104.475 100.912 104.336C100.886 104.323 100.851 104.31 100.816 104.293ZM109.353 111.115C108.303 111.771 107.244 112.443 106.189 113.116C107.244 112.448 108.303 111.775 109.353 111.115C109.753 110.859 110.148 110.599 110.542 110.334C110.148 110.603 109.748 110.864 109.353 111.115Z" fill="#EE6E56"/>
<path d="M89.5403 127.89C90.0958 117.331 93.4855 89.2886 76.9494 89.2886C67.7221 89.2886 63.6293 100.695 62.6962 108.581C61.915 115.169 62.8871 122.022 63.2647 128.619C64.1154 143.428 65.6822 157.855 67.4487 172.568C68.1822 178.653 72.0363 193.119 80.4346 185.758C88.3424 178.827 88.1341 165.133 88.5117 155.407C88.8675 146.262 89.0498 137.109 89.5316 127.973C89.5403 127.942 89.5403 127.916 89.5403 127.89Z" fill="#80BAC8"/>
<path d="M94.2668 126.736C94.2277 126.831 94.1799 126.927 94.1409 127.022C93.1556 129.531 92.305 132.109 91.285 134.4C88.8285 139.938 85.4258 144.947 82.7305 150.355C79.2975 157.252 73.4946 163.679 71.5806 171.279C70.0789 177.242 72.0276 184.573 77.3747 187.216C78.1429 187.598 78.9719 187.876 79.8226 187.919C82.227 188.049 84.3538 186.365 86.0334 184.573C92.0533 178.167 95.3345 169.578 98.4681 161.231C101.576 152.955 103.507 144.253 106.606 135.972C107.101 134.652 107.569 133.311 107.921 131.944C103.329 130.355 99.0323 127.769 94.2668 126.736Z" fill="#80BAC8"/>
<path d="M145.976 31.3947C146.614 29.7844 148.949 30.4442 150.524 29.8496C150.793 29.7454 151.037 29.6065 151.245 29.4329C152.816 28.1308 152.677 25.0536 151.162 23.4521C149.439 21.6336 146.813 21.2169 144.383 20.8957C146.353 18.973 147.79 16.1866 147.343 13.4132C146.9 10.6399 144.027 8.30051 141.479 9.22931C139.752 9.86298 138.307 11.79 136.523 11.356C133.988 10.7397 134.574 6.72935 133.194 4.43339C131.449 1.53848 127.183 2.25896 124.305 3.90823C121.705 5.39257 118.871 7.60607 115.733 7.11129C112.17 6.55141 109.874 2.94036 106.94 1.12616C100.252 -3.01004 97.6478 5.46635 91.8493 6.98108C89.1063 7.69721 85.3607 6.75973 84.0587 9.37253C82.8695 11.7553 85.2305 14.5938 84.7227 17.2283C84.2583 19.6241 81.6976 20.8306 80.3261 22.8184C78.6508 25.249 78.9373 28.5345 79.2931 31.5032C79.8487 36.1255 81.0249 39.003 85.4215 40.0273C85.6602 40.0837 85.9554 40.1879 86.2548 40.2964C87.392 43.0177 88.8372 45.6001 89.74 48.4039C91.1288 52.6963 91.6106 57.6528 89.5186 61.7283C93.4031 61.9062 97.2962 61.5503 101.09 60.6953C102.756 60.3307 104.392 59.8446 106.011 59.2761C104.518 54.9879 103.807 50.4004 103.872 45.8388C103.911 43.7425 104.744 41.0125 106.745 41.0906C108.425 41.1688 109.24 43.1653 110.013 44.7191C111.146 46.989 112.99 48.8683 115.182 50.0184C115.608 50.2398 116.124 50.4307 116.549 50.2268C116.888 50.0575 117.092 49.6886 117.226 49.324C118.142 46.9846 117.799 44.3198 117.174 41.8762C117.122 41.6549 117.061 41.4466 116.996 41.2252C116.81 41.2773 116.614 41.2686 116.419 41.286C116.823 41.0907 117.235 40.9301 117.608 40.5438C119.006 39.0898 119.197 36.7939 120.13 35.0535C121.137 33.1741 122.708 31.425 123.928 29.6803C126.48 35.3442 134.162 37.6706 139.236 34.3113C140.29 36.3121 141.514 38.4735 143.576 39.2461C145.642 40.0186 148.524 38.2695 147.968 36.0604C147.525 34.3373 145.329 33.0266 145.976 31.3947ZM102.296 35.7609C101.971 35.7652 101.684 35.9085 101.376 35.9866C101.684 35.9085 101.971 35.7652 102.296 35.7609ZM92.4873 42.7486C93.3684 42.996 94.1844 43.1349 94.8311 43.0351C94.0889 43.2434 93.2946 43.1262 92.4873 42.7486ZM99.4143 37.0152C99.7702 36.7071 100.126 36.3946 100.53 36.1949C100.122 36.3946 99.7702 36.7071 99.4143 37.0152ZM98.2511 38.2912C98.4985 37.9527 98.7328 37.5925 99.0236 37.306C98.7328 37.5968 98.4985 37.9527 98.2511 38.2912ZM108.49 39.0681C107.331 38.4562 106.346 37.5274 105.269 36.8025C106.641 37.5708 108.103 38.6124 109.592 39.5803C109.214 39.411 108.824 39.2461 108.49 39.0681Z" fill="#242450"/>
<path fill-rule="evenodd" clip-rule="evenodd" d="M187.382 87.1837C187.819 86.376 187.64 85.4617 187.079 84.8784C186.714 84.4857 186.192 84.2221 185.581 84.2221L170.139 84.1997C169.365 84.1997 168.642 84.6372 168.305 85.3328L162.163 97.712C162.182 97.7438 162.201 97.776 162.219 97.8085L157.359 108.125C156.922 108.933 157.101 109.847 157.662 110.43C158.027 110.823 158.549 111.087 159.16 111.087L174.602 111.109C175.376 111.109 176.099 110.671 176.436 109.976L182.578 97.5967C182.559 97.5649 182.54 97.5327 182.522 97.5002L187.382 87.1837Z" fill="#060634"/>
</svg>
