<svg width="85" height="81" viewBox="0 0 85 81" fill="none" xmlns="http://www.w3.org/2000/svg">
<path d="M64.011 80.5805H74.9195C75.291 80.5805 75.6473 80.433 75.91 80.1702C76.1727 79.9075 76.3203 79.5512 76.3203 79.1797V70.6877L80.6952 65.2243C82.4803 62.9919 83.5987 60.3008 83.9216 57.4607C84.2445 54.6207 83.7589 51.7472 82.5206 49.171C81.2822 46.5948 79.3416 44.4207 76.922 42.8989C74.5024 41.3771 71.7023 40.5695 68.8439 40.5692H66.3518C63.5599 40.5753 60.8558 41.5453 58.6967 43.3152C56.5375 45.0851 55.0558 47.5463 54.5019 50.2827C54.3465 51.0628 54.2682 51.8562 54.268 52.6516V55.7335L50.7112 62.3203C50.5181 62.6823 50.4218 63.0881 50.4317 63.4983C50.4416 63.9085 50.5572 64.3091 50.7675 64.6615C50.9778 65.0138 51.2755 65.3058 51.6318 65.5092C51.9881 65.7126 52.391 65.8205 52.8013 65.8225H54.2624V71.9428C54.2631 72.7018 54.5648 73.4294 55.1014 73.9662C55.6379 74.503 56.3654 74.8051 57.1243 74.8062H62.6045V79.1797C62.6045 79.3641 62.6409 79.5467 62.7117 79.7171C62.7824 79.8874 62.8861 80.0421 63.0168 80.1722C63.1475 80.3024 63.3025 80.4055 63.4732 80.4755C63.6438 80.5456 63.8265 80.5813 64.011 80.5805ZM57.0697 71.9414V64.4202C57.0697 64.0487 56.9221 63.6924 56.6594 63.4297C56.3967 63.1669 56.0404 63.0194 55.6688 63.0194H53.5227L56.9016 56.7421C57.0117 56.5381 57.0695 56.3099 57.0697 56.0781V52.6432C57.0691 51.4241 57.3089 50.2168 57.7751 49.0904C58.2414 47.964 58.9251 46.9405 59.7871 46.0785C60.6492 45.2165 61.6726 44.5328 62.799 44.0665C63.9254 43.6002 65.1327 43.3605 66.3518 43.3611H68.8439C71.1753 43.3608 73.4594 44.0191 75.4331 45.2601C77.4068 46.5011 78.9898 48.2743 79.9999 50.3756C81.01 52.4768 81.406 54.8206 81.1424 57.1371C80.8788 59.4536 79.9662 61.6485 78.5099 63.469L73.8254 69.3204C73.6262 69.5688 73.5175 69.8776 73.5172 70.196V77.7788H65.4118V73.4039C65.4118 73.0324 65.2642 72.6761 65.0015 72.4134C64.7388 72.1507 64.3825 72.0031 64.011 72.0031L57.0697 71.9414Z" fill="#FCAA67"/>
<path d="M9.13221 80.5805H20.0407C20.4123 80.5805 20.7686 80.4329 21.0313 80.1702C21.294 79.9075 21.4416 79.5512 21.4416 79.1797V74.8048H26.9217C27.6807 74.8037 28.4082 74.5016 28.9447 73.9648C29.4812 73.428 29.783 72.7004 29.7837 71.9414V65.8211H31.2392C31.6495 65.8191 32.0523 65.7112 32.4087 65.5078C32.765 65.3044 33.0627 65.0124 33.273 64.6601C33.4832 64.3077 33.5989 63.9071 33.6088 63.4969C33.6186 63.0867 33.5224 62.6809 33.3293 62.3189L29.7781 55.7236V52.6418C29.7779 51.8464 29.6996 51.0529 29.5442 50.2729C28.9903 47.5365 27.5086 45.0753 25.3494 43.3054C23.1902 41.5355 20.4861 40.5655 17.6943 40.5593H15.2077C12.3494 40.5597 9.54926 41.3673 7.12968 42.8891C4.7101 44.4108 2.76945 46.585 1.53112 49.1611C0.2928 51.7373 -0.192852 54.6108 0.130075 57.4509C0.453002 60.2909 1.57138 62.9821 3.35646 65.2145L7.73135 70.6778V79.1797C7.73135 79.5512 7.87894 79.9075 8.14166 80.1702C8.40437 80.4329 8.76068 80.5805 9.13221 80.5805ZM5.54321 63.469C4.08683 61.6484 3.17429 59.4535 2.91068 57.1371C2.64707 54.8206 3.0431 52.4768 4.05318 50.3755C5.06325 48.2743 6.64629 46.5011 8.61998 45.2601C10.5937 44.0191 12.8777 43.3608 15.2091 43.361H17.7013C18.9204 43.3605 20.1276 43.6002 21.254 44.0665C22.3804 44.5328 23.4039 45.2164 24.266 46.0785C25.128 46.9405 25.8117 47.964 26.278 49.0904C26.7442 50.2168 26.9839 51.4241 26.9834 52.6432V56.0781C26.9836 56.3099 27.0414 56.5381 27.1515 56.7421L30.5304 63.0193H28.3828C28.0113 63.0193 27.655 63.1669 27.3923 63.4296C27.1296 63.6923 26.982 64.0487 26.982 64.4202L26.9217 72.0031H20.0407C19.6692 72.0031 19.3129 72.1506 19.0502 72.4134C18.7874 72.6761 18.6399 73.0324 18.6399 73.4039V77.7788H10.5331V70.1959C10.5328 69.8776 10.4241 69.5688 10.2249 69.3204L5.54321 63.469Z" fill="#FCAA67"/>
<path d="M54.2231 13.7496C54.0272 13.5538 53.7776 13.4204 53.5059 13.3664C53.2342 13.3124 52.9526 13.3401 52.6967 13.4461C52.4408 13.5521 52.222 13.7316 52.0681 13.9619C51.9141 14.1922 51.8319 14.463 51.8319 14.74V21.7444H49.0302V18.9426C49.0302 18.5711 48.8826 18.2148 48.6199 17.9521C48.3571 17.6894 48.0008 17.5418 47.6293 17.5418H32.2198V10.5375C32.2198 10.2604 32.1376 9.98966 31.9836 9.75934C31.8297 9.52903 31.6109 9.34952 31.355 9.24352C31.0991 9.13752 30.8175 9.10978 30.5457 9.1638C30.274 9.21783 30.0245 9.3512 29.8286 9.54706L15.8199 23.5557C15.5573 23.8184 15.4098 24.1746 15.4098 24.5461C15.4098 24.9175 15.5573 25.2738 15.8199 25.5365L29.8286 39.5451C30.0245 39.7409 30.274 39.8743 30.5457 39.9283C30.8175 39.9824 31.0991 39.9546 31.355 39.8486C31.6109 39.7426 31.8297 39.5631 31.9836 39.3328C32.1376 39.1025 32.2198 38.8317 32.2198 38.5547V31.5504H35.0215V34.3521C35.0215 34.7236 35.1691 35.0799 35.4318 35.3427C35.6946 35.6054 36.0509 35.753 36.4224 35.753H51.8319V42.7573C51.8319 43.0343 51.9141 43.3051 52.0681 43.5354C52.222 43.7657 52.4408 43.9452 52.6967 44.0512C52.9526 44.1572 53.2342 44.185 53.5059 44.1309C53.7776 44.0769 54.0272 43.9435 54.2231 43.7477L68.2318 29.7391C68.4944 29.4764 68.6419 29.1201 68.6419 28.7487C68.6419 28.3772 68.4944 28.0209 68.2318 27.7582L54.2231 13.7496ZM35.0215 23.1452V28.7487H30.819C30.4474 28.7487 30.0911 28.8962 29.8284 29.159C29.5657 29.4217 29.4181 29.778 29.4181 30.1495V35.173L18.7912 24.5461L29.4181 13.9191V18.9426C29.4181 19.3142 29.5657 19.6705 29.8284 19.9332C30.0911 20.1959 30.4474 20.3435 30.819 20.3435H46.2284V21.7444H36.4224C36.0509 21.7444 35.6946 21.8919 35.4318 22.1547C35.1691 22.4174 35.0215 22.7737 35.0215 23.1452ZM46.2284 24.5461V28.7487H37.8233V24.5461H46.2284ZM54.6336 39.3756V34.3521C54.6336 33.9806 54.486 33.6243 54.2233 33.3615C53.9606 33.0988 53.6043 32.9512 53.2327 32.9512H37.8233V31.5504H47.6293C48.0008 31.5504 48.3571 31.4028 48.6199 31.1401C48.8826 30.8774 49.0302 30.521 49.0302 30.1495V24.5461H53.2327C53.6043 24.5461 53.9606 24.3985 54.2233 24.1358C54.486 23.8731 54.6336 23.5167 54.6336 23.1452V18.1217L65.2605 28.7487L54.6336 39.3756Z" fill="#FCAA67"/>
<path d="M75.6465 0.731445C73.418 0.73367 71.2814 1.61993 69.7056 3.19572C68.1298 4.77151 67.2436 6.90811 67.2413 9.13661C67.2449 9.72458 67.313 10.3104 67.4445 10.8835C67.4517 11.0318 67.483 11.178 67.5369 11.3164L70.0431 17.8037V23.1452C70.0431 23.5168 70.1907 23.8731 70.4534 24.1358C70.7161 24.3985 71.0724 24.5461 71.4439 24.5461H79.8491C80.2206 24.5461 80.5769 24.3985 80.8397 24.1358C81.1024 23.8731 81.25 23.5168 81.25 23.1452V17.8037L83.7575 11.3164C83.8086 11.1817 83.8384 11.0399 83.8458 10.8961C83.9789 10.319 84.0479 9.72889 84.0517 9.13661C84.0495 6.90811 83.1632 4.77151 81.5874 3.19572C80.0116 1.61993 77.875 0.73367 75.6465 0.731445ZM78.4482 21.7444H72.8448V18.9426H78.4482V21.7444ZM81.0664 10.4758C81.0664 10.4982 81.0566 10.5207 81.0524 10.5417L78.8895 16.1451H77.0474V12.5183L79.4386 10.127L77.4578 8.1462L75.6465 9.95752L73.8352 8.1462L71.8544 10.127L74.2457 12.5183V16.1409H72.4035L70.2406 10.5375L70.2266 10.4744C70.1111 10.0376 70.0495 9.58836 70.0431 9.13661C70.0431 7.65049 70.6334 6.22523 71.6843 5.17438C72.7351 4.12353 74.1604 3.53317 75.6465 3.53317C77.1326 3.53317 78.5579 4.12353 79.6087 5.17438C80.6596 6.22523 81.25 7.65049 81.25 9.13661C81.2436 9.58883 81.182 10.0386 81.0664 10.4758Z" fill="#FCAA67"/>
<path d="M0.295582 11.3164L2.80172 17.8037V23.1452C2.80172 23.5168 2.94931 23.8731 3.21202 24.1358C3.47474 24.3985 3.83105 24.5461 4.20258 24.5461H12.6077C12.9793 24.5461 13.3356 24.3985 13.5983 24.1358C13.861 23.8731 14.0086 23.5168 14.0086 23.1452V17.8037L16.5161 11.3164C16.5673 11.1817 16.5971 11.0399 16.6044 10.8961C16.7375 10.319 16.8066 9.72889 16.8103 9.13661C16.8103 6.90742 15.9248 4.76954 14.3485 3.19326C12.7722 1.61699 10.6344 0.731445 8.40517 0.731445C6.17598 0.731445 4.03809 1.61699 2.46182 3.19326C0.885542 4.76954 3.32175e-08 6.90742 0 9.13661C0.00355738 9.72458 0.0716739 10.3104 0.203125 10.8835C0.210401 11.0318 0.241623 11.178 0.295582 11.3164ZM11.2069 21.7444H5.60344V18.9426H11.2069V21.7444ZM8.40517 3.53317C9.89129 3.53317 11.3165 4.12353 12.3674 5.17438C13.4182 6.22523 14.0086 7.65049 14.0086 9.13661C14.0023 9.58883 13.9407 10.0386 13.8251 10.4758C13.8251 10.4982 13.8153 10.5207 13.8111 10.5417L11.6482 16.1451H9.80603V12.5183L12.1973 10.127L10.2165 8.1462L8.40517 9.95752L6.59385 8.1462L4.61304 10.127L7.0043 12.5183V16.1409H5.16217L2.99924 10.5375L2.98523 10.4744C2.86977 10.0376 2.80814 9.58836 2.80172 9.13661C2.80172 7.65049 3.39208 6.22523 4.44293 5.17438C5.49378 4.12353 6.91904 3.53317 8.40517 3.53317Z" fill="#FCAA67"/>
</svg>
