<svg width="77" height="79" viewBox="0 0 77 79" fill="none" xmlns="http://www.w3.org/2000/svg">
<path d="M2.15686 35.5474V55.236C2.15824 56.5688 2.68822 57.8466 3.63054 58.7892C4.57286 59.7317 5.85057 60.2621 7.18339 60.2638H28.1741V70.6707H25.4592C24.1097 70.6724 22.816 71.2092 21.8617 72.1635C20.9075 73.1177 20.3706 74.4114 20.3689 75.7609V77.175C20.3689 77.52 20.506 77.8509 20.7499 78.0948C20.9939 78.3388 21.3248 78.4758 21.6698 78.4758H55.4922C55.8372 78.4758 56.1681 78.3388 56.412 78.0948C56.656 77.8509 56.793 77.52 56.793 77.175V75.7609C56.7913 74.4114 56.2545 73.1177 55.3002 72.1635C54.346 71.2092 53.0522 70.6724 51.7028 70.6707H48.9879V60.2638H69.9786C71.3114 60.2621 72.5891 59.7317 73.5314 58.7892C74.4737 57.8466 75.0037 56.5688 75.0051 55.236V35.5474H72.4034V51.1578H68.3356C68.0472 50.0408 67.3958 49.0513 66.4838 48.3449C65.5718 47.6384 64.4509 47.2551 63.2973 47.2551C62.1437 47.2551 61.0228 47.6384 60.1108 48.3449C59.1989 49.0513 58.5475 50.0408 58.2591 51.1578H4.75858V35.5474H2.15686ZM51.7028 73.2724C52.3625 73.2731 52.9951 73.5355 53.4617 74.002C53.9282 74.4686 54.1906 75.1011 54.1913 75.7609V75.8741H22.9706V75.7609C22.9713 75.1011 23.2337 74.4686 23.7003 74.002C24.1668 73.5355 24.7994 73.2731 25.4592 73.2724H51.7028ZM30.7758 70.6707V60.2638H46.3861V70.6707H30.7758ZM59.3947 53.7595C59.7398 53.7595 60.0706 53.6224 60.3146 53.3785C60.5586 53.1345 60.6956 52.8036 60.6956 52.4586C60.6956 51.7686 60.9697 51.1068 61.4576 50.6189C61.9455 50.131 62.6073 49.8569 63.2973 49.8569C63.9873 49.8569 64.6491 50.131 65.137 50.6189C65.6249 51.1068 65.899 51.7686 65.899 52.4586C65.899 52.8036 66.0361 53.1345 66.2801 53.3785C66.524 53.6224 66.8549 53.7595 67.1999 53.7595H72.4034V55.236C72.403 55.8791 72.1475 56.4958 71.6928 56.9506C71.2382 57.4055 70.6217 57.6614 69.9786 57.6621H7.18339C6.54028 57.6614 5.92372 57.4055 5.46909 56.9506C5.01447 56.4958 4.75893 55.8791 4.75858 55.236V53.7595H59.3947Z" fill="#FCAA67"/>
<path d="M62.3737 54.6831C62.6203 54.9249 62.9519 55.0604 63.2973 55.0604C63.6427 55.0604 63.9743 54.9249 64.2209 54.6831C64.3385 54.5587 64.4312 54.413 64.4941 54.2538C64.5607 54.0974 64.5961 53.9295 64.5981 53.7595C64.5931 53.4151 64.4584 53.0853 64.2209 52.8359C64.0361 52.6584 63.8039 52.5382 63.5523 52.4897C63.3007 52.4413 63.0405 52.4666 62.8029 52.5627C62.6437 52.6255 62.498 52.7183 62.3737 52.8359C62.1356 53.0849 62.0008 53.415 61.9964 53.7595C61.9919 53.9301 62.0276 54.0994 62.1005 54.2538C62.1633 54.413 62.2561 54.5587 62.3737 54.6831Z" fill="#FCAA67"/>
<path d="M1.71193 32.6231L9.3649 25.9275C9.94254 26.2599 10.5964 26.4369 11.2629 26.4414C11.3643 26.4414 11.4593 26.4193 11.5595 26.4114L13.7865 31.4237C13.3161 31.868 12.9636 32.4223 12.7606 33.0368C12.5577 33.6512 12.5107 34.3065 12.624 34.9436C12.7372 35.5807 13.0071 36.1796 13.4093 36.6865C13.8115 37.1934 14.3335 37.5923 14.9282 37.8474C15.5229 38.1024 16.1717 38.2056 16.8161 38.1476C17.4606 38.0896 18.0806 37.8722 18.6202 37.5151C19.1598 37.158 19.6021 36.6723 19.9074 36.1017C20.2126 35.5311 20.3712 34.8936 20.3689 34.2465C20.3628 34.0883 20.3467 33.9306 20.3207 33.7743L24.5147 31.676C23.8692 35.331 24.6703 39.0939 26.7486 42.169C28.8269 45.2441 32.0197 47.3905 35.6518 48.1544C39.2839 48.9184 43.0707 48.2399 46.2117 46.2626C49.3528 44.2852 51.6017 41.1639 52.4832 37.5585L56.858 40.0588C56.7312 40.7357 56.7857 41.4342 57.0162 42.0833C57.2466 42.7324 57.6447 43.3089 58.1701 43.7543C58.6954 44.1997 59.3293 44.4981 60.0073 44.6193C60.6853 44.7405 61.3833 44.68 62.0304 44.4441C62.6775 44.2082 63.2507 43.8053 63.6917 43.2762C64.1326 42.7471 64.4258 42.1108 64.5412 41.4318C64.6567 40.7528 64.5904 40.0553 64.349 39.4102C64.1077 38.7651 63.7 38.1954 63.1672 37.7589L65.8652 30.344H65.899C66.9081 30.3428 67.8771 29.949 68.6009 29.246L75.7244 32.8156L76.8874 30.487L69.7535 26.9201C69.7797 26.7617 69.7958 26.6018 69.8016 26.4414C69.8063 25.782 69.6439 25.1321 69.3295 24.5525C69.0151 23.9729 68.559 23.4824 68.0036 23.1268C67.4483 22.7712 66.812 22.5621 66.154 22.5191C65.496 22.476 64.8378 22.6004 64.2409 22.8805C63.644 23.1607 63.1278 23.5876 62.7405 24.1213C62.3532 24.655 62.1075 25.2781 62.0263 25.9325C61.945 26.5869 62.0309 27.2512 62.2759 27.8634C62.521 28.4756 62.9171 29.0157 63.4274 29.4333L60.7294 36.8483C60.7177 36.8483 60.7073 36.8483 60.6956 36.8483C59.764 36.8521 58.8651 37.1921 58.1641 37.8057L52.8631 34.7773C52.8696 34.5991 52.8904 34.4261 52.8904 34.2465C52.8848 31.0789 51.8292 28.0026 49.8886 25.499C47.9481 22.9954 45.2322 21.2059 42.1661 20.4106C43.5994 19.8404 45.1682 19.7019 46.6792 20.0124C48.1903 20.3228 49.5774 21.0685 50.6698 22.1576C50.8518 22.3395 51.0835 22.4634 51.3358 22.5135C51.5881 22.5637 51.8497 22.5379 52.0873 22.4395C52.325 22.3411 52.5281 22.1744 52.6711 21.9605C52.814 21.7466 52.8904 21.4952 52.8904 21.2379V10.831H69.881C70.5498 10.8321 71.191 11.0983 71.6639 11.5714C72.1367 12.0445 72.4026 12.6858 72.4033 13.3547V25.1405H75.005V13.3547C75.0033 11.9961 74.463 10.6937 73.5024 9.73287C72.5419 8.77208 71.2395 8.23138 69.881 8.22931H52.8904V4.41909C52.8903 4.07411 52.7532 3.74328 52.5093 3.49938C50.6888 1.68372 48.2658 0.598504 45.699 0.449152C43.1322 0.299799 40.5997 1.09668 38.5809 2.68895C36.5622 1.09668 34.0297 0.299799 31.4629 0.449152C28.8961 0.598504 26.4731 1.68372 24.6526 3.49938C24.4086 3.74328 24.2715 4.07411 24.2715 4.41909V8.22931H7.28092C5.92233 8.23138 4.62 8.77208 3.65946 9.73287C2.69892 10.6937 2.15855 11.9961 2.15683 13.3547V23.8396H4.75855V13.3547C4.75924 12.6858 5.02517 12.0445 5.49802 11.5714C5.97087 11.0983 6.61204 10.8321 7.28092 10.831H24.2715V21.2379C24.2715 21.4952 24.3478 21.7466 24.4908 21.9605C24.6337 22.1744 24.8369 22.3411 25.0745 22.4395C25.3122 22.5379 25.5737 22.5637 25.826 22.5135C26.0783 22.4634 26.3101 22.3395 26.492 22.1576C27.5844 21.0685 28.9716 20.3228 30.4826 20.0124C31.9936 19.7019 33.5625 19.8404 34.9958 20.4106C32.957 20.9435 31.0607 21.9192 29.4419 23.2682C27.8231 24.6173 26.5214 26.3065 25.6296 28.2157L19.1734 31.4445C18.4487 30.7393 17.4775 30.3444 16.4663 30.344C16.3648 30.344 16.2686 30.3661 16.1684 30.3739L13.9413 25.363C14.4578 24.876 14.8316 24.2575 15.0227 23.5739C15.2137 22.8903 15.2147 22.1676 15.0256 21.4835C14.8365 20.7994 14.4643 20.1798 13.9492 19.6914C13.4342 19.2031 12.7957 18.8644 12.1025 18.712C11.4093 18.5595 10.6876 18.599 10.0151 18.8261C9.3427 19.0533 8.74493 19.4595 8.28619 20.0011C7.82745 20.5428 7.5251 21.1992 7.41169 21.8999C7.29828 22.6005 7.3781 23.3189 7.64256 23.9775L0 30.6666L1.71193 32.6231ZM65.899 25.1405C66.1563 25.1405 66.4078 25.2168 66.6217 25.3597C66.8357 25.5027 67.0024 25.7058 67.1009 25.9436C67.1993 26.1813 67.2251 26.4428 67.1749 26.6952C67.1247 26.9475 67.0008 27.1793 66.8189 27.3612C66.6369 27.5431 66.4051 27.667 66.1528 27.7172C65.9005 27.7674 65.6389 27.7417 65.4012 27.6432C65.1635 27.5447 64.9603 27.378 64.8174 27.1641C64.6744 26.9502 64.5982 26.6987 64.5982 26.4414C64.5982 26.0964 64.7352 25.7655 64.9792 25.5215C65.2231 25.2776 65.554 25.1405 65.899 25.1405ZM60.6956 39.45C60.9529 39.45 61.2044 39.5263 61.4183 39.6692C61.6322 39.8121 61.799 40.0153 61.8974 40.253C61.9959 40.4907 62.0216 40.7523 61.9714 41.0046C61.9212 41.257 61.7974 41.4888 61.6154 41.6707C61.4335 41.8526 61.2017 41.9765 60.9494 42.0267C60.697 42.0769 60.4355 42.0511 60.1978 41.9527C59.9601 41.8542 59.7569 41.6875 59.6139 41.4736C59.471 41.2596 59.3947 41.0081 59.3947 40.7508C59.3947 40.4058 59.5318 40.0749 59.7757 39.831C60.0197 39.587 60.3506 39.45 60.6956 39.45ZM38.5809 45.9543C36.1774 45.9501 33.8333 45.2068 31.8665 43.8253C29.8996 42.4437 28.4053 40.4907 27.5861 38.2311L29.5374 37.0343L31.1062 37.8148L32.2119 40.0263C32.3194 40.2437 32.4854 40.4267 32.6914 40.5548C32.8973 40.6828 33.135 40.7507 33.3775 40.7508H35.9792V42.0517C35.9792 42.3967 36.1163 42.7276 36.3602 42.9715C36.6042 43.2155 36.9351 43.3526 37.2801 43.3526H40.514L42.0087 45.4339C40.8983 45.7765 39.743 45.9519 38.5809 45.9543ZM49.3026 29.5634C50.054 31.2679 50.384 33.1281 50.2649 34.987C50.1459 36.8459 49.5811 38.6489 48.6184 40.2435L47.687 39.8689V37.1553L48.8577 34.828C49.0113 34.5194 49.0361 34.1624 48.9267 33.8355L47.9029 30.7641L49.3026 29.5634ZM39.8818 4.97716C41.3231 3.71848 43.1717 3.02488 45.0852 3.02488C46.9988 3.02488 48.8474 3.71848 50.2887 4.97716V18.6219C48.7024 17.721 46.9095 17.2474 45.0852 17.2474C43.261 17.2474 41.4681 17.721 39.8818 18.6219V4.97716ZM32.0766 17.243C30.2523 17.2413 28.459 17.7147 26.8732 18.6167V4.97716C28.3145 3.71848 30.1631 3.02488 32.0766 3.02488C33.9902 3.02488 35.8388 3.71848 37.2801 4.97716V18.6219C35.6943 17.7199 33.901 17.2465 32.0766 17.2482V17.243ZM38.5809 22.5388C40.4655 22.5387 42.3218 22.9967 43.9899 23.8735L41.7615 25.359C41.5737 25.4854 41.4214 25.6579 41.3192 25.8599L40.0184 28.4616C39.9284 28.6422 39.8816 28.8413 39.8818 29.0431V32.9457H37.5871L35.9792 32.1417V30.344C35.9793 30.1022 35.9121 29.8652 35.785 29.6596C35.6579 29.4539 35.4761 29.2877 35.2598 29.1797L33.8224 28.4616L34.5418 27.0229C34.622 26.8623 34.6682 26.687 34.6774 26.5078C34.6865 26.3285 34.6586 26.1494 34.5951 25.9815C34.5317 25.8136 34.4343 25.6607 34.3089 25.5323C34.1835 25.4039 34.0329 25.3028 33.8666 25.2355L32.0857 24.5135C34.0062 23.2238 36.2676 22.5363 38.5809 22.5388ZM29.8899 26.431L31.581 27.1178L30.9085 28.4616C30.832 28.6145 30.7865 28.7809 30.7744 28.9514C30.7623 29.1219 30.784 29.2931 30.8381 29.4553C30.8922 29.6174 30.9777 29.7673 31.0898 29.8963C31.2019 30.0254 31.3383 30.1311 31.4912 30.2074L33.3775 31.1479V32.9457C33.3774 33.1874 33.4446 33.4244 33.5717 33.6301C33.6988 33.8357 33.8806 34.0019 34.0969 34.1099L36.6986 35.4108C36.8792 35.5008 37.0783 35.5476 37.2801 35.5474H41.1827C41.5277 35.5474 41.8585 35.4103 42.1025 35.1664C42.3465 34.9224 42.4835 34.5915 42.4835 34.2465V29.3501L43.4917 27.3325L46.2963 25.4631C46.9159 26.0099 47.4762 26.6203 47.9679 27.2843L45.5418 29.3553C45.3449 29.5233 45.2026 29.7462 45.1331 29.9956C45.0635 30.2449 45.07 30.5094 45.1516 30.755L46.2807 34.1464L45.2205 36.2668C45.131 36.4475 45.0846 36.6466 45.0852 36.8483V40.7508C45.0851 41.011 45.1631 41.2652 45.3089 41.4806C45.4548 41.6961 45.6619 41.8628 45.9035 41.9593L46.9767 42.3873C46.2242 43.1607 45.3689 43.8269 44.4348 44.3672L42.2351 41.2946C42.1152 41.1271 41.9573 40.9905 41.7743 40.896C41.5914 40.8014 41.3886 40.7517 41.1827 40.7508H38.5809V39.45C38.5809 39.105 38.4439 38.7741 38.1999 38.5301C37.956 38.2862 37.6251 38.1491 37.2801 38.1491H34.1814L33.2474 36.2668C33.1214 36.0145 32.9169 35.8099 32.6646 35.684L30.0629 34.3831C29.8654 34.2845 29.6461 34.2378 29.4256 34.2474C29.205 34.2569 28.9906 34.3225 28.8024 34.4378L26.959 35.5669C26.906 35.1287 26.8774 34.6879 26.8732 34.2465C26.8739 31.3572 27.9492 28.5715 29.8899 26.431ZM16.4663 32.9457C16.7236 32.9457 16.9751 33.022 17.189 33.1649C17.4029 33.3078 17.5697 33.511 17.6681 33.7487C17.7666 33.9864 17.7924 34.248 17.7422 34.5003C17.692 34.7527 17.5681 34.9845 17.3861 35.1664C17.2042 35.3483 16.9724 35.4722 16.7201 35.5224C16.4677 35.5726 16.2062 35.5468 15.9685 35.4484C15.7308 35.3499 15.5276 35.1832 15.3847 34.9693C15.2417 34.7553 15.1654 34.5038 15.1654 34.2465C15.1654 33.9015 15.3025 33.5706 15.5465 33.3267C15.7904 33.0827 16.1213 32.9457 16.4663 32.9457ZM11.2629 21.2379C11.5201 21.2379 11.7716 21.3142 11.9856 21.4572C12.1995 21.6001 12.3662 21.8033 12.4647 22.041C12.5632 22.2787 12.5889 22.5402 12.5387 22.7926C12.4885 23.0449 12.3646 23.2767 12.1827 23.4586C12.0008 23.6406 11.769 23.7645 11.5166 23.8146C11.2643 23.8648 11.0027 23.8391 10.765 23.7406C10.5273 23.6422 10.3242 23.4754 10.1812 23.2615C10.0383 23.0476 9.96199 22.7961 9.96199 22.5388C9.96199 22.1938 10.099 21.8629 10.343 21.6189C10.587 21.375 10.9178 21.2379 11.2629 21.2379Z" fill="#FCAA67"/>
<path d="M55.4921 18.6362H63.2973V21.238H55.4921V18.6362Z" fill="#FCAA67"/>
<path d="M65.899 18.6362H68.5008V21.238H65.899V18.6362Z" fill="#FCAA67"/>
<path d="M52.8904 23.8397H59.3947V26.4414H52.8904V23.8397Z" fill="#FCAA67"/>
<path d="M55.4921 29.0431H59.3947V31.6448H55.4921V29.0431Z" fill="#FCAA67"/>
<path d="M67.1999 34.2466H69.8016V36.8483H67.1999V34.2466Z" fill="#FCAA67"/>
<path d="M67.1999 39.45H69.8016V42.0517H67.1999V39.45Z" fill="#FCAA67"/>
<path d="M50.2887 44.6534H56.793V47.2552H50.2887V44.6534Z" fill="#FCAA67"/>
<path d="M7.36029 45.9543H20.3689V48.556H7.36029V45.9543Z" fill="#FCAA67"/>
<path d="M22.9706 45.9543H25.5723V48.556H22.9706V45.9543Z" fill="#FCAA67"/>
<path d="M7.36029 40.7509H22.9706V43.3526H7.36029V40.7509Z" fill="#FCAA67"/>
<path d="M7.36029 35.5474H9.96201V38.1491H7.36029V35.5474Z" fill="#FCAA67"/>
<path d="M7.36029 30.344H9.96201V32.9457H7.36029V30.344Z" fill="#FCAA67"/>
<path d="M17.7672 25.1405H22.9706V27.7422H17.7672V25.1405Z" fill="#FCAA67"/>
<path d="M17.7672 19.9371H21.6697V22.5388H17.7672V19.9371Z" fill="#FCAA67"/>
</svg>
