<svg width="390" height="344" viewBox="0 0 390 344" fill="none" xmlns="http://www.w3.org/2000/svg">
<path d="M134.769 326.516C133.639 326.516 132.722 325.599 132.722 324.469V283.525C132.722 282.395 133.639 281.478 134.769 281.478C135.899 281.478 136.816 282.395 136.816 283.525V324.469C136.816 325.599 135.899 326.516 134.769 326.516Z" fill="#563955"/>
<path d="M187.994 326.516C187.558 326.516 187.115 326.378 186.749 326.088L133.516 285.144C132.623 284.457 132.455 283.166 133.142 282.272C133.829 281.379 135.12 281.211 136.014 281.898L189.246 322.842C190.14 323.529 190.308 324.82 189.62 325.714C189.216 326.241 188.612 326.516 187.994 326.516Z" fill="#563955"/>
<path d="M81.5441 326.516C80.9331 326.516 80.3221 326.241 79.9174 325.714C79.23 324.82 79.398 323.53 80.2916 322.842L133.524 281.898C134.418 281.211 135.708 281.379 136.396 282.273C137.083 283.166 136.915 284.457 136.021 285.144L82.789 326.088C82.4148 326.378 81.9794 326.516 81.5441 326.516Z" fill="#563955"/>
<path d="M134.769 283.128C133.639 283.128 132.722 282.212 132.722 281.081V123.439C132.722 122.308 133.639 121.392 134.769 121.392C135.899 121.392 136.816 122.308 136.816 123.439V281.081C136.816 282.212 135.899 283.128 134.769 283.128Z" fill="#563955"/>
<path d="M140.566 273.849H128.964C126.268 273.849 124.077 276.033 124.077 278.737V287.588C124.077 287.993 124.405 288.314 124.802 288.314H144.713C145.117 288.314 145.438 287.985 145.438 287.588V278.737C145.454 276.033 143.269 273.849 140.566 273.849Z" fill="#674B67"/>
<path d="M14.8164 48.2333C14.9844 48.1951 15.1524 48.1646 15.3205 48.134C15.1524 48.1646 14.9844 48.1951 14.8164 48.2333Z" fill="#E9E6EC"/>
<path d="M12.6169 49.2033C12.8079 49.0735 13.0064 48.9437 13.2203 48.8291C13.0064 48.9437 12.8079 49.0735 12.6169 49.2033Z" fill="#E9E6EC"/>
<path d="M12.0518 49.6461C12.174 49.5392 12.3038 49.4323 12.4413 49.333C12.3038 49.4399 12.174 49.5392 12.0518 49.6461Z" fill="#E9E6EC"/>
<path d="M10.1042 52.6403C10.1348 52.541 10.1653 52.4494 10.2035 52.3501C10.173 52.4494 10.1348 52.5487 10.1042 52.6403Z" fill="#E9E6EC"/>
<path d="M14.0833 48.4548C14.2436 48.3937 14.404 48.3479 14.5644 48.2944C14.404 48.3403 14.2436 48.3937 14.0833 48.4548Z" fill="#E9E6EC"/>
<path d="M11.5171 50.1654C11.6317 50.0432 11.7462 49.921 11.8608 49.8141C11.7462 49.9286 11.6317 50.0432 11.5171 50.1654Z" fill="#E9E6EC"/>
<path d="M10.593 51.4564C10.6923 51.2654 10.8069 51.0898 10.9214 50.9141C10.9291 50.9065 10.9291 50.8989 10.9367 50.8912C11.0665 50.6926 11.2193 50.5093 11.372 50.326C11.3491 50.349 11.3338 50.3719 11.3109 50.3872C10.9138 50.8607 10.5854 51.3953 10.341 51.9757C10.3333 51.9986 10.3257 52.0292 10.3104 52.0521C10.3715 51.9146 10.4326 51.7772 10.5014 51.6473C10.5319 51.5862 10.5625 51.5251 10.593 51.4564Z" fill="#E9E6EC"/>
<path d="M259.701 55.2826C259.701 51.7389 256.798 48.8519 253.224 48.8519H16.3134C16.0614 48.8519 15.8093 48.8748 15.5573 48.8978C15.4809 48.9054 15.4045 48.9207 15.3282 48.9359C15.1602 48.9589 14.9845 48.9894 14.8241 49.0352C14.7401 49.0581 14.6561 49.0734 14.5721 49.0963C14.4117 49.1421 14.2437 49.1956 14.0909 49.2491C14.0222 49.272 13.9458 49.2949 13.8771 49.3254C13.6556 49.4171 13.4341 49.5164 13.2279 49.6233C13.2279 49.6233 13.2279 49.6233 13.2203 49.6309C13.0141 49.7455 12.8155 49.8677 12.6169 50.0052C12.5558 50.051 12.5024 50.0968 12.4413 50.135C12.3114 50.2343 12.1816 50.3336 12.0517 50.4481C11.9906 50.5016 11.9295 50.5551 11.8685 50.6162C11.7463 50.7307 11.6317 50.8453 11.5171 50.9675C11.4713 51.0209 11.4178 51.0744 11.372 51.1279C11.2193 51.3112 11.0742 51.4945 10.9367 51.693C10.9291 51.7007 10.9291 51.7007 10.9291 51.7083C10.8069 51.884 10.6999 52.0673 10.6006 52.2582C10.5625 52.3193 10.5396 52.388 10.5014 52.4568C10.4326 52.5866 10.3715 52.7241 10.3104 52.8615C10.3028 52.8845 10.2875 52.9074 10.2799 52.9226C10.2493 52.999 10.2264 53.0754 10.2035 53.1518C10.173 53.2511 10.1348 53.3427 10.1042 53.442C10.0737 53.5489 10.0508 53.6482 10.0278 53.7551C10.0049 53.8544 9.97439 53.9537 9.95911 54.0606C9.95147 54.0835 9.95147 54.1064 9.94384 54.1293C9.92092 54.2363 9.91329 54.3508 9.89801 54.4578C9.89038 54.5265 9.8751 54.5876 9.86746 54.6563C9.84455 54.8625 9.83691 55.0687 9.83691 55.2826V207.953C9.83691 211.505 12.7391 214.384 16.3134 214.384H253.224C256.798 214.384 259.701 211.505 259.701 207.953V55.2826Z" fill="white"/>
<path d="M15.5574 48.1036C15.8018 48.073 16.0538 48.0578 16.3135 48.0578C16.0538 48.0501 15.8018 48.073 15.5574 48.1036Z" fill="#E9E6EC"/>
<path d="M9.89038 53.6558C9.88274 53.7092 9.86746 53.7703 9.86746 53.8238C9.84455 54.0376 9.83691 54.2591 9.83691 54.4806C9.83691 54.2668 9.85219 54.0605 9.86746 53.8543C9.86746 53.7932 9.88274 53.7245 9.89038 53.6558Z" fill="#E9E6EC"/>
<path d="M9.95154 53.2586C9.97445 53.1593 9.99736 53.06 10.0203 52.9531C9.99736 53.0524 9.97445 53.1517 9.95154 53.2586Z" fill="#E9E6EC"/>
<path d="M13.2202 48.8291C13.4264 48.7145 13.6479 48.6153 13.8694 48.5312C13.6479 48.6153 13.4341 48.7145 13.2202 48.8291Z" fill="#E9E6EC"/>
<path d="M9.89032 54.4578C9.9056 54.3432 9.91323 54.2363 9.93615 54.1294C9.94378 54.1065 9.94378 54.0836 9.95142 54.0606C9.97433 53.9614 9.99725 53.8621 10.0202 53.7552C10.0431 53.6482 10.066 53.5489 10.0965 53.442C10.1271 53.3427 10.1653 53.2511 10.1958 53.1518C10.2264 53.0754 10.2493 52.9991 10.2722 52.9227C10.2798 52.8998 10.2951 52.8769 10.3027 52.8616C10.3638 52.7241 10.4249 52.5943 10.4937 52.4568C10.5242 52.3881 10.5548 52.327 10.593 52.2582C10.6922 52.0673 10.8068 51.884 10.9214 51.7083C10.9214 51.7007 10.929 51.7007 10.929 51.6931C11.0588 51.4945 11.2116 51.3112 11.3643 51.1279C11.4102 51.0744 11.4636 51.021 11.5094 50.9675C11.624 50.8453 11.7386 50.7231 11.8608 50.6162C11.9219 50.5627 11.983 50.5016 12.0441 50.4482C12.1663 50.3413 12.2961 50.2343 12.4336 50.135C12.4947 50.0892 12.5481 50.0434 12.6092 50.0052C12.8002 49.8754 12.9987 49.7455 13.2126 49.631C13.2126 49.631 13.2126 49.631 13.2202 49.6233C13.4264 49.5088 13.6479 49.4095 13.8694 49.3255C13.9381 49.2949 14.0069 49.272 14.0832 49.2491C14.2436 49.188 14.404 49.1422 14.5644 49.0964C14.6484 49.0735 14.7324 49.0505 14.8164 49.0353C14.9844 48.9971 15.1525 48.9665 15.3205 48.936C15.3969 48.9207 15.4732 48.9131 15.5496 48.8978C15.794 48.8672 16.046 48.852 16.3057 48.852H253.217C256.791 48.852 259.693 51.7313 259.693 55.2826V54.4807C259.693 50.9293 256.791 48.05 253.217 48.05H16.3133C16.0613 48.05 15.8093 48.073 15.5572 48.0959C15.4809 48.1035 15.4045 48.1188 15.3281 48.1264C15.1601 48.1493 14.9844 48.1875 14.8241 48.2257C14.74 48.2486 14.656 48.2639 14.572 48.2868C14.4116 48.3326 14.2436 48.3861 14.0909 48.4472C14.0221 48.4701 13.9458 48.493 13.877 48.5236C13.6555 48.6152 13.4341 48.7145 13.2278 48.8214C13.2278 48.8214 13.2278 48.8214 13.2202 48.8214C13.014 48.936 12.8154 49.0582 12.6169 49.1957C12.5558 49.2415 12.4947 49.2873 12.4412 49.3255C12.3114 49.4248 12.1815 49.5241 12.0517 49.6386C11.9906 49.6921 11.9295 49.7455 11.8684 49.8066C11.7462 49.9212 11.6316 50.0358 11.5247 50.158C11.4789 50.2114 11.4254 50.2649 11.3796 50.3183C11.2269 50.5016 11.0817 50.6849 10.9443 50.8835C10.9366 50.8911 10.9366 50.8988 10.929 50.9064C10.8068 51.0821 10.6999 51.2654 10.6006 51.4487C10.5624 51.5098 10.5395 51.5785 10.5013 51.6472C10.4326 51.7771 10.3715 51.9145 10.3104 52.052C10.2722 52.1513 10.234 52.2506 10.2035 52.3422C10.1653 52.4415 10.1347 52.5332 10.1042 52.6325C10.0736 52.7317 10.0507 52.8387 10.0202 52.9456C9.99725 53.0449 9.9667 53.1442 9.95142 53.2511C9.92851 53.3809 9.9056 53.5184 9.89032 53.6482C9.88268 53.717 9.86741 53.7781 9.85977 53.8468C9.83686 54.053 9.82922 54.2592 9.82922 54.4731V55.275C9.82922 55.0611 9.8445 54.8549 9.85977 54.6487C9.86741 54.5876 9.88268 54.5265 9.89032 54.4578Z" fill="#7C5F75"/>
<path d="M269.385 210.023C269.347 210.298 269.324 210.581 269.27 210.856C269.263 210.917 269.24 210.97 269.232 211.031C269.179 211.283 269.118 211.535 269.056 211.787C268.988 212.055 268.927 212.322 268.85 212.582C268.774 212.826 268.69 213.063 268.606 213.307C268.537 213.498 268.484 213.697 268.407 213.888C268.384 213.941 268.354 213.995 268.331 214.056C268.186 214.399 268.025 214.735 267.865 215.071C267.781 215.239 267.712 215.407 267.621 215.575C267.369 216.041 267.094 216.492 266.803 216.935C266.788 216.958 266.781 216.981 266.765 216.996C266.765 216.996 266.765 216.996 266.758 217.004C266.758 217.011 266.75 217.011 266.75 217.019C266.49 217.401 266.208 217.76 265.917 218.119C265.856 218.195 265.795 218.271 265.727 218.348C265.436 218.692 265.131 219.028 264.81 219.348C264.757 219.402 264.695 219.455 264.642 219.509C264.344 219.799 264.031 220.082 263.718 220.349C263.657 220.395 263.603 220.448 263.55 220.494C263.199 220.777 262.832 221.051 262.458 221.303C262.374 221.357 262.29 221.41 262.206 221.472C261.816 221.731 261.419 221.976 261.007 222.197C261.007 222.197 260.999 222.197 260.999 222.205C260.587 222.426 260.167 222.625 259.739 222.808C259.647 222.846 259.556 222.884 259.464 222.923C259.036 223.098 258.601 223.259 258.158 223.396C258.082 223.419 258.005 223.442 257.936 223.457C257.524 223.579 257.112 223.686 256.684 223.778C256.608 223.793 256.531 223.816 256.455 223.831C255.989 223.923 255.523 223.992 255.05 224.045C254.943 224.053 254.843 224.068 254.736 224.076C254.248 224.122 253.751 224.152 253.247 224.152H16.3134C7.32423 224.152 0 216.889 0 207.961V208.763C0 217.683 7.31659 224.954 16.3134 224.954H253.224C253.728 224.954 254.225 224.924 254.713 224.878C254.82 224.87 254.92 224.862 255.027 224.847C255.5 224.794 255.974 224.725 256.432 224.633C256.508 224.618 256.585 224.595 256.661 224.58C257.081 224.488 257.501 224.381 257.914 224.259C257.99 224.236 258.066 224.221 258.135 224.198C258.578 224.061 259.013 223.9 259.441 223.725C259.533 223.686 259.624 223.648 259.716 223.61C260.144 223.427 260.571 223.228 260.984 223.007C260.984 223.007 260.991 223.007 260.991 222.999C261.404 222.777 261.801 222.533 262.19 222.273C262.274 222.22 262.358 222.166 262.443 222.105C262.817 221.846 263.183 221.578 263.535 221.296C263.596 221.25 263.649 221.197 263.703 221.151C264.023 220.883 264.329 220.601 264.627 220.311C264.68 220.257 264.741 220.204 264.795 220.15C265.116 219.829 265.421 219.493 265.711 219.15C265.772 219.073 265.833 218.997 265.895 218.921C266.185 218.562 266.467 218.203 266.727 217.821C266.727 217.813 266.735 217.813 266.735 217.806C266.75 217.783 266.765 217.76 266.781 217.737C267.078 217.301 267.346 216.843 267.598 216.377C267.689 216.217 267.758 216.041 267.842 215.873C268.01 215.537 268.171 215.201 268.308 214.858C268.407 214.613 268.499 214.361 268.583 214.109C268.667 213.872 268.759 213.628 268.827 213.384C268.904 213.124 268.965 212.857 269.034 212.589C269.095 212.337 269.163 212.093 269.209 211.833C269.27 211.505 269.324 211.161 269.362 210.825C269.385 210.657 269.415 210.489 269.431 210.321C269.484 209.802 269.515 209.282 269.515 208.755V207.953C269.515 208.48 269.484 209.007 269.431 209.519C269.438 209.687 269.408 209.855 269.385 210.023Z" fill="#7C5F75"/>
<path d="M253.224 38.2971H16.3134C7.32422 38.2971 0 45.5602 0 54.4883V207.953C0 216.881 7.31659 224.145 16.3134 224.145H253.224C253.728 224.145 254.225 224.114 254.713 224.068C254.82 224.061 254.92 224.053 255.027 224.038C255.5 223.984 255.974 223.915 256.432 223.824C256.508 223.809 256.585 223.786 256.661 223.77C257.081 223.679 257.501 223.572 257.914 223.45C257.99 223.427 258.066 223.411 258.135 223.388C258.578 223.251 259.013 223.091 259.441 222.915C259.533 222.877 259.624 222.839 259.716 222.8C260.144 222.617 260.571 222.419 260.976 222.197C260.976 222.197 260.984 222.197 260.984 222.189C261.396 221.968 261.793 221.724 262.183 221.464C262.267 221.41 262.351 221.357 262.435 221.296C262.809 221.036 263.176 220.769 263.527 220.486C263.588 220.44 263.642 220.387 263.695 220.341C264.016 220.074 264.321 219.791 264.619 219.501C264.673 219.448 264.734 219.394 264.787 219.341C265.108 219.02 265.413 218.684 265.704 218.34C265.765 218.264 265.826 218.187 265.895 218.111C266.185 217.752 266.467 217.393 266.727 217.011C266.727 217.004 266.735 217.004 266.735 216.996C266.75 216.973 266.765 216.95 266.78 216.927C267.078 216.492 267.346 216.034 267.598 215.568C267.689 215.407 267.758 215.232 267.842 215.064C268.01 214.728 268.171 214.392 268.308 214.048C268.407 213.804 268.499 213.552 268.583 213.3C268.667 213.063 268.759 212.818 268.827 212.574C268.904 212.314 268.965 212.047 269.034 211.78C269.095 211.528 269.163 211.283 269.209 211.024C269.27 210.695 269.324 210.352 269.362 210.015C269.385 209.847 269.415 209.679 269.431 209.511C269.484 208.992 269.515 208.473 269.515 207.946V54.4807C269.538 45.5602 262.213 38.2971 253.224 38.2971ZM253.224 214.384H16.3134C12.7391 214.384 9.83692 211.505 9.83692 207.953V55.2826V54.4807C9.83692 54.2592 9.84455 54.0377 9.86747 53.8239C9.8751 53.7628 9.88274 53.7093 9.89038 53.6558C9.90565 53.5184 9.92857 53.3885 9.95148 53.2587C9.97439 53.1594 9.9973 53.0601 10.0202 52.9532C10.0431 52.8463 10.066 52.747 10.1042 52.6401C10.1348 52.5408 10.1653 52.4491 10.2035 52.3499C10.2341 52.2506 10.2722 52.1513 10.3104 52.0596C10.3181 52.0367 10.3257 52.0062 10.341 51.9833C10.5854 51.4028 10.9138 50.8758 11.3109 50.3947C11.3338 50.3718 11.3491 50.3489 11.372 50.3336C11.4179 50.2801 11.4713 50.2267 11.5171 50.1732C11.6317 50.051 11.7463 49.9288 11.8608 49.8219C11.9219 49.7684 11.983 49.7073 12.0441 49.6539C12.1663 49.5469 12.2961 49.44 12.4336 49.3407C12.4947 49.2949 12.5558 49.2491 12.6093 49.2109C12.8002 49.0811 12.9988 48.9512 13.2126 48.8367C13.2126 48.8367 13.2126 48.8367 13.2203 48.8367C13.4265 48.7221 13.648 48.6228 13.8694 48.5388C13.9382 48.5083 14.0069 48.4854 14.0833 48.4624C14.2437 48.4013 14.4041 48.3555 14.5644 48.3021C14.6484 48.2791 14.7325 48.2562 14.8165 48.241C14.9845 48.2028 15.1525 48.1722 15.3205 48.1417C15.3969 48.134 15.4733 48.1188 15.5497 48.1111C15.7941 48.0806 16.0461 48.0653 16.3058 48.0653H253.217C256.791 48.0653 259.693 50.9446 259.693 54.496V55.2979V207.969C259.701 211.497 256.798 214.384 253.224 214.384Z" fill="#8F768A"/>
<path d="M94.138 213.2H92.053L90.0597 212.75V211.696L94.138 210.397V213.2Z" fill="#EDE7ED"/>
<path d="M182.235 205.708H155.886V208.32H182.235V205.708Z" fill="#E3B78C"/>
<path d="M182.235 209.366H155.886V212.971H182.235V209.366Z" fill="#613645"/>
<path d="M182.235 212.964H155.886V213.2H182.235V212.964Z" fill="#51293B"/>
<path d="M94.1381 210.397H98.4303H99.2169H99.5759H119.089V213.2H94.1381V210.397Z" fill="#E4D154"/>
<path d="M119.089 213.2V210.397L119.517 210.527L120.288 210.772V210.894V213.2H119.089Z" fill="#EDE7ED"/>
<path d="M99.2169 210.397H98.4302L95.5051 209.107V208.992L99.2169 210.397Z" fill="#D7CCD7"/>
<path d="M182.235 208.32H155.886V209.367H182.235V208.32Z" fill="#411C31"/>
<path d="M99.5758 210.397H99.2169L95.5051 208.992V207.77L99.5758 205.975V210.397Z" fill="#EDE7ED"/>
<path d="M120.288 210.894V210.772L119.517 210.527H124.535V210.894H120.288Z" fill="#BE2F46"/>
<path d="M90.0597 212.75L92.053 213.2H91.0526L90.0597 212.879V212.75Z" fill="#D7CCD7"/>
<path d="M125.726 206.472V210.115L124.535 210.527V205.975L125.726 206.472Z" fill="#EDE7ED"/>
<path d="M119.517 210.527L119.089 210.397H99.5759V205.975H124.535V210.527H119.517Z" fill="#E33042"/>
<path d="M124.535 210.527L125.726 210.115V210.405L124.535 210.894V210.527Z" fill="#D7CCD7"/>
<path d="M87.7838 211.833V212.879H90.0598V212.75V211.696H88.6163L87.7838 211.833Z" fill="#51293B"/>
<path d="M94.0618 207.77L93.2217 208.992V209.107H95.5052V208.992V207.77H94.0618Z" fill="#51293B"/>
<path d="M198.083 213.2V214.438V216.866H71.4475V214.438V213.2H198.083Z" fill="#8F768A"/>
<path d="M198.083 216.866H71.4475V221.777H198.083V216.866Z" fill="#7C5F75"/>
<path d="M239.445 96.2912C239.348 96.3358 239.185 96.41 238.91 96.5363L238.331 95.2592L239.074 94.0342L239.178 93.9822L240.098 95.9943C239.824 96.1205 239.66 96.1947 239.564 96.2393C239.549 96.2467 239.512 96.2615 239.445 96.2912Z" fill="#99952A"/>
<path d="M238.91 96.5361C239.185 96.4099 239.348 96.3357 239.445 96.2911C239.512 96.2614 239.549 96.2466 239.556 96.2392C239.653 96.1946 239.816 96.1204 240.091 95.9941L243.321 98.8749C240.054 100.367 242.192 99.3946 238.962 100.865L238.91 96.5361Z" fill="#EDE7ED"/>
<path d="M249.528 123.391L249.038 122.931C252.304 121.439 250.166 122.411 253.388 120.941L253.411 121.617C253.426 121.966 253.225 122.292 252.906 122.434C252.535 122.604 252.252 122.731 252.03 122.834C251.555 123.05 251.376 123.131 251.354 123.139C251.131 123.243 250.842 123.369 250.478 123.54C250.159 123.696 249.78 123.629 249.528 123.391Z" fill="#EDE7ED"/>
<path d="M238.97 100.865C242.192 99.3947 240.061 100.367 243.328 98.875L253.396 120.941C250.174 122.411 252.305 121.439 249.045 122.931L238.97 100.865Z" fill="#AFBD2E"/>
<path d="M300.618 68.6294C300.113 71.6874 299.479 74.7255 298.656 77.7105C298.406 78.6203 296.364 86.4829 295.597 86.4596C300.077 86.5858 304.403 88.0368 308.709 89.3185C313.013 90.5968 317.485 91.7257 321.934 91.1911C331.261 90.0688 334.12 82.1133 335.043 73.6597C335.721 67.434 335.657 60.966 333.469 55.1156C332.921 53.648 332.204 52.1837 331.006 51.2009C329.067 49.6104 327.413 50.7891 325.298 50.6065C322.901 50.4007 320.806 49.1456 319.162 47.3957C316.579 44.6399 315.261 40.9177 314.052 37.3019C312.365 32.2516 310.728 27.1051 310.423 21.7726C310.19 17.7517 310.874 13.9001 312.442 10.2145C311.06 10.8918 309.211 11.6455 308.109 12.7944C306.478 14.4911 306.186 17.3599 305.718 19.5712C305.047 22.7521 304.549 25.9695 304.157 29.2002C303.367 35.7148 303.018 42.2724 302.6 48.8202C302.185 55.3247 301.717 61.8426 300.674 68.2807C300.654 68.3936 300.638 68.5098 300.618 68.6294Z" fill="#32373B"/>
<path d="M353.697 66.3816C356.111 68.9615 357.137 71.8037 358.648 74.8817C359.713 77.0565 361.091 79.6232 361.277 82.0935C361.33 82.7974 360.909 88.4586 360.965 88.4586C372.244 85.7326 382.557 79.0155 389.729 69.7219C380.276 62.3009 370.661 54.7039 363.91 44.6699C359.023 37.4049 355.809 29.1705 351.685 21.4639C349.666 17.6887 347.388 14.1492 344.732 10.8123C342.278 7.72767 341.186 5.18096 337.494 3.20204C331.789 0.134034 324.78 -0.526711 318.803 1.93035C313.687 4.03545 309.493 8.53451 307.879 13.8803C308.856 12.9805 309.931 12.2035 311.09 11.576C311.542 11.3369 312.017 11.1177 312.495 10.9185C317.256 8.9894 323.382 10.1847 326.281 14.4912C327.788 16.7291 328.323 19.5249 329.81 21.7661C331.298 24.0073 334.529 25.5513 336.587 23.8347C337.241 23.2901 337.733 22.4501 338.553 22.2276C339.625 21.9388 340.704 22.9548 340.92 24.0704C341.146 25.1827 340.758 26.3183 340.366 27.3808C338.47 32.544 336.634 38.0989 337.367 43.6439C338.085 49.0627 340.512 54.259 344.3 58.1372C347.222 61.1288 350.845 63.3335 353.697 66.3816Z" fill="#32373B"/>
<path d="M290.278 138.108C275.881 134.17 261.673 129.614 247.718 124.461C246.543 124.026 245.324 123.558 244.491 122.662C243.793 121.908 243.438 120.928 243.096 119.975C242.89 119.401 242.694 118.737 243.026 118.212C243.272 117.824 243.74 117.625 244.192 117.482C247.728 116.36 251.556 117.226 255.119 118.169C264.688 120.703 274.145 123.764 283.996 125.075C287.589 125.554 291.162 126.221 294.741 126.709C297.998 127.154 300.953 127.171 303.958 128.791C304.616 129.146 305.25 129.545 305.784 130.053C307.096 131.301 307.697 133.194 307.342 134.947C305.818 142.411 295.163 139.443 290.278 138.108Z" fill="#E06148"/>
<path d="M310.081 103.759C308.922 105.907 307.82 108.082 306.727 110.27C304.572 114.603 302.524 119.009 300.515 123.449C299.004 126.809 297.234 130.85 299.266 134.595C299.788 135.551 300.581 136.278 301.408 136.939C303.241 138.387 304.888 137.869 306.641 136.647C309.364 134.728 311.462 131.965 313.524 129.229C316.436 125.335 319.328 121.41 322.177 117.452C317.266 114.079 312.986 109.221 310.081 103.759Z" fill="#E06148"/>
<path d="M246.367 125.494C249.335 126.706 252.383 127.755 255.458 128.632C256.119 128.824 256.783 129.004 257.457 129.1C259.426 129.415 261.428 129.485 263.423 129.465C265.684 129.442 266.176 129.226 266.813 126.895C267.438 124.627 268.145 122.373 265.658 121.085C262.955 119.687 260.867 118.558 258.825 116.008C258.28 115.327 257.765 114.61 257.145 113.969C255.953 112.744 254.442 111.887 252.997 110.967C250.63 109.48 248.382 107.803 246.287 105.96C246.433 107.471 247.017 108.925 247.891 110.24C248.468 111.114 249.179 111.92 249.969 112.628C249.176 111.92 248.465 111.114 247.891 110.24C246.928 109.955 245.888 109.862 244.886 109.779C244.517 109.749 244.159 109.729 243.803 109.746C243.604 109.749 243.415 109.765 243.222 109.815C242.678 109.938 242.18 110.247 241.98 110.728C241.788 111.167 241.878 111.688 241.961 112.173C242.083 112.853 242.233 113.597 242.797 114.082C241.775 114.606 241.403 115.988 241.974 117.04C241.27 117.22 241.147 118.163 241.472 118.83C241.798 119.487 242.402 119.989 242.84 120.603C242.376 120.497 241.99 120.985 242.044 121.44C242.093 121.908 242.435 122.3 242.771 122.645C243.348 123.253 243.979 123.827 244.65 124.355C245.112 124.717 245.6 125.062 246.091 125.374C246.181 125.421 246.267 125.451 246.367 125.494ZM253.595 120.234C253.485 120.46 253.373 120.689 253.266 120.918C253.373 120.689 253.482 120.464 253.595 120.234ZM257.34 115.676C257.31 115.706 257.274 115.725 257.244 115.752C257.277 115.725 257.31 115.706 257.34 115.676C257.55 115.463 257.666 115.181 257.745 114.875C257.669 115.181 257.55 115.46 257.34 115.676ZM256.318 116.27C256.032 116.436 255.79 116.665 255.564 116.914C255.793 116.662 256.036 116.433 256.318 116.27C256.344 116.257 256.374 116.243 256.401 116.227C256.374 116.24 256.348 116.253 256.318 116.27ZM249.714 121.181C249.873 121.29 250.029 121.4 250.188 121.51C250.915 121.994 251.643 122.492 252.373 122.987C251.643 122.489 250.915 121.994 250.188 121.51C250.029 121.4 249.873 121.29 249.714 121.181ZM246.905 118.266C247.124 118.604 247.343 118.94 247.585 119.258C247.346 118.94 247.124 118.604 246.905 118.266Z" fill="#E06148"/>
<path d="M308.241 128.665C310.625 129.585 313.046 130.401 315.5 131.112C315.672 121.968 315.642 112.813 315.566 103.676C315.523 99.2266 315.473 94.7375 314.407 90.4211C313.544 86.9214 311.943 83.518 309.473 80.968C308.48 86.3038 307.428 91.6429 306.306 96.9588C304.592 105.104 302.733 113.222 300.724 121.294C300.429 122.506 300.12 123.721 299.818 124.926C302.567 126.311 305.376 127.569 308.241 128.665Z" fill="#007BA2"/>
<path d="M326.988 65.7608C326.822 63.1809 326.497 60.6143 326.015 58.0775C321.888 58.3265 317.459 59.0935 315.154 62.4903C314.291 63.7686 313.843 65.2827 313.411 66.7768C312.043 71.4452 310.41 75.9144 309.523 80.6791C309.51 80.7754 309.486 80.8717 309.473 80.9647C311.943 83.5147 313.544 86.9181 314.407 90.4177C315.473 94.7342 315.523 99.2266 315.566 103.673C315.646 112.81 315.676 121.964 315.5 131.109C315.39 137.035 315.197 142.952 314.872 148.856C317.243 147.747 321.187 149.533 322.758 147.216C323.299 146.422 323.326 145.393 323.336 144.43C323.349 142.813 323.372 141.202 323.385 139.585V139.579C323.435 134.323 323.485 129.05 323.545 123.787C323.545 123.399 323.525 122.95 323.219 122.715C322.887 122.459 322.535 122.605 322.173 122.867C321.835 123.11 321.49 123.449 321.138 123.638C320.251 124.129 319.086 123.512 318.611 122.608C318.136 121.695 318.156 120.603 318.186 119.58C318.445 111.847 318.697 104.104 318.949 96.3777C319.066 92.8283 319.179 89.2822 319.295 85.7261C319.338 84.5507 319.388 83.3088 319.979 82.2862C321.254 80.0815 324.255 79.9254 326.762 80.0217C326.948 80.9414 327.137 81.8512 327.31 82.7709C329.8 82.7577 332.294 83.3819 334.499 84.5805C335.392 82.9569 336.846 81.5955 338.583 81.8612C340 82.0737 341.066 83.3753 341.478 84.7731C341.89 86.171 341.774 87.6618 341.651 89.1194C341.206 94.4353 340.758 99.7412 340.319 105.05C340.738 106.335 341.003 107.647 341.003 108.962L342.776 108.992C342.899 102.73 343.54 96.5736 345.585 90.6634C345.894 89.7669 346.263 88.8405 346.81 88.0769C347.992 89.4947 348.833 91.2312 349.367 93.0175C350.194 95.7834 350.36 98.702 350.483 101.591C350.914 112.176 350.792 122.794 350.094 133.366C351.967 134.167 353.889 134.837 355.855 135.372C361.437 136.929 367.3 137.454 373.068 136.909C374.024 136.82 374.977 136.703 375.927 136.557C376.704 136.431 377.474 136.292 378.244 136.132C376.574 120.59 374.894 105.05 373.224 89.5079C372.805 85.6032 372.38 81.7018 371.962 77.7971C371.839 76.6715 371.716 75.5392 371.56 74.407V74.4003C371.079 70.9538 370.292 67.5637 368.393 64.7182C365.411 60.2424 360.188 57.9181 355.085 56.4472C353.574 56.0123 352.037 55.6304 350.506 55.2419C350.267 59.1766 348.122 62.9186 345.127 65.452C341.777 68.2909 337.477 69.7519 333.164 70.3396C331.162 70.6118 329.146 70.7081 327.121 70.7081C327.141 69.0546 327.098 67.4011 326.988 65.7608Z" fill="#0094BC"/>
<path d="M336.156 343.169C336.069 342.213 336.667 341.207 337.474 340.649C338.447 339.965 339.642 339.766 340.794 339.51C345.037 338.584 349.092 336.821 352.684 334.334C352.18 332.627 351.552 330.95 350.984 329.26C348.779 329.473 346.654 330.489 345.164 332.165C344.523 332.886 343.998 333.709 343.304 334.363C342.614 335.024 341.684 335.532 340.748 335.406C339.668 335.26 338.838 334.327 338.35 333.334C337.869 332.335 337.63 331.226 337.148 330.233C336.674 329.263 335.96 328.423 335.103 327.786C333.964 329.662 332.394 331.286 330.717 332.69C326.57 336.183 321.586 338.637 316.326 339.786C315.181 340.035 313.979 340.24 313.006 340.918C312.206 341.476 311.608 342.475 311.688 343.431H336.195C336.179 343.338 336.162 343.259 336.156 343.169Z" fill="#E17900"/>
<path d="M312 178.45C311.502 181.86 310.934 185.257 310.293 188.647C311.323 189.706 312.498 190.646 313.677 191.529C316.376 193.544 319.209 195.361 322.154 196.968C324.352 198.166 326.603 199.255 328.901 200.225C330.059 199.275 331.069 198.077 331.969 196.732C331.112 194.763 330.262 192.791 329.419 190.815C328.329 188.285 327.237 185.529 327.811 182.83C328.316 180.449 330.023 178.56 331.613 176.743C340.293 166.862 347.415 155.569 352.664 143.434C348.876 143.331 345.16 141.594 342.544 138.802V138.808C342.401 140.123 342.212 141.431 341.976 142.733C341.521 141.88 341.126 141.006 340.781 140.11C339.16 141.92 336.929 143.138 334.558 143.52V143.527C334.572 144.011 334.595 144.503 334.608 144.991C333.42 146.631 330.634 145.851 329.638 144.088C328.638 142.325 328.867 140.133 329.097 138.111C329.206 137.178 329.299 136.252 329.392 135.319V135.312C329.306 135.392 329.219 135.475 329.133 135.541C328.087 136.394 326.849 136.939 325.72 137.65C324.863 138.194 324.07 138.848 323.379 139.582V139.589C323.366 141.206 323.342 142.816 323.329 144.433C323.322 145.396 323.293 146.425 322.751 147.219C321.181 149.533 317.236 147.747 314.865 148.859C314.334 158.777 313.441 168.652 312 178.45Z" fill="#0094BC"/>
<path d="M327.313 82.7742C327.141 81.8545 326.955 80.9447 326.766 80.025C324.259 79.9287 321.257 80.0847 319.982 82.2894C319.391 83.3121 319.341 84.5539 319.298 85.7293C319.182 89.2887 319.069 92.8315 318.953 96.381C318.7 104.107 318.448 111.85 318.189 119.584C318.159 120.606 318.139 121.702 318.614 122.612C319.089 123.515 320.258 124.132 321.141 123.641C321.493 123.448 321.838 123.113 322.177 122.871C323.063 114.577 323.94 106.292 324.826 97.998C324.969 96.6831 325.109 95.3583 325.251 94.0368C325.431 92.3833 325.61 90.6932 326.311 89.1924C326.706 88.3325 327.303 87.5389 328.054 86.9645C327.831 85.5666 327.579 84.1621 327.313 82.7742Z" fill="#0094BC"/>
<path d="M333.845 202.094C332.174 201.53 330.531 200.912 328.904 200.228C326.606 199.259 324.352 198.17 322.157 196.971C322.193 197.788 322.223 198.611 322.256 199.435C323.648 234.474 325.965 279.166 329.219 313.801C331.69 314.764 334.233 315.514 336.826 316.052C340.406 316.802 344.071 317.154 347.737 317.088C348.401 285.594 347.534 243.695 345.157 211.683C348.046 212.543 350.968 213.271 353.856 213.955C362.001 215.88 370.448 217.763 377.945 221.329C377.945 214.838 377.965 208.529 378.018 202.486C368.396 205.521 358.149 206.5 348.145 205.315C346.963 205.176 345.784 205.006 344.609 204.8C340.963 204.183 337.364 203.27 333.848 202.094H333.845Z" fill="#060634"/>
<path d="M324.826 98.0015C323.94 106.296 323.063 114.58 322.177 122.874C322.535 122.609 322.891 122.463 323.223 122.721C323.525 122.957 323.548 123.405 323.548 123.794C323.492 129.057 323.439 134.329 323.389 139.586C324.079 138.852 324.873 138.198 325.73 137.653C326.862 136.939 328.1 136.395 329.143 135.545C329.229 135.478 329.316 135.399 329.402 135.316C330.597 123.309 330.727 111.193 329.618 99.1968V99.1902C329.249 95.1028 328.731 91.0288 328.054 86.978V86.9713C327.303 87.5457 326.706 88.3393 326.311 89.1993C325.613 90.7001 325.431 92.3901 325.251 94.0437C325.109 95.3618 324.972 96.6833 324.826 98.0015Z" fill="#0094BC"/>
<path d="M326.015 58.0808C326.497 60.6176 326.822 63.1842 326.988 65.7641C329.913 65.3823 332.799 64.8311 335.564 63.8084C338.812 62.6098 341.903 60.6773 344.084 57.9945C343.364 56.1849 342.667 54.3687 341.983 52.5458C340.621 48.92 339.326 45.2676 338.101 41.5853C338.088 41.5853 338.078 41.5853 338.065 41.5853C336.969 41.4525 335.963 41.1968 335.04 40.8416C334.621 43.8265 333.303 46.6854 331.467 49.0594C329.747 51.2807 327.599 53.1102 325.265 54.6409C325.554 55.7798 325.799 56.9253 326.015 58.0808Z" fill="#EE6E56"/>
<path d="M344.085 57.991C341.903 60.6739 338.812 62.6063 335.565 63.805C332.799 64.8276 329.91 65.3788 326.988 65.7606C327.098 67.4009 327.141 69.0544 327.118 70.7013C329.14 70.7013 331.158 70.605 333.161 70.3328C337.474 69.7451 341.774 68.2808 345.124 65.4452C348.119 62.9085 350.267 59.1664 350.503 55.2351C347.601 54.5013 344.705 53.7443 341.983 52.5457C342.667 54.3685 343.364 56.1814 344.085 57.991Z" fill="#0094BC"/>
<path d="M329.402 135.319C329.309 136.252 329.216 137.178 329.106 138.111C328.877 140.133 328.645 142.325 329.648 144.088C330.64 145.851 333.429 146.631 334.618 144.991C334.605 144.506 334.582 144.015 334.568 143.527V143.52C334.014 128.044 333.466 112.578 332.911 97.0949C332.819 94.4552 332.732 91.7591 333.127 89.1626C333.3 87.9806 333.572 86.8184 333.991 85.6928C334.127 85.3243 334.299 84.9491 334.495 84.5905C334.495 84.5905 334.495 84.5838 334.502 84.5838C332.297 83.3852 329.807 82.761 327.313 82.7743C327.579 84.1622 327.831 85.5667 328.054 86.9645V86.9712C328.731 91.022 329.249 95.0961 329.618 99.1834V99.1901C330.727 111.19 330.597 123.302 329.402 135.309V135.319Z" fill="#0094BC"/>
<path d="M352.671 143.434C347.421 155.573 340.299 166.865 331.62 176.743C330.043 178.543 328.708 180.236 327.891 182.521C327.313 184.135 326.201 185.688 325.975 187.418C325.779 188.919 326.032 190.437 326.281 191.931C326.606 193.87 326.941 195.845 327.848 197.585C328.286 198.425 329.12 199.295 330.006 199C330.514 198.83 330.83 198.329 331.105 197.861C333.805 193.279 335.946 188.507 338.536 183.876C341.568 178.463 346.81 174.824 351.419 170.737C361.51 161.789 369.087 149.925 373.068 136.903C367.3 137.447 361.437 136.926 355.855 135.365C354.882 138.098 353.823 140.787 352.671 143.434Z" fill="#EE6E56"/>
<path d="M331.972 196.735C331.072 198.08 330.063 199.279 328.904 200.228C330.531 200.912 332.175 201.53 333.845 202.094C339.187 198.03 343.985 193.229 348.076 187.853C352.492 182.046 356.121 175.525 361.437 170.561C365.823 166.474 371.829 163.578 377.584 164.113C376.949 154.932 376.395 145.741 375.927 136.551C374.977 136.697 374.024 136.816 373.068 136.902C369.087 149.922 361.51 161.788 351.419 170.737C346.811 174.824 341.568 178.463 338.536 183.875C336.401 187.691 334.615 192.824 331.972 196.735Z" fill="#007BA2"/>
<path d="M333.124 89.1626C332.729 91.7591 332.815 94.4552 332.908 97.0949C333.463 112.578 334.011 128.047 334.565 143.52C336.936 143.138 339.167 141.916 340.787 140.11C338.095 133.127 338.642 125.075 339.283 117.475C339.629 113.335 339.974 109.191 340.319 105.05C339.851 103.566 339.187 102.119 338.533 100.721C336.727 96.8691 334.924 93.0142 333.124 89.1626Z" fill="#0094BC"/>
<path d="M334.499 84.5839C334.492 84.5839 334.492 84.5906 334.492 84.5906C334.296 84.9492 334.123 85.3243 333.987 85.6929C333.569 86.8185 333.297 87.9806 333.124 89.1627C334.924 93.0143 336.727 96.8659 338.533 100.721C339.187 102.119 339.851 103.566 340.319 105.051C340.758 99.7413 341.206 94.4354 341.651 89.1195C341.774 87.6652 341.89 86.171 341.478 84.7732C341.066 83.3753 340.001 82.0737 338.583 81.8612C336.846 81.5989 335.392 82.9569 334.499 84.5839Z" fill="#0094BC"/>
<path d="M378.022 202.483C378.872 202.217 379.722 201.932 380.559 201.629C379.426 189.132 378.434 176.627 377.584 164.113C371.829 163.575 365.823 166.474 361.437 170.561C356.121 175.525 352.492 182.046 348.076 187.853C343.985 193.229 339.187 198.027 333.845 202.094H333.851C337.364 203.27 340.967 204.183 344.612 204.8C345.788 205.006 346.967 205.176 348.149 205.315C358.149 206.497 368.399 205.521 378.022 202.483Z" fill="#0094BC"/>
<path d="M336.345 325.12C336.036 326.059 335.618 326.942 335.106 327.783C335.963 328.423 336.677 329.26 337.152 330.23C337.633 331.222 337.872 332.331 338.354 333.331C338.845 334.324 339.672 335.257 340.751 335.403C341.687 335.529 342.617 335.021 343.308 334.36C343.998 333.706 344.526 332.883 345.167 332.162C346.658 330.485 348.783 329.473 350.987 329.257C350.808 328.719 350.635 328.178 350.469 327.633C348.202 320.069 348.172 329.366 348.819 321.427V321.421C348.431 321.407 348.036 321.378 347.644 321.341C347.68 319.943 347.717 318.525 347.737 317.084C344.071 317.151 340.406 316.799 336.826 316.048C336.906 322.297 336.992 311.287 337.072 317.529C337.108 320.086 337.135 322.696 336.345 325.12Z" fill="#EE6E56"/>
<path d="M337.474 340.649C336.667 341.207 336.069 342.216 336.156 343.169H353.491H377.899C378.467 340.692 378.194 338.059 377.574 335.595C377.012 333.344 376.182 331.193 375.448 328.994V328.988C373.244 329.207 371.112 330.223 369.621 331.906C368.987 332.614 368.462 333.437 367.772 334.105C367.081 334.765 366.152 335.267 365.215 335.134C364.126 334.994 363.299 334.068 362.818 333.069C362.336 332.062 362.097 330.96 361.616 329.967C361.141 328.981 360.427 328.151 359.564 327.51V327.517C358.425 329.4 356.865 331.01 355.184 332.421C354.378 333.105 353.541 333.736 352.684 334.334C349.092 336.817 345.034 338.584 340.794 339.51C339.642 339.766 338.447 339.965 337.474 340.649Z" fill="#EE8505"/>
<path d="M340.787 140.11C341.133 141.007 341.528 141.883 341.983 142.733C342.222 141.432 342.408 140.123 342.551 138.809V138.802C343.66 128.987 342.574 118.857 342.773 108.992L341 108.962C341 107.647 340.734 106.339 340.316 105.051C339.971 109.191 339.625 113.335 339.28 117.475C338.642 125.076 338.095 133.127 340.787 140.11Z" fill="#0094BC"/>
<path d="M350.091 133.363C350.788 122.791 350.911 112.176 350.479 101.587C350.357 98.6986 350.191 95.78 349.364 93.0142C348.829 91.2278 347.989 89.4913 346.807 88.0735C346.259 88.8372 345.894 89.7635 345.582 90.66C343.537 96.5702 342.896 102.723 342.773 108.988C342.57 118.853 343.66 128.987 342.551 138.798C345.164 141.591 348.882 143.327 352.671 143.43C353.823 140.784 354.882 138.095 355.855 135.365C353.886 134.831 351.964 134.163 350.091 133.363Z" fill="#007BA2"/>
<path d="M361.364 321.567C365.368 321.421 369.359 321.089 373.327 320.574C375.588 320.272 377.842 319.927 380.09 319.502C378.699 289.851 377.989 252.122 377.952 221.332V221.326C370.455 217.76 362.008 215.877 353.863 213.951C350.974 213.267 348.052 212.54 345.164 211.68C347.541 243.688 348.404 285.588 347.743 317.085C347.72 318.526 347.687 319.943 347.651 321.341C348.039 321.378 348.434 321.408 348.826 321.421C352.993 321.68 357.187 321.73 361.364 321.567Z" fill="#242450"/>
<path d="M360.802 324.857C360.494 325.797 360.075 326.68 359.564 327.51C360.427 328.151 361.141 328.981 361.616 329.967C362.097 330.96 362.336 332.063 362.818 333.069C363.299 334.068 364.129 334.994 365.215 335.134C366.152 335.267 367.081 334.765 367.772 334.105C368.462 333.434 368.99 332.614 369.621 331.907C371.112 330.223 373.244 329.207 375.448 328.988C375.269 328.45 375.097 327.916 374.931 327.364C372.603 319.621 372.633 328.716 373.323 320.578C369.356 321.092 365.365 321.424 361.36 321.57V321.577C361.42 325.89 361.593 322.43 360.802 324.857Z" fill="#EE6E56"/>
<path d="M325.241 47.3792C324.611 47.2962 323.983 47.2099 323.375 47.4025C323.611 50.0787 324.504 52.8644 325.275 55.4311C325.417 55.9059 325.63 56.4471 326.098 56.5832C326.646 56.7426 327.147 56.2545 327.526 55.8195C329.917 53.0603 332.805 50.3576 335.983 48.5646C336.846 48.0765 339.24 47.6548 339.579 46.5425C339.778 45.8917 337.294 42.143 338.028 41.5686C335.691 43.4081 333.18 45.0981 330.448 46.2636C329.219 46.7882 327.835 47.3294 326.497 47.4456C326.082 47.4855 325.66 47.4323 325.241 47.3792Z" fill="#DD5744"/>
<path d="M326.457 51.8818C330.664 51.0749 334.871 47.6716 338.3 44.0756C336.766 38.8029 338.466 32.564 340.369 27.3842C340.761 26.3184 341.149 25.1862 340.924 24.0738C340.708 22.9582 339.632 21.9422 338.556 22.2311C337.733 22.4535 337.241 23.2936 336.591 23.8381C334.532 25.5547 331.301 24.0108 329.814 21.7695C328.326 19.5283 327.792 16.7292 326.284 14.4947C323.386 10.1848 317.259 8.99283 312.498 10.922C312.02 11.1212 311.545 11.3403 311.094 11.5794C309.384 15.1089 308.789 19.2328 309.018 23.2072C309.324 28.5397 310.957 33.6863 312.647 38.7365C313.856 42.3524 315.174 46.0712 317.757 48.8304C320.474 51.729 323.469 52.4628 326.457 51.8818Z" fill="#FB7C64"/>
<path d="M324.242 27.258C324.67 27.7062 325.398 27.7361 325.862 27.3277C326.327 26.9193 326.357 26.2254 325.929 25.7771C325.501 25.3289 324.773 25.299 324.309 25.7074C323.844 26.1158 323.814 26.8097 324.242 27.258Z" fill="#262651"/>
<path d="M311.96 28.573C312.133 29.1573 312.764 29.4993 313.375 29.34C313.985 29.1806 314.341 28.5763 314.168 27.9919C313.995 27.4075 313.365 27.0655 312.754 27.2249C312.143 27.3843 311.787 27.9886 311.96 28.573Z" fill="#262651"/>
<path d="M317.472 26.5974C318.04 28.9914 318.003 31.4949 317.366 33.8391C317.229 34.3438 317.064 34.8817 317.243 35.3831C317.548 36.2364 318.641 36.5419 319.567 36.7178" stroke="#9A6B60" stroke-width="2.2486" stroke-miterlimit="10" stroke-linecap="round" stroke-linejoin="round"/>
<path d="M328.001 39.2378C326.809 41.6152 324.033 43.2853 321.47 43.1658" stroke="#9A6B60" stroke-width="2.4895" stroke-miterlimit="10" stroke-linecap="round" stroke-linejoin="round"/>
<path d="M328.143 20.3318C325.832 19.7807 323.349 20.033 321.214 21.0424" stroke="#9A6B60" stroke-width="2.4895" stroke-miterlimit="10" stroke-linecap="round" stroke-linejoin="round"/>
<path d="M314.656 22.5399C312.345 21.9887 309.862 22.241 307.727 23.2504" stroke="#9A6B60" stroke-width="2.4895" stroke-miterlimit="10" stroke-linecap="round" stroke-linejoin="round"/>
<g opacity="0.3">
<path opacity="0.3" d="M337.666 102.746C338.566 103.131 338.546 104.569 337.842 105.26C337.138 105.95 336.086 106.083 335.113 106.143C334.14 106.203 333.098 106.252 332.311 106.837C331.258 107.62 331.026 109.33 331.832 110.373" stroke="white" stroke-width="8.5195" stroke-miterlimit="10" stroke-linecap="round" stroke-linejoin="round"/>
<path opacity="0.3" d="M333.705 84.7899C334.562 86.4268 333.891 88.7112 332.294 89.5977C330.697 90.4843 328.456 89.8169 327.576 88.1932C326.696 86.5696 327.333 84.2752 328.917 83.3655C330.501 82.4557 332.752 83.0865 333.655 84.6969" stroke="white" stroke-width="8.5195" stroke-miterlimit="10" stroke-linecap="round" stroke-linejoin="round"/>
<path opacity="0.3" d="M323.548 78.6572C322.26 79.4375 321.197 80.6295 320.54 82.0373" stroke="white" stroke-width="8.5195" stroke-miterlimit="10" stroke-linecap="round" stroke-linejoin="round"/>
<path opacity="0.3" d="M364.106 83.0896C362.818 83.8699 361.755 85.0619 361.098 86.4697" stroke="white" stroke-width="8.5195" stroke-miterlimit="10" stroke-linecap="round" stroke-linejoin="round"/>
<path opacity="0.3" d="M347.86 65.0901C346.528 65.8704 345.433 67.0624 344.755 68.4702" stroke="white" stroke-width="8.5195" stroke-miterlimit="10" stroke-linecap="round" stroke-linejoin="round"/>
<path opacity="0.3" d="M324.787 128.947C323.89 128.243 322.994 127.539 322.097 126.835" stroke="white" stroke-width="8.5195" stroke-miterlimit="10" stroke-linecap="round" stroke-linejoin="round"/>
<path opacity="0.3" d="M321.622 189.407C320.726 188.703 319.829 188 318.933 187.296" stroke="white" stroke-width="8.5195" stroke-miterlimit="10" stroke-linecap="round" stroke-linejoin="round"/>
<path opacity="0.3" d="M361.098 75.6952C360.201 74.9913 359.305 74.2874 358.409 73.5835" stroke="white" stroke-width="8.5195" stroke-miterlimit="10" stroke-linecap="round" stroke-linejoin="round"/>
<path opacity="0.3" d="M367.526 196.104C366.63 195.4 365.733 194.697 364.837 193.993" stroke="white" stroke-width="8.5195" stroke-miterlimit="10" stroke-linecap="round" stroke-linejoin="round"/>
<path opacity="0.3" d="M340.774 127.948C340.767 126.998 340.107 126.075 338.403 125.584C337.195 125.235 335.744 125.577 335.01 126.616C334.273 127.659 334.436 129.226 335.306 130.152C337.427 132.43 340.794 130.113 340.774 127.948Z" stroke="white" stroke-width="8.5195" stroke-miterlimit="10" stroke-linecap="round" stroke-linejoin="round"/>
<path opacity="0.3" d="M354.298 191.904C354.291 190.955 353.631 190.032 351.927 189.54C350.719 189.191 349.268 189.533 348.534 190.573C347.797 191.615 347.959 193.183 348.829 194.109C350.951 196.387 354.318 194.069 354.298 191.904Z" stroke="white" stroke-width="8.5195" stroke-miterlimit="10" stroke-linecap="round" stroke-linejoin="round"/>
<path opacity="0.3" d="M333.742 157.233C333.735 156.283 333.074 155.36 331.371 154.869C330.162 154.52 328.711 154.862 327.977 155.902C327.24 156.944 327.403 158.511 328.273 159.438C330.398 161.716 333.762 159.401 333.742 157.233Z" stroke="white" stroke-width="8.5195" stroke-miterlimit="10" stroke-linecap="round" stroke-linejoin="round"/>
<path opacity="0.3" d="M349.825 112.681C348.653 113.737 347.481 114.793 346.309 115.849" stroke="white" stroke-width="8.5195" stroke-miterlimit="10" stroke-linecap="round" stroke-linejoin="round"/>
<path opacity="0.3" d="M368.223 103.885C368.652 103.075 368.489 101.986 367.848 101.342C367.207 100.698 366.138 100.551 365.351 101.003C364.966 101.222 364.611 101.581 364.169 101.564C363.741 101.548 363.399 101.162 363.253 100.751C363.107 100.339 363.107 99.8874 363.044 99.4557C362.791 97.7292 361.42 96.2284 359.75 95.8499" stroke="white" stroke-width="8.5195" stroke-miterlimit="10" stroke-linecap="round" stroke-linejoin="round"/>
<path opacity="0.3" d="M338.198 78.6571C338.626 77.8469 338.463 76.7578 337.822 76.1137C337.182 75.4695 336.112 75.3234 335.325 75.775C334.94 75.9975 334.585 76.3528 334.143 76.3362C333.715 76.3196 333.373 75.9344 333.227 75.5227C333.081 75.1109 333.081 74.6594 333.018 74.2277C332.762 72.5011 331.394 71.0003 329.724 70.6218" stroke="white" stroke-width="8.5195" stroke-miterlimit="10" stroke-linecap="round" stroke-linejoin="round"/>
<path opacity="0.3" d="M362.028 127.058C359.434 125.7 361.742 119.322 364.84 120.962C367.918 122.592 365.155 128.698 362.028 127.058Z" stroke="white" stroke-width="8.5195" stroke-miterlimit="10" stroke-linecap="round" stroke-linejoin="round"/>
<path opacity="0.3" d="M330.252 148.092C328.947 146.156 327.333 144.436 325.494 143.022" stroke="white" stroke-width="8.5195" stroke-miterlimit="10" stroke-linecap="round" stroke-linejoin="round"/>
<path opacity="0.3" d="M310.107 125.766C308.803 123.83 307.189 122.11 305.349 120.696" stroke="white" stroke-width="8.5195" stroke-miterlimit="10" stroke-linecap="round" stroke-linejoin="round"/>
<path opacity="0.3" d="M343.613 148.375C342.441 149.922 341.266 151.472 340.093 153.02" stroke="white" stroke-width="8.5195" stroke-miterlimit="10" stroke-linecap="round" stroke-linejoin="round"/>
<path opacity="0.3" d="M371.896 162.672C370.724 164.219 369.548 165.77 368.376 167.317" stroke="white" stroke-width="8.5195" stroke-miterlimit="10" stroke-linecap="round" stroke-linejoin="round"/>
<path opacity="0.3" d="M320.278 163.602C320.962 163.658 321.224 164.578 321.071 165.258C320.919 165.939 320.527 166.583 320.583 167.281C320.756 169.425 325.149 167.055 326.281 168.702C327.357 170.269 324.91 173.084 327.878 173.802" stroke="white" stroke-width="8.5195" stroke-miterlimit="10" stroke-linecap="round" stroke-linejoin="round"/>
<path opacity="0.3" d="M319.643 106.332C320.327 106.389 320.59 107.308 320.437 107.989C320.284 108.67 319.892 109.314 319.949 110.011C320.122 112.156 324.514 109.785 325.647 111.432C326.722 112.999 324.275 115.815 327.244 116.532" stroke="white" stroke-width="8.5195" stroke-miterlimit="10" stroke-linecap="round" stroke-linejoin="round"/>
<path opacity="0.3" d="M368.074 181.658C368.957 180.1 367.805 177.789 366.052 177.6C365.451 177.537 364.843 177.683 364.239 177.67C363.635 177.657 362.964 177.427 362.705 176.87C362.456 176.332 362.669 175.704 362.659 175.11C362.642 174.27 362.124 173.463 361.377 173.114C360.63 172.766 359.69 172.892 359.059 173.43" stroke="white" stroke-width="8.5195" stroke-miterlimit="10" stroke-linecap="round" stroke-linejoin="round"/>
</g>
</svg>
