<svg width="62" height="45" viewBox="0 0 62 45" fill="none" xmlns="http://www.w3.org/2000/svg">
<path d="M0 33.25H7.63971V35.2605H2.3551V37.673H7.3525V39.6834H2.3551V42.4406H7.98436L7.7546 44.4511H0.0574362V33.25H0Z" fill="white"/>
<path d="M11.1436 33.2505H15.3368C17.06 33.2505 18.3812 33.71 19.3577 34.6291C20.3342 35.5481 20.7937 36.9267 20.7937 38.7649C20.7937 39.6839 20.6788 40.4881 20.3916 41.1774C20.1044 41.8667 19.7598 42.4411 19.2428 42.9581C18.7258 43.4751 18.1514 43.8197 17.4047 44.0495C16.6579 44.2792 15.8538 44.3941 14.9921 44.3941H11.201V33.2505H11.1436ZM14.9921 42.4411C15.624 42.4411 16.141 42.3837 16.543 42.2114C16.9451 42.039 17.2898 41.8093 17.577 41.4646C17.8642 41.12 18.0365 40.7753 18.1514 40.3158C18.2663 39.8563 18.3237 39.3967 18.3237 38.8223C18.3237 38.3053 18.2663 37.7884 18.1514 37.3288C18.0365 36.8693 17.8642 36.5247 17.6344 36.2374C17.4047 35.9502 17.06 35.7205 16.7154 35.5481C16.3133 35.3758 15.8538 35.3184 15.3368 35.3184H13.4987V42.4986H14.9921V42.4411Z" fill="white"/>
<path d="M24.0105 33.2505H26.3656V39.9137C26.3656 40.8902 26.5379 41.5795 26.8826 42.039C27.2272 42.4986 27.8016 42.7283 28.5484 42.7283C29.3526 42.7283 29.8695 42.4986 30.2142 42.039C30.5588 41.5795 30.7312 40.8902 30.7312 39.9137V33.2505H33.0863V39.9137C33.0863 40.7753 32.9714 41.4646 32.799 42.0965C32.6267 42.7283 32.2821 43.1879 31.88 43.59C31.4779 43.992 31.0184 44.2793 30.444 44.4516C29.8695 44.6239 29.2377 44.7388 28.5484 44.7388C27.8591 44.7388 27.2272 44.6239 26.6528 44.4516C26.0784 44.2793 25.6189 43.992 25.2168 43.59C24.8147 43.1879 24.5275 42.6709 24.3552 42.0965C24.1828 41.4646 24.0679 40.7753 24.0679 39.9137V33.2505H24.0105Z" fill="white"/>
<path d="M39.5772 38.4775L35.9583 33.1929H37.6242L40.4388 37.4435L43.3109 33.1929H44.8618L41.243 38.5349L45.2639 44.394H43.5981L40.3813 39.6263L37.2221 44.394H35.6711L39.5772 38.4775Z" fill="white"/>
<path d="M51.6973 38.4775L48.0785 33.1929H49.7443L52.5589 37.4435L55.431 33.1929H56.9819L53.3631 38.5349L57.384 44.394H55.7182L52.5015 39.6263L49.3422 44.394H47.7913L51.6973 38.4775Z" fill="white"/>
<path d="M60.3711 33.2505H61.8071V44.3941H60.3711V33.2505Z" fill="white"/>
<path d="M38.3512 25.4465C37.4896 24.6997 36.513 24.1253 35.5365 23.6658C35.077 23.436 34.6175 23.3786 34.2154 23.3786C33.3538 23.3786 32.4921 23.8955 31.9752 24.6997H29.4477C28.9882 23.8381 28.0117 23.3211 27.2075 23.3211C26.8054 23.3211 26.3459 23.436 25.8289 23.6658C24.8524 24.1253 23.9334 24.6997 23.0717 25.389L20.0273 22.2872C21.2336 21.1958 22.5548 20.3342 23.9908 19.7023C25.0822 19.1853 26.1161 18.9556 27.1501 18.9556C28.4712 18.9556 29.6775 19.53 30.2519 20.1044L30.654 20.5065L31.1136 20.1618C31.688 19.5874 32.9517 19.0704 34.2154 19.0704C35.2493 19.0704 36.2833 19.3002 37.2598 19.7597C38.7533 20.449 40.1319 21.3107 41.3381 22.4021L38.3512 25.4465Z" fill="white"/>
<path d="M46.1058 1.60836C43.923 0.631854 41.7402 0.114881 39.6723 0.114881C35.7663 0.114881 32.8943 1.83813 31.171 3.27416L30.7689 3.56137L30.4243 3.21672C28.7585 1.78068 25.8864 0 21.9804 0C19.7976 0 17.5574 0.516971 15.2597 1.60836C11.7558 3.21672 8.53907 5.34206 5.66699 7.86948L8.71139 10.9139C11.2388 8.7311 13.996 6.89298 17.0404 5.51438C18.7636 4.7102 20.4295 4.30811 21.9804 4.30811C25.9438 4.30811 28.1266 6.72065 28.6436 7.35251H32.8368C33.4687 6.60577 35.8238 4.36555 39.6723 4.36555C41.1658 4.36555 42.7167 4.7102 44.3251 5.45694C47.4269 6.83554 50.2416 8.67366 52.8265 10.9139L55.8708 7.86948C52.9413 5.34206 49.6672 3.21672 46.1058 1.60836Z" fill="white"/>
<path d="M41.6827 10.684C40.0744 9.93725 38.466 9.5926 36.9151 9.5926C34.2728 9.5926 32.2623 10.6265 31.056 11.5456L30.7114 11.7754L30.4242 11.5456C29.2179 10.6265 27.2649 9.53516 24.6226 9.53516C23.0142 9.53516 21.3484 9.93725 19.6826 10.684C17.2127 11.8328 14.915 13.3263 12.9045 15.107L15.9489 18.1514C17.6147 16.7153 19.4529 15.5091 21.4633 14.59C22.5547 14.073 23.6461 13.8433 24.6226 13.8433C27.3224 13.8433 28.7584 15.7963 28.9307 16.026V16.0835H32.4921C32.7219 15.7963 34.3302 13.9007 36.9725 13.9007C37.8916 13.9007 38.9255 14.1305 39.9595 14.59C42.0274 15.5091 43.9229 16.7153 45.5887 18.2088L48.6331 15.1644C46.5652 13.3263 44.2101 11.8328 41.6827 10.684Z" fill="white"/>
</svg>
